G04 EAGLE Gerber RS-274X export*
G75*
%MOMM*%
%FSLAX34Y34*%
%LPD*%
%INTop Copper*%
%IPPOS*%
%AMOC8*
5,1,8,0,0,1.08239X$1,22.5*%
G01*
%ADD10R,4.000000X0.400000*%
%ADD11R,1.524000X0.762000*%
%ADD12C,4.016000*%
%ADD13C,2.184400*%
%ADD14C,2.200000*%
%ADD15C,1.700000*%
%ADD16C,0.300000*%
%ADD17R,1.422400X1.422400*%
%ADD18C,1.422400*%
%ADD19C,0.304800*%
%ADD20C,0.756400*%
%ADD21C,0.254000*%
%ADD22C,0.355600*%

G36*
X457799Y11442D02*
X457799Y11442D01*
X457870Y11444D01*
X457919Y11462D01*
X457971Y11470D01*
X458034Y11504D01*
X458102Y11529D01*
X458142Y11561D01*
X458188Y11586D01*
X458237Y11637D01*
X458294Y11682D01*
X458322Y11726D01*
X458358Y11764D01*
X458388Y11829D01*
X458427Y11889D01*
X458439Y11940D01*
X458461Y11987D01*
X458469Y12058D01*
X458487Y12128D01*
X458483Y12180D01*
X458488Y12231D01*
X458473Y12302D01*
X458467Y12373D01*
X458447Y12421D01*
X458436Y12472D01*
X458399Y12533D01*
X458371Y12599D01*
X458326Y12655D01*
X458310Y12683D01*
X458292Y12698D01*
X458266Y12730D01*
X457711Y13285D01*
X455479Y18674D01*
X455479Y24506D01*
X457711Y29895D01*
X461835Y34019D01*
X467224Y36251D01*
X473056Y36251D01*
X478445Y34019D01*
X482569Y29895D01*
X484437Y25385D01*
X484475Y25324D01*
X484504Y25259D01*
X484539Y25220D01*
X484566Y25176D01*
X484622Y25130D01*
X484670Y25077D01*
X484716Y25052D01*
X484756Y25019D01*
X484823Y24993D01*
X484886Y24959D01*
X484937Y24950D01*
X484985Y24931D01*
X485057Y24928D01*
X485128Y24915D01*
X485179Y24923D01*
X485231Y24921D01*
X485300Y24941D01*
X485371Y24951D01*
X485417Y24975D01*
X485467Y24989D01*
X485526Y25030D01*
X485590Y25062D01*
X485627Y25100D01*
X485669Y25129D01*
X485712Y25187D01*
X485762Y25238D01*
X485797Y25301D01*
X485816Y25327D01*
X485823Y25349D01*
X485843Y25385D01*
X487711Y29895D01*
X491835Y34019D01*
X497224Y36251D01*
X503056Y36251D01*
X508445Y34019D01*
X512569Y29895D01*
X514801Y24506D01*
X514801Y18674D01*
X512569Y13285D01*
X512014Y12730D01*
X511972Y12672D01*
X511922Y12620D01*
X511901Y12573D01*
X511870Y12531D01*
X511849Y12462D01*
X511819Y12397D01*
X511813Y12345D01*
X511798Y12295D01*
X511800Y12224D01*
X511792Y12153D01*
X511803Y12102D01*
X511804Y12050D01*
X511829Y11982D01*
X511844Y11912D01*
X511871Y11867D01*
X511889Y11819D01*
X511933Y11763D01*
X511970Y11701D01*
X512010Y11667D01*
X512042Y11627D01*
X512103Y11588D01*
X512157Y11541D01*
X512205Y11522D01*
X512249Y11494D01*
X512319Y11476D01*
X512385Y11449D01*
X512457Y11441D01*
X512488Y11433D01*
X512511Y11435D01*
X512552Y11431D01*
X785248Y11431D01*
X785268Y11434D01*
X785287Y11432D01*
X785389Y11454D01*
X785491Y11470D01*
X785508Y11480D01*
X785528Y11484D01*
X785617Y11537D01*
X785708Y11586D01*
X785722Y11600D01*
X785739Y11610D01*
X785806Y11689D01*
X785878Y11764D01*
X785886Y11782D01*
X785899Y11797D01*
X785938Y11893D01*
X785981Y11987D01*
X785983Y12007D01*
X785991Y12025D01*
X786009Y12192D01*
X786009Y15045D01*
X788470Y20984D01*
X791277Y23792D01*
X791289Y23808D01*
X791304Y23820D01*
X791360Y23908D01*
X791421Y23991D01*
X791426Y24010D01*
X791437Y24027D01*
X791462Y24128D01*
X791493Y24227D01*
X791492Y24246D01*
X791497Y24266D01*
X791489Y24369D01*
X791487Y24472D01*
X791480Y24491D01*
X791478Y24511D01*
X791438Y24606D01*
X791402Y24703D01*
X791390Y24719D01*
X791382Y24737D01*
X791277Y24868D01*
X788470Y27676D01*
X786009Y33615D01*
X786009Y40045D01*
X788470Y45984D01*
X793016Y50530D01*
X798955Y52991D01*
X805385Y52991D01*
X811324Y50530D01*
X815870Y45984D01*
X818331Y40045D01*
X818331Y33615D01*
X815870Y27676D01*
X813063Y24868D01*
X813051Y24852D01*
X813036Y24840D01*
X812980Y24752D01*
X812919Y24669D01*
X812914Y24650D01*
X812903Y24633D01*
X812878Y24532D01*
X812847Y24433D01*
X812848Y24414D01*
X812843Y24394D01*
X812851Y24291D01*
X812853Y24188D01*
X812860Y24169D01*
X812862Y24149D01*
X812902Y24054D01*
X812938Y23957D01*
X812950Y23941D01*
X812958Y23923D01*
X813063Y23792D01*
X815870Y20984D01*
X818331Y15045D01*
X818331Y12192D01*
X818334Y12172D01*
X818332Y12153D01*
X818354Y12051D01*
X818370Y11949D01*
X818380Y11932D01*
X818384Y11912D01*
X818437Y11823D01*
X818486Y11732D01*
X818500Y11718D01*
X818510Y11701D01*
X818589Y11634D01*
X818664Y11562D01*
X818682Y11554D01*
X818697Y11541D01*
X818793Y11502D01*
X818887Y11459D01*
X818907Y11457D01*
X818925Y11449D01*
X819092Y11431D01*
X885248Y11431D01*
X885268Y11434D01*
X885287Y11432D01*
X885389Y11454D01*
X885491Y11470D01*
X885508Y11480D01*
X885528Y11484D01*
X885617Y11537D01*
X885708Y11586D01*
X885722Y11600D01*
X885739Y11610D01*
X885806Y11689D01*
X885878Y11764D01*
X885886Y11782D01*
X885899Y11797D01*
X885938Y11893D01*
X885981Y11987D01*
X885983Y12007D01*
X885991Y12025D01*
X886009Y12192D01*
X886009Y15045D01*
X888470Y20984D01*
X891277Y23792D01*
X891289Y23808D01*
X891304Y23820D01*
X891360Y23908D01*
X891421Y23991D01*
X891426Y24010D01*
X891437Y24027D01*
X891462Y24128D01*
X891493Y24227D01*
X891492Y24246D01*
X891497Y24266D01*
X891489Y24369D01*
X891487Y24472D01*
X891480Y24491D01*
X891478Y24511D01*
X891438Y24606D01*
X891402Y24703D01*
X891390Y24719D01*
X891382Y24737D01*
X891277Y24868D01*
X888470Y27676D01*
X886009Y33615D01*
X886009Y40045D01*
X888470Y45984D01*
X893016Y50530D01*
X898955Y52991D01*
X905385Y52991D01*
X911324Y50530D01*
X915870Y45984D01*
X918331Y40045D01*
X918331Y33615D01*
X915870Y27676D01*
X913063Y24868D01*
X913051Y24852D01*
X913036Y24840D01*
X912980Y24752D01*
X912919Y24669D01*
X912914Y24650D01*
X912903Y24633D01*
X912878Y24532D01*
X912847Y24433D01*
X912848Y24414D01*
X912843Y24394D01*
X912851Y24291D01*
X912853Y24188D01*
X912860Y24169D01*
X912862Y24149D01*
X912902Y24054D01*
X912938Y23957D01*
X912950Y23941D01*
X912958Y23923D01*
X913063Y23792D01*
X915870Y20984D01*
X918331Y15045D01*
X918331Y12192D01*
X918334Y12172D01*
X918332Y12153D01*
X918354Y12051D01*
X918370Y11949D01*
X918380Y11932D01*
X918384Y11912D01*
X918437Y11823D01*
X918486Y11732D01*
X918500Y11718D01*
X918510Y11701D01*
X918589Y11634D01*
X918664Y11562D01*
X918682Y11554D01*
X918697Y11541D01*
X918793Y11502D01*
X918887Y11459D01*
X918907Y11457D01*
X918925Y11449D01*
X919092Y11431D01*
X955668Y11431D01*
X955738Y11442D01*
X955810Y11444D01*
X955859Y11462D01*
X955911Y11470D01*
X955974Y11504D01*
X956041Y11529D01*
X956082Y11561D01*
X956128Y11586D01*
X956177Y11638D01*
X956233Y11682D01*
X956261Y11726D01*
X956297Y11764D01*
X956327Y11829D01*
X956366Y11889D01*
X956379Y11940D01*
X956401Y11987D01*
X956409Y12058D01*
X956426Y12128D01*
X956422Y12180D01*
X956428Y12231D01*
X956413Y12302D01*
X956407Y12373D01*
X956387Y12421D01*
X956376Y12472D01*
X956339Y12533D01*
X956311Y12599D01*
X956266Y12655D01*
X956250Y12683D01*
X956232Y12698D01*
X956206Y12730D01*
X950694Y18242D01*
X947405Y26183D01*
X947405Y34777D01*
X950694Y42718D01*
X956772Y48796D01*
X964713Y52085D01*
X973307Y52085D01*
X981248Y48796D01*
X987270Y42774D01*
X987328Y42732D01*
X987380Y42683D01*
X987427Y42661D01*
X987469Y42630D01*
X987538Y42609D01*
X987603Y42579D01*
X987655Y42573D01*
X987705Y42558D01*
X987776Y42560D01*
X987847Y42552D01*
X987898Y42563D01*
X987950Y42564D01*
X988018Y42589D01*
X988088Y42604D01*
X988133Y42631D01*
X988181Y42649D01*
X988237Y42694D01*
X988299Y42730D01*
X988333Y42770D01*
X988373Y42803D01*
X988412Y42863D01*
X988459Y42917D01*
X988478Y42966D01*
X988506Y43009D01*
X988524Y43079D01*
X988551Y43146D01*
X988559Y43217D01*
X988567Y43248D01*
X988565Y43271D01*
X988569Y43312D01*
X988569Y455798D01*
X988558Y455868D01*
X988556Y455940D01*
X988538Y455989D01*
X988530Y456041D01*
X988496Y456104D01*
X988471Y456171D01*
X988439Y456212D01*
X988414Y456258D01*
X988362Y456307D01*
X988318Y456363D01*
X988274Y456391D01*
X988236Y456427D01*
X988171Y456457D01*
X988111Y456496D01*
X988060Y456509D01*
X988013Y456531D01*
X987942Y456539D01*
X987872Y456556D01*
X987820Y456552D01*
X987769Y456558D01*
X987698Y456543D01*
X987627Y456537D01*
X987579Y456517D01*
X987528Y456506D01*
X987467Y456469D01*
X987401Y456441D01*
X987345Y456396D01*
X987317Y456380D01*
X987302Y456362D01*
X987270Y456336D01*
X981248Y450314D01*
X973307Y447025D01*
X964713Y447025D01*
X956772Y450314D01*
X950694Y456392D01*
X947405Y464333D01*
X947405Y472927D01*
X950694Y480868D01*
X956772Y486946D01*
X957156Y487105D01*
X957239Y487156D01*
X957325Y487202D01*
X957343Y487221D01*
X957365Y487234D01*
X957427Y487309D01*
X957494Y487380D01*
X957505Y487404D01*
X957522Y487424D01*
X957557Y487515D01*
X957598Y487603D01*
X957601Y487629D01*
X957610Y487653D01*
X957614Y487751D01*
X957625Y487847D01*
X957619Y487873D01*
X957621Y487899D01*
X957593Y487993D01*
X957573Y488088D01*
X957559Y488110D01*
X957552Y488135D01*
X957496Y488215D01*
X957447Y488299D01*
X957427Y488316D01*
X957412Y488337D01*
X957334Y488395D01*
X957260Y488459D01*
X957235Y488469D01*
X957214Y488484D01*
X957122Y488514D01*
X957031Y488551D01*
X956999Y488554D01*
X956981Y488560D01*
X956947Y488560D01*
X956865Y488569D01*
X591049Y488569D01*
X591030Y488566D01*
X591010Y488568D01*
X590909Y488546D01*
X590807Y488530D01*
X590789Y488520D01*
X590770Y488516D01*
X590680Y488463D01*
X590589Y488414D01*
X590576Y488400D01*
X590558Y488390D01*
X590491Y488311D01*
X590420Y488236D01*
X590411Y488218D01*
X590398Y488203D01*
X590360Y488107D01*
X590316Y488013D01*
X590314Y487993D01*
X590307Y487975D01*
X590288Y487808D01*
X590288Y431117D01*
X590288Y431116D01*
X410000Y431116D01*
X409999Y431117D01*
X409999Y487808D01*
X409996Y487828D01*
X409998Y487847D01*
X409976Y487949D01*
X409959Y488051D01*
X409950Y488068D01*
X409946Y488088D01*
X409893Y488177D01*
X409844Y488268D01*
X409830Y488282D01*
X409820Y488299D01*
X409741Y488366D01*
X409666Y488438D01*
X409648Y488446D01*
X409633Y488459D01*
X409537Y488498D01*
X409443Y488541D01*
X409423Y488543D01*
X409405Y488551D01*
X409238Y488569D01*
X42625Y488569D01*
X42529Y488554D01*
X42432Y488544D01*
X42408Y488534D01*
X42383Y488530D01*
X42297Y488484D01*
X42207Y488444D01*
X42188Y488427D01*
X42165Y488414D01*
X42098Y488344D01*
X42026Y488278D01*
X42014Y488255D01*
X41996Y488236D01*
X41955Y488148D01*
X41908Y488062D01*
X41903Y488037D01*
X41892Y488013D01*
X41881Y487916D01*
X41864Y487820D01*
X41868Y487794D01*
X41865Y487769D01*
X41886Y487673D01*
X41900Y487577D01*
X41912Y487554D01*
X41917Y487528D01*
X41967Y487445D01*
X42011Y487358D01*
X42030Y487339D01*
X42043Y487317D01*
X42117Y487254D01*
X42187Y487186D01*
X42216Y487170D01*
X42230Y487157D01*
X42261Y487145D01*
X42334Y487105D01*
X42718Y486946D01*
X48796Y480868D01*
X52085Y472927D01*
X52085Y464333D01*
X48796Y456392D01*
X42718Y450314D01*
X34777Y447025D01*
X26183Y447025D01*
X18242Y450314D01*
X12730Y455826D01*
X12672Y455868D01*
X12620Y455917D01*
X12573Y455939D01*
X12531Y455970D01*
X12462Y455991D01*
X12397Y456021D01*
X12345Y456027D01*
X12295Y456042D01*
X12224Y456040D01*
X12153Y456048D01*
X12102Y456037D01*
X12050Y456036D01*
X11982Y456011D01*
X11912Y455996D01*
X11867Y455969D01*
X11819Y455951D01*
X11763Y455906D01*
X11701Y455870D01*
X11667Y455830D01*
X11627Y455797D01*
X11588Y455737D01*
X11541Y455683D01*
X11522Y455634D01*
X11494Y455591D01*
X11476Y455521D01*
X11449Y455454D01*
X11441Y455383D01*
X11433Y455352D01*
X11435Y455329D01*
X11431Y455288D01*
X11431Y316285D01*
X11438Y316237D01*
X11437Y316189D01*
X11458Y316117D01*
X11470Y316042D01*
X11493Y316000D01*
X11507Y315953D01*
X11550Y315891D01*
X11586Y315824D01*
X11620Y315791D01*
X11648Y315752D01*
X11709Y315707D01*
X11764Y315655D01*
X11807Y315635D01*
X11846Y315606D01*
X11918Y315583D01*
X11987Y315551D01*
X12035Y315546D01*
X12080Y315532D01*
X12156Y315533D01*
X12231Y315524D01*
X12278Y315535D01*
X12326Y315535D01*
X12398Y315561D01*
X12472Y315577D01*
X12513Y315601D01*
X12558Y315617D01*
X12618Y315664D01*
X12683Y315703D01*
X12714Y315739D01*
X12752Y315769D01*
X12828Y315873D01*
X12843Y315890D01*
X12845Y315896D01*
X12851Y315904D01*
X13207Y316520D01*
X13680Y316993D01*
X14259Y317328D01*
X14906Y317501D01*
X21337Y317501D01*
X21337Y311912D01*
X21340Y311892D01*
X21338Y311873D01*
X21360Y311771D01*
X21377Y311669D01*
X21386Y311652D01*
X21390Y311632D01*
X21443Y311543D01*
X21492Y311452D01*
X21506Y311438D01*
X21516Y311421D01*
X21595Y311354D01*
X21670Y311283D01*
X21688Y311274D01*
X21703Y311261D01*
X21799Y311222D01*
X21893Y311179D01*
X21913Y311177D01*
X21931Y311169D01*
X22098Y311151D01*
X22861Y311151D01*
X22861Y311149D01*
X22098Y311149D01*
X22078Y311146D01*
X22059Y311148D01*
X21957Y311126D01*
X21855Y311109D01*
X21838Y311100D01*
X21818Y311096D01*
X21729Y311043D01*
X21638Y310994D01*
X21624Y310980D01*
X21607Y310970D01*
X21540Y310891D01*
X21469Y310816D01*
X21460Y310798D01*
X21447Y310783D01*
X21408Y310687D01*
X21365Y310593D01*
X21363Y310573D01*
X21355Y310555D01*
X21337Y310388D01*
X21337Y304799D01*
X14906Y304799D01*
X14259Y304972D01*
X13680Y305307D01*
X13207Y305780D01*
X12851Y306396D01*
X12821Y306433D01*
X12798Y306476D01*
X12744Y306528D01*
X12695Y306586D01*
X12655Y306612D01*
X12620Y306645D01*
X12551Y306677D01*
X12487Y306717D01*
X12441Y306728D01*
X12397Y306749D01*
X12322Y306757D01*
X12248Y306775D01*
X12200Y306770D01*
X12153Y306776D01*
X12078Y306760D01*
X12003Y306753D01*
X11959Y306734D01*
X11912Y306723D01*
X11847Y306684D01*
X11778Y306654D01*
X11742Y306622D01*
X11701Y306597D01*
X11652Y306540D01*
X11596Y306489D01*
X11572Y306447D01*
X11541Y306410D01*
X11513Y306340D01*
X11476Y306274D01*
X11467Y306227D01*
X11449Y306182D01*
X11435Y306054D01*
X11431Y306032D01*
X11432Y306025D01*
X11431Y306015D01*
X11431Y170235D01*
X11438Y170187D01*
X11437Y170139D01*
X11458Y170067D01*
X11470Y169992D01*
X11493Y169950D01*
X11507Y169903D01*
X11550Y169841D01*
X11586Y169774D01*
X11620Y169741D01*
X11648Y169702D01*
X11709Y169657D01*
X11764Y169605D01*
X11807Y169585D01*
X11846Y169556D01*
X11918Y169533D01*
X11987Y169501D01*
X12035Y169496D01*
X12080Y169482D01*
X12156Y169483D01*
X12231Y169474D01*
X12278Y169485D01*
X12326Y169485D01*
X12398Y169511D01*
X12472Y169527D01*
X12513Y169551D01*
X12558Y169567D01*
X12618Y169614D01*
X12683Y169653D01*
X12714Y169689D01*
X12752Y169719D01*
X12828Y169823D01*
X12843Y169840D01*
X12845Y169846D01*
X12851Y169854D01*
X13207Y170470D01*
X13680Y170943D01*
X14259Y171278D01*
X14906Y171451D01*
X21337Y171451D01*
X21337Y165862D01*
X21340Y165842D01*
X21338Y165823D01*
X21360Y165721D01*
X21377Y165619D01*
X21386Y165602D01*
X21390Y165582D01*
X21443Y165493D01*
X21492Y165402D01*
X21506Y165388D01*
X21516Y165371D01*
X21595Y165304D01*
X21670Y165233D01*
X21688Y165224D01*
X21703Y165211D01*
X21799Y165172D01*
X21893Y165129D01*
X21913Y165127D01*
X21931Y165119D01*
X22098Y165101D01*
X22861Y165101D01*
X22861Y165099D01*
X22098Y165099D01*
X22078Y165096D01*
X22059Y165098D01*
X21957Y165076D01*
X21855Y165059D01*
X21838Y165050D01*
X21818Y165046D01*
X21729Y164993D01*
X21638Y164944D01*
X21624Y164930D01*
X21607Y164920D01*
X21540Y164841D01*
X21469Y164766D01*
X21460Y164748D01*
X21447Y164733D01*
X21408Y164637D01*
X21365Y164543D01*
X21363Y164523D01*
X21355Y164505D01*
X21337Y164338D01*
X21337Y158749D01*
X14906Y158749D01*
X14259Y158922D01*
X13680Y159257D01*
X13207Y159730D01*
X12851Y160346D01*
X12821Y160383D01*
X12798Y160426D01*
X12744Y160478D01*
X12695Y160536D01*
X12655Y160562D01*
X12620Y160595D01*
X12551Y160627D01*
X12487Y160667D01*
X12441Y160678D01*
X12397Y160699D01*
X12322Y160707D01*
X12248Y160725D01*
X12200Y160720D01*
X12153Y160726D01*
X12078Y160710D01*
X12003Y160703D01*
X11959Y160684D01*
X11912Y160673D01*
X11847Y160634D01*
X11778Y160604D01*
X11742Y160572D01*
X11701Y160547D01*
X11652Y160490D01*
X11596Y160439D01*
X11572Y160397D01*
X11541Y160360D01*
X11513Y160290D01*
X11476Y160224D01*
X11467Y160177D01*
X11449Y160132D01*
X11435Y160004D01*
X11431Y159982D01*
X11432Y159975D01*
X11431Y159965D01*
X11431Y43822D01*
X11442Y43752D01*
X11444Y43680D01*
X11462Y43631D01*
X11470Y43579D01*
X11504Y43516D01*
X11529Y43449D01*
X11561Y43408D01*
X11586Y43362D01*
X11638Y43313D01*
X11682Y43257D01*
X11726Y43229D01*
X11764Y43193D01*
X11829Y43163D01*
X11889Y43124D01*
X11940Y43111D01*
X11987Y43089D01*
X12058Y43081D01*
X12128Y43064D01*
X12180Y43068D01*
X12231Y43062D01*
X12302Y43077D01*
X12373Y43083D01*
X12421Y43103D01*
X12472Y43114D01*
X12533Y43151D01*
X12599Y43179D01*
X12655Y43224D01*
X12683Y43240D01*
X12698Y43258D01*
X12730Y43284D01*
X18242Y48796D01*
X26183Y52085D01*
X34777Y52085D01*
X42718Y48796D01*
X48796Y42718D01*
X52085Y34777D01*
X52085Y26183D01*
X48796Y18242D01*
X43284Y12730D01*
X43242Y12672D01*
X43193Y12620D01*
X43171Y12573D01*
X43140Y12531D01*
X43119Y12462D01*
X43089Y12397D01*
X43083Y12345D01*
X43068Y12295D01*
X43070Y12224D01*
X43062Y12153D01*
X43073Y12102D01*
X43074Y12050D01*
X43099Y11982D01*
X43114Y11912D01*
X43141Y11867D01*
X43159Y11819D01*
X43204Y11763D01*
X43240Y11701D01*
X43280Y11667D01*
X43313Y11627D01*
X43373Y11588D01*
X43427Y11541D01*
X43476Y11522D01*
X43519Y11494D01*
X43589Y11476D01*
X43656Y11449D01*
X43727Y11441D01*
X43758Y11433D01*
X43781Y11435D01*
X43822Y11431D01*
X457728Y11431D01*
X457799Y11442D01*
G37*
%LPC*%
G36*
X298538Y134901D02*
X298538Y134901D01*
X295429Y138010D01*
X295429Y142406D01*
X298538Y145515D01*
X302934Y145515D01*
X305223Y143226D01*
X305297Y143173D01*
X305367Y143113D01*
X305397Y143101D01*
X305423Y143082D01*
X305510Y143055D01*
X305595Y143021D01*
X305636Y143017D01*
X305658Y143010D01*
X305690Y143011D01*
X305761Y143003D01*
X324159Y143003D01*
X324230Y143014D01*
X324301Y143016D01*
X324350Y143034D01*
X324401Y143042D01*
X324465Y143076D01*
X324532Y143101D01*
X324573Y143133D01*
X324619Y143158D01*
X324668Y143210D01*
X324724Y143255D01*
X324752Y143298D01*
X324788Y143336D01*
X324818Y143401D01*
X324857Y143462D01*
X324870Y143512D01*
X324892Y143559D01*
X324900Y143631D01*
X324917Y143700D01*
X324913Y143752D01*
X324919Y143803D01*
X324904Y143874D01*
X324898Y143945D01*
X324893Y143956D01*
X324893Y147343D01*
X324879Y147433D01*
X324871Y147524D01*
X324859Y147554D01*
X324854Y147586D01*
X324811Y147666D01*
X324775Y147750D01*
X324749Y147782D01*
X324738Y147803D01*
X324715Y147825D01*
X324670Y147881D01*
X287073Y185478D01*
X286999Y185531D01*
X286930Y185591D01*
X286900Y185603D01*
X286874Y185622D01*
X286787Y185649D01*
X286702Y185683D01*
X286661Y185687D01*
X286639Y185694D01*
X286606Y185693D01*
X286535Y185701D01*
X283298Y185701D01*
X280189Y188810D01*
X280189Y193206D01*
X283298Y196315D01*
X287694Y196315D01*
X290803Y193206D01*
X290803Y189969D01*
X290817Y189879D01*
X290825Y189788D01*
X290837Y189758D01*
X290842Y189726D01*
X290885Y189646D01*
X290921Y189562D01*
X290947Y189530D01*
X290958Y189509D01*
X290981Y189487D01*
X291026Y189431D01*
X328623Y151834D01*
X328697Y151781D01*
X328766Y151721D01*
X328796Y151709D01*
X328822Y151690D01*
X328909Y151663D01*
X328994Y151629D01*
X329035Y151625D01*
X329057Y151618D01*
X329090Y151619D01*
X329161Y151611D01*
X332398Y151611D01*
X335250Y148759D01*
X335266Y148748D01*
X335278Y148732D01*
X335366Y148676D01*
X335449Y148616D01*
X335468Y148610D01*
X335485Y148599D01*
X335586Y148574D01*
X335685Y148543D01*
X335704Y148544D01*
X335724Y148539D01*
X335827Y148547D01*
X335930Y148550D01*
X335949Y148556D01*
X335969Y148558D01*
X336064Y148598D01*
X336161Y148634D01*
X336177Y148647D01*
X336195Y148654D01*
X336326Y148759D01*
X338104Y150537D01*
X338157Y150611D01*
X338217Y150681D01*
X338229Y150711D01*
X338248Y150737D01*
X338275Y150824D01*
X338309Y150909D01*
X338313Y150950D01*
X338320Y150972D01*
X338319Y151004D01*
X338327Y151075D01*
X338327Y165046D01*
X338313Y165136D01*
X338305Y165227D01*
X338293Y165257D01*
X338288Y165289D01*
X338245Y165369D01*
X338209Y165453D01*
X338183Y165485D01*
X338172Y165506D01*
X338149Y165528D01*
X338104Y165584D01*
X321258Y182430D01*
X321184Y182483D01*
X321115Y182543D01*
X321085Y182555D01*
X321058Y182574D01*
X320971Y182601D01*
X320887Y182635D01*
X320846Y182639D01*
X320823Y182646D01*
X320791Y182645D01*
X320720Y182653D01*
X318350Y182653D01*
X315241Y185762D01*
X315241Y188640D01*
X315227Y188730D01*
X315219Y188821D01*
X315207Y188851D01*
X315202Y188883D01*
X315159Y188963D01*
X315123Y189047D01*
X315097Y189079D01*
X315086Y189100D01*
X315063Y189122D01*
X315018Y189178D01*
X306046Y198150D01*
X305972Y198203D01*
X305903Y198263D01*
X305873Y198275D01*
X305846Y198294D01*
X305759Y198321D01*
X305675Y198355D01*
X305634Y198359D01*
X305611Y198366D01*
X305579Y198365D01*
X305508Y198373D01*
X292361Y198373D01*
X290575Y200159D01*
X290575Y236021D01*
X290573Y236032D01*
X290574Y236039D01*
X290566Y236076D01*
X290561Y236111D01*
X290553Y236202D01*
X290541Y236231D01*
X290536Y236263D01*
X290493Y236344D01*
X290457Y236428D01*
X290431Y236460D01*
X290420Y236481D01*
X290397Y236503D01*
X290352Y236559D01*
X288317Y238594D01*
X288317Y242990D01*
X291426Y246099D01*
X295822Y246099D01*
X298931Y242990D01*
X298931Y238594D01*
X296896Y236559D01*
X296843Y236485D01*
X296783Y236415D01*
X296771Y236385D01*
X296752Y236359D01*
X296725Y236272D01*
X296691Y236187D01*
X296687Y236146D01*
X296680Y236124D01*
X296681Y236092D01*
X296673Y236021D01*
X296673Y205232D01*
X296676Y205212D01*
X296674Y205193D01*
X296696Y205091D01*
X296712Y204989D01*
X296722Y204972D01*
X296726Y204952D01*
X296779Y204863D01*
X296828Y204772D01*
X296842Y204758D01*
X296852Y204741D01*
X296931Y204674D01*
X297006Y204602D01*
X297024Y204594D01*
X297039Y204581D01*
X297135Y204542D01*
X297229Y204499D01*
X297249Y204497D01*
X297267Y204489D01*
X297434Y204471D01*
X308349Y204471D01*
X310358Y202462D01*
X319330Y193490D01*
X319404Y193437D01*
X319473Y193377D01*
X319503Y193365D01*
X319530Y193346D01*
X319617Y193319D01*
X319701Y193285D01*
X319742Y193281D01*
X319765Y193274D01*
X319797Y193275D01*
X319868Y193267D01*
X322746Y193267D01*
X325855Y190158D01*
X325855Y186772D01*
X325869Y186682D01*
X325877Y186591D01*
X325889Y186561D01*
X325894Y186529D01*
X325937Y186449D01*
X325973Y186365D01*
X325999Y186333D01*
X326010Y186312D01*
X326033Y186290D01*
X326078Y186234D01*
X344425Y167887D01*
X344425Y151075D01*
X344439Y150985D01*
X344447Y150894D01*
X344459Y150865D01*
X344464Y150833D01*
X344507Y150752D01*
X344543Y150668D01*
X344569Y150636D01*
X344580Y150615D01*
X344603Y150593D01*
X344648Y150537D01*
X346683Y148502D01*
X346683Y144106D01*
X345863Y143286D01*
X345821Y143228D01*
X345772Y143176D01*
X345750Y143129D01*
X345720Y143087D01*
X345698Y143018D01*
X345668Y142953D01*
X345663Y142901D01*
X345647Y142851D01*
X345649Y142780D01*
X345641Y142709D01*
X345652Y142658D01*
X345654Y142606D01*
X345678Y142538D01*
X345693Y142468D01*
X345720Y142423D01*
X345738Y142375D01*
X345783Y142319D01*
X345820Y142257D01*
X345859Y142223D01*
X345892Y142183D01*
X345952Y142144D01*
X346007Y142097D01*
X346055Y142078D01*
X346099Y142050D01*
X346168Y142032D01*
X346235Y142005D01*
X346306Y141997D01*
X346337Y141989D01*
X346360Y141991D01*
X346401Y141987D01*
X460807Y141987D01*
X460897Y142001D01*
X460988Y142009D01*
X461018Y142021D01*
X461050Y142026D01*
X461130Y142069D01*
X461214Y142105D01*
X461246Y142131D01*
X461267Y142142D01*
X461289Y142165D01*
X461345Y142210D01*
X496425Y177290D01*
X496467Y177348D01*
X496517Y177400D01*
X496539Y177447D01*
X496569Y177489D01*
X496590Y177558D01*
X496620Y177623D01*
X496626Y177675D01*
X496641Y177725D01*
X496639Y177796D01*
X496647Y177867D01*
X496636Y177918D01*
X496635Y177970D01*
X496610Y178038D01*
X496595Y178108D01*
X496568Y178153D01*
X496550Y178201D01*
X496506Y178257D01*
X496469Y178319D01*
X496429Y178353D01*
X496397Y178393D01*
X496336Y178432D01*
X496282Y178479D01*
X496234Y178498D01*
X496190Y178526D01*
X496120Y178544D01*
X496054Y178571D01*
X495982Y178579D01*
X495951Y178587D01*
X495928Y178585D01*
X495887Y178589D01*
X494626Y178589D01*
X491517Y181698D01*
X491517Y184935D01*
X491503Y185025D01*
X491495Y185116D01*
X491483Y185146D01*
X491478Y185178D01*
X491435Y185258D01*
X491399Y185342D01*
X491373Y185374D01*
X491362Y185395D01*
X491339Y185417D01*
X491294Y185473D01*
X442041Y234726D01*
X441967Y234779D01*
X441898Y234839D01*
X441868Y234851D01*
X441842Y234870D01*
X441755Y234897D01*
X441670Y234931D01*
X441629Y234935D01*
X441607Y234942D01*
X441574Y234941D01*
X441503Y234949D01*
X390002Y234949D01*
X328929Y296022D01*
X328929Y324754D01*
X353118Y348943D01*
X353171Y349017D01*
X353231Y349086D01*
X353243Y349116D01*
X353262Y349142D01*
X353289Y349229D01*
X353323Y349314D01*
X353327Y349355D01*
X353334Y349377D01*
X353333Y349410D01*
X353341Y349481D01*
X353341Y352718D01*
X356450Y355827D01*
X360703Y355827D01*
X360793Y355841D01*
X360884Y355849D01*
X360914Y355861D01*
X360946Y355866D01*
X361026Y355909D01*
X361110Y355945D01*
X361142Y355971D01*
X361163Y355982D01*
X361185Y356005D01*
X361241Y356050D01*
X388678Y383487D01*
X388731Y383561D01*
X388791Y383630D01*
X388803Y383660D01*
X388822Y383686D01*
X388849Y383773D01*
X388883Y383858D01*
X388887Y383899D01*
X388894Y383921D01*
X388893Y383954D01*
X388901Y384025D01*
X388901Y387262D01*
X392010Y390371D01*
X396406Y390371D01*
X399515Y387262D01*
X399515Y382866D01*
X399203Y382554D01*
X399161Y382496D01*
X399112Y382444D01*
X399090Y382397D01*
X399060Y382355D01*
X399038Y382286D01*
X399008Y382221D01*
X399003Y382169D01*
X398987Y382119D01*
X398989Y382048D01*
X398981Y381977D01*
X398992Y381926D01*
X398994Y381874D01*
X399018Y381806D01*
X399033Y381736D01*
X399060Y381691D01*
X399078Y381643D01*
X399123Y381587D01*
X399160Y381525D01*
X399199Y381491D01*
X399232Y381451D01*
X399292Y381412D01*
X399347Y381365D01*
X399395Y381346D01*
X399439Y381318D01*
X399508Y381300D01*
X399575Y381273D01*
X399646Y381265D01*
X399677Y381257D01*
X399700Y381259D01*
X399741Y381255D01*
X406705Y381255D01*
X406776Y381266D01*
X406848Y381268D01*
X406897Y381286D01*
X406948Y381294D01*
X407011Y381328D01*
X407079Y381353D01*
X407119Y381385D01*
X407165Y381410D01*
X407215Y381462D01*
X407271Y381506D01*
X407299Y381550D01*
X407335Y381588D01*
X407365Y381653D01*
X407404Y381713D01*
X407416Y381764D01*
X407438Y381811D01*
X407446Y381882D01*
X407464Y381952D01*
X407460Y382004D01*
X407465Y382055D01*
X407450Y382126D01*
X407445Y382197D01*
X407424Y382245D01*
X407413Y382296D01*
X407376Y382357D01*
X407348Y382423D01*
X407303Y382479D01*
X407287Y382507D01*
X407269Y382522D01*
X407243Y382554D01*
X396575Y393222D01*
X396501Y393275D01*
X396432Y393335D01*
X396402Y393347D01*
X396376Y393366D01*
X396289Y393393D01*
X396204Y393427D01*
X396163Y393431D01*
X396141Y393438D01*
X396108Y393437D01*
X396037Y393445D01*
X391617Y393445D01*
X391527Y393431D01*
X391436Y393423D01*
X391406Y393411D01*
X391374Y393406D01*
X391294Y393363D01*
X391210Y393327D01*
X391178Y393301D01*
X391157Y393290D01*
X391135Y393267D01*
X391079Y393222D01*
X381986Y384129D01*
X381933Y384055D01*
X381873Y383986D01*
X381861Y383956D01*
X381842Y383930D01*
X381815Y383843D01*
X381781Y383758D01*
X381777Y383717D01*
X381770Y383695D01*
X381771Y383662D01*
X381763Y383591D01*
X381763Y381874D01*
X376062Y376173D01*
X367650Y376173D01*
X363273Y380550D01*
X363199Y380603D01*
X363130Y380663D01*
X363100Y380675D01*
X363074Y380694D01*
X362987Y380721D01*
X362902Y380755D01*
X362861Y380759D01*
X362839Y380766D01*
X362806Y380765D01*
X362735Y380773D01*
X359498Y380773D01*
X356389Y383882D01*
X356389Y388278D01*
X359498Y391387D01*
X363894Y391387D01*
X366238Y389043D01*
X366254Y389032D01*
X366266Y389016D01*
X366354Y388960D01*
X366437Y388900D01*
X366456Y388894D01*
X366473Y388883D01*
X366574Y388858D01*
X366673Y388827D01*
X366692Y388828D01*
X366712Y388823D01*
X366815Y388831D01*
X366918Y388834D01*
X366937Y388840D01*
X366957Y388842D01*
X367052Y388882D01*
X367149Y388918D01*
X367165Y388931D01*
X367183Y388938D01*
X367314Y389043D01*
X369658Y391387D01*
X372895Y391387D01*
X372985Y391401D01*
X373076Y391409D01*
X373106Y391421D01*
X373138Y391426D01*
X373218Y391469D01*
X373302Y391505D01*
X373334Y391531D01*
X373355Y391542D01*
X373377Y391565D01*
X373433Y391610D01*
X397114Y415291D01*
X923686Y415291D01*
X932607Y406370D01*
X932681Y406317D01*
X932750Y406257D01*
X932780Y406245D01*
X932806Y406226D01*
X932893Y406199D01*
X932978Y406165D01*
X933019Y406161D01*
X933041Y406154D01*
X933074Y406155D01*
X933145Y406147D01*
X957834Y406147D01*
X957854Y406150D01*
X957873Y406148D01*
X957975Y406170D01*
X958077Y406186D01*
X958094Y406196D01*
X958114Y406200D01*
X958203Y406253D01*
X958294Y406302D01*
X958308Y406316D01*
X958325Y406326D01*
X958392Y406405D01*
X958464Y406480D01*
X958472Y406498D01*
X958485Y406513D01*
X958524Y406609D01*
X958567Y406703D01*
X958569Y406723D01*
X958577Y406741D01*
X958595Y406908D01*
X958595Y407032D01*
X959488Y407925D01*
X975992Y407925D01*
X976885Y407032D01*
X976885Y398148D01*
X975992Y397255D01*
X959488Y397255D01*
X958595Y398148D01*
X958595Y399796D01*
X958592Y399816D01*
X958594Y399835D01*
X958572Y399937D01*
X958556Y400039D01*
X958546Y400056D01*
X958542Y400076D01*
X958489Y400165D01*
X958440Y400256D01*
X958426Y400270D01*
X958416Y400287D01*
X958337Y400354D01*
X958262Y400426D01*
X958244Y400434D01*
X958229Y400447D01*
X958133Y400486D01*
X958039Y400529D01*
X958019Y400531D01*
X958001Y400539D01*
X957834Y400557D01*
X930514Y400557D01*
X921593Y409478D01*
X921519Y409531D01*
X921450Y409591D01*
X921420Y409603D01*
X921394Y409622D01*
X921307Y409649D01*
X921222Y409683D01*
X921181Y409687D01*
X921159Y409694D01*
X921126Y409693D01*
X921055Y409701D01*
X399745Y409701D01*
X399655Y409687D01*
X399564Y409679D01*
X399534Y409667D01*
X399502Y409662D01*
X399422Y409619D01*
X399338Y409583D01*
X399306Y409557D01*
X399285Y409546D01*
X399263Y409523D01*
X399207Y409478D01*
X390063Y400334D01*
X390021Y400276D01*
X389971Y400224D01*
X389949Y400177D01*
X389919Y400135D01*
X389898Y400066D01*
X389868Y400001D01*
X389862Y399949D01*
X389847Y399899D01*
X389849Y399828D01*
X389841Y399757D01*
X389852Y399706D01*
X389853Y399654D01*
X389878Y399586D01*
X389893Y399516D01*
X389920Y399471D01*
X389938Y399423D01*
X389982Y399367D01*
X390019Y399305D01*
X390059Y399271D01*
X390091Y399231D01*
X390152Y399192D01*
X390206Y399145D01*
X390254Y399126D01*
X390298Y399098D01*
X390368Y399080D01*
X390434Y399053D01*
X390506Y399045D01*
X390537Y399037D01*
X390560Y399039D01*
X390601Y399035D01*
X398668Y399035D01*
X412161Y385542D01*
X412235Y385489D01*
X412304Y385429D01*
X412334Y385417D01*
X412360Y385398D01*
X412447Y385371D01*
X412532Y385337D01*
X412573Y385333D01*
X412595Y385326D01*
X412628Y385327D01*
X412699Y385319D01*
X616767Y385319D01*
X616837Y385330D01*
X616909Y385332D01*
X616958Y385350D01*
X617009Y385358D01*
X617073Y385392D01*
X617140Y385417D01*
X617181Y385449D01*
X617227Y385474D01*
X617276Y385526D01*
X617332Y385570D01*
X617360Y385614D01*
X617396Y385652D01*
X617426Y385717D01*
X617465Y385777D01*
X617478Y385828D01*
X617500Y385875D01*
X617508Y385946D01*
X617525Y386016D01*
X617521Y386068D01*
X617527Y386119D01*
X617512Y386190D01*
X617506Y386261D01*
X617486Y386309D01*
X617475Y386360D01*
X617438Y386421D01*
X617410Y386487D01*
X617365Y386543D01*
X617348Y386571D01*
X617331Y386586D01*
X617305Y386618D01*
X616485Y387438D01*
X616485Y390316D01*
X616471Y390406D01*
X616463Y390497D01*
X616451Y390527D01*
X616446Y390559D01*
X616403Y390639D01*
X616367Y390723D01*
X616341Y390755D01*
X616330Y390776D01*
X616307Y390798D01*
X616262Y390854D01*
X610592Y396524D01*
X610518Y396577D01*
X610449Y396637D01*
X610419Y396649D01*
X610392Y396668D01*
X610305Y396695D01*
X610221Y396729D01*
X610180Y396733D01*
X610157Y396740D01*
X610125Y396739D01*
X610054Y396747D01*
X570937Y396747D01*
X570847Y396733D01*
X570756Y396725D01*
X570727Y396713D01*
X570695Y396708D01*
X570614Y396665D01*
X570530Y396629D01*
X570498Y396603D01*
X570477Y396592D01*
X570455Y396569D01*
X570399Y396524D01*
X567602Y393727D01*
X563206Y393727D01*
X560097Y396836D01*
X560097Y401232D01*
X563206Y404341D01*
X567602Y404341D01*
X568875Y403068D01*
X568949Y403015D01*
X569019Y402955D01*
X569049Y402943D01*
X569075Y402924D01*
X569162Y402897D01*
X569247Y402863D01*
X569288Y402859D01*
X569310Y402852D01*
X569342Y402853D01*
X569413Y402845D01*
X612895Y402845D01*
X614904Y400836D01*
X620574Y395166D01*
X620648Y395113D01*
X620717Y395053D01*
X620747Y395041D01*
X620774Y395022D01*
X620861Y394995D01*
X620945Y394961D01*
X620986Y394957D01*
X621009Y394950D01*
X621041Y394951D01*
X621112Y394943D01*
X623990Y394943D01*
X627099Y391834D01*
X627099Y387438D01*
X626279Y386618D01*
X626237Y386560D01*
X626188Y386508D01*
X626166Y386461D01*
X626136Y386419D01*
X626114Y386350D01*
X626084Y386285D01*
X626079Y386233D01*
X626063Y386183D01*
X626065Y386112D01*
X626057Y386041D01*
X626068Y385990D01*
X626070Y385938D01*
X626094Y385870D01*
X626109Y385800D01*
X626136Y385755D01*
X626154Y385707D01*
X626199Y385651D01*
X626236Y385589D01*
X626275Y385555D01*
X626308Y385515D01*
X626368Y385476D01*
X626423Y385429D01*
X626471Y385410D01*
X626515Y385382D01*
X626584Y385364D01*
X626651Y385337D01*
X626722Y385329D01*
X626753Y385321D01*
X626776Y385323D01*
X626817Y385319D01*
X836818Y385319D01*
X921259Y300878D01*
X921259Y293116D01*
X921262Y293096D01*
X921260Y293077D01*
X921282Y292975D01*
X921298Y292873D01*
X921308Y292856D01*
X921312Y292836D01*
X921365Y292747D01*
X921414Y292656D01*
X921428Y292642D01*
X921438Y292625D01*
X921517Y292558D01*
X921592Y292486D01*
X921610Y292478D01*
X921625Y292465D01*
X921721Y292426D01*
X921815Y292383D01*
X921835Y292381D01*
X921853Y292373D01*
X922020Y292355D01*
X926462Y292355D01*
X927355Y291462D01*
X927355Y282578D01*
X926462Y281685D01*
X909958Y281685D01*
X909065Y282578D01*
X909065Y291462D01*
X909958Y292355D01*
X914908Y292355D01*
X914928Y292358D01*
X914947Y292356D01*
X915049Y292378D01*
X915151Y292394D01*
X915168Y292404D01*
X915188Y292408D01*
X915277Y292461D01*
X915368Y292510D01*
X915382Y292524D01*
X915399Y292534D01*
X915466Y292613D01*
X915538Y292688D01*
X915546Y292706D01*
X915559Y292721D01*
X915598Y292817D01*
X915641Y292911D01*
X915643Y292931D01*
X915651Y292949D01*
X915669Y293116D01*
X915669Y298247D01*
X915655Y298337D01*
X915647Y298428D01*
X915635Y298458D01*
X915630Y298490D01*
X915587Y298570D01*
X915551Y298654D01*
X915525Y298686D01*
X915514Y298707D01*
X915491Y298729D01*
X915446Y298785D01*
X906782Y307449D01*
X906724Y307491D01*
X906672Y307541D01*
X906625Y307563D01*
X906583Y307593D01*
X906514Y307614D01*
X906449Y307644D01*
X906397Y307650D01*
X906347Y307665D01*
X906276Y307663D01*
X906205Y307671D01*
X906154Y307660D01*
X906102Y307659D01*
X906034Y307634D01*
X905964Y307619D01*
X905919Y307592D01*
X905871Y307574D01*
X905815Y307530D01*
X905753Y307493D01*
X905719Y307453D01*
X905679Y307421D01*
X905640Y307360D01*
X905593Y307306D01*
X905574Y307258D01*
X905546Y307214D01*
X905528Y307144D01*
X905501Y307078D01*
X905493Y307006D01*
X905485Y306975D01*
X905487Y306952D01*
X905483Y306911D01*
X905483Y303618D01*
X903194Y301329D01*
X903141Y301255D01*
X903081Y301185D01*
X903069Y301155D01*
X903050Y301129D01*
X903023Y301042D01*
X902989Y300957D01*
X902985Y300916D01*
X902978Y300894D01*
X902979Y300862D01*
X902971Y300791D01*
X902971Y295601D01*
X902985Y295511D01*
X902993Y295420D01*
X903005Y295391D01*
X903010Y295359D01*
X903053Y295278D01*
X903089Y295194D01*
X903115Y295162D01*
X903126Y295141D01*
X903149Y295119D01*
X903194Y295063D01*
X905483Y292774D01*
X905483Y288378D01*
X902374Y285269D01*
X897978Y285269D01*
X894869Y288378D01*
X894869Y292774D01*
X897158Y295063D01*
X897211Y295137D01*
X897271Y295207D01*
X897283Y295237D01*
X897302Y295263D01*
X897329Y295350D01*
X897363Y295435D01*
X897367Y295476D01*
X897374Y295498D01*
X897373Y295530D01*
X897381Y295601D01*
X897381Y300791D01*
X897367Y300881D01*
X897359Y300972D01*
X897347Y301001D01*
X897342Y301033D01*
X897299Y301114D01*
X897263Y301198D01*
X897237Y301230D01*
X897226Y301251D01*
X897203Y301273D01*
X897158Y301329D01*
X894869Y303618D01*
X894869Y308014D01*
X897978Y311123D01*
X901271Y311123D01*
X901342Y311134D01*
X901414Y311136D01*
X901463Y311154D01*
X901514Y311162D01*
X901577Y311196D01*
X901645Y311221D01*
X901685Y311253D01*
X901731Y311278D01*
X901781Y311329D01*
X901837Y311374D01*
X901865Y311418D01*
X901901Y311456D01*
X901931Y311521D01*
X901970Y311581D01*
X901982Y311632D01*
X902004Y311679D01*
X902012Y311750D01*
X902030Y311820D01*
X902026Y311872D01*
X902031Y311923D01*
X902016Y311994D01*
X902011Y312065D01*
X901990Y312113D01*
X901979Y312164D01*
X901942Y312225D01*
X901914Y312291D01*
X901869Y312347D01*
X901853Y312375D01*
X901835Y312390D01*
X901809Y312422D01*
X867158Y347073D01*
X867100Y347115D01*
X867048Y347165D01*
X867001Y347187D01*
X866959Y347217D01*
X866890Y347238D01*
X866825Y347268D01*
X866773Y347274D01*
X866723Y347289D01*
X866652Y347287D01*
X866581Y347295D01*
X866530Y347284D01*
X866478Y347283D01*
X866410Y347258D01*
X866340Y347243D01*
X866296Y347216D01*
X866247Y347198D01*
X866191Y347154D01*
X866129Y347117D01*
X866095Y347077D01*
X866055Y347045D01*
X866016Y346984D01*
X865969Y346930D01*
X865950Y346882D01*
X865922Y346838D01*
X865904Y346768D01*
X865877Y346702D01*
X865869Y346630D01*
X865861Y346599D01*
X865863Y346576D01*
X865859Y346535D01*
X865859Y345274D01*
X863515Y342930D01*
X863504Y342914D01*
X863488Y342902D01*
X863432Y342814D01*
X863372Y342731D01*
X863366Y342712D01*
X863355Y342695D01*
X863330Y342594D01*
X863299Y342495D01*
X863300Y342476D01*
X863295Y342456D01*
X863303Y342353D01*
X863306Y342250D01*
X863312Y342231D01*
X863314Y342211D01*
X863354Y342116D01*
X863390Y342019D01*
X863403Y342003D01*
X863410Y341985D01*
X863515Y341854D01*
X865859Y339510D01*
X865859Y335114D01*
X862750Y332005D01*
X858354Y332005D01*
X857081Y333278D01*
X857007Y333331D01*
X856937Y333391D01*
X856907Y333403D01*
X856881Y333422D01*
X856794Y333449D01*
X856709Y333483D01*
X856668Y333487D01*
X856646Y333494D01*
X856614Y333493D01*
X856543Y333501D01*
X628345Y333501D01*
X628255Y333487D01*
X628164Y333479D01*
X628134Y333467D01*
X628102Y333462D01*
X628022Y333419D01*
X627938Y333383D01*
X627906Y333357D01*
X627885Y333346D01*
X627863Y333323D01*
X627807Y333278D01*
X627551Y333023D01*
X627539Y333006D01*
X627524Y332994D01*
X627468Y332907D01*
X627407Y332823D01*
X627401Y332804D01*
X627391Y332787D01*
X627365Y332687D01*
X627335Y332588D01*
X627336Y332568D01*
X627331Y332549D01*
X627339Y332445D01*
X627341Y332342D01*
X627348Y332323D01*
X627350Y332303D01*
X627390Y332208D01*
X627426Y332111D01*
X627438Y332095D01*
X627446Y332077D01*
X627551Y331946D01*
X627767Y331730D01*
X627783Y331718D01*
X627796Y331703D01*
X627883Y331647D01*
X627967Y331586D01*
X627986Y331580D01*
X628003Y331570D01*
X628103Y331544D01*
X628202Y331514D01*
X628222Y331514D01*
X628241Y331510D01*
X628344Y331518D01*
X628448Y331520D01*
X628466Y331527D01*
X628486Y331529D01*
X628582Y331569D01*
X628679Y331605D01*
X628694Y331617D01*
X628713Y331625D01*
X628844Y331730D01*
X628989Y331875D01*
X670252Y331875D01*
X671145Y330982D01*
X671145Y325718D01*
X670315Y324888D01*
X670303Y324872D01*
X670287Y324860D01*
X670231Y324772D01*
X670171Y324689D01*
X670165Y324670D01*
X670154Y324653D01*
X670129Y324552D01*
X670099Y324453D01*
X670099Y324434D01*
X670094Y324414D01*
X670102Y324311D01*
X670105Y324208D01*
X670112Y324189D01*
X670114Y324169D01*
X670154Y324074D01*
X670190Y323977D01*
X670202Y323961D01*
X670210Y323943D01*
X670315Y323812D01*
X670699Y323427D01*
X670716Y323415D01*
X670728Y323400D01*
X670815Y323344D01*
X670899Y323283D01*
X670918Y323278D01*
X670935Y323267D01*
X671036Y323241D01*
X671134Y323211D01*
X671154Y323212D01*
X671174Y323207D01*
X671277Y323215D01*
X671380Y323217D01*
X671399Y323224D01*
X671419Y323226D01*
X671514Y323266D01*
X671611Y323302D01*
X671627Y323314D01*
X671645Y323322D01*
X671776Y323427D01*
X673442Y325093D01*
X676679Y325093D01*
X676769Y325107D01*
X676860Y325115D01*
X676890Y325127D01*
X676922Y325132D01*
X677002Y325175D01*
X677086Y325211D01*
X677118Y325237D01*
X677139Y325248D01*
X677161Y325271D01*
X677217Y325316D01*
X683880Y331979D01*
X834278Y331979D01*
X839979Y326278D01*
X839979Y253441D01*
X839993Y253351D01*
X840001Y253260D01*
X840013Y253230D01*
X840018Y253198D01*
X840061Y253117D01*
X840097Y253034D01*
X840123Y253001D01*
X840134Y252981D01*
X840157Y252959D01*
X840202Y252903D01*
X863519Y229586D01*
X865379Y227726D01*
X865379Y169926D01*
X865382Y169906D01*
X865380Y169887D01*
X865402Y169785D01*
X865418Y169683D01*
X865428Y169666D01*
X865432Y169646D01*
X865485Y169557D01*
X865534Y169466D01*
X865548Y169452D01*
X865558Y169435D01*
X865637Y169368D01*
X865712Y169296D01*
X865730Y169288D01*
X865745Y169275D01*
X865841Y169236D01*
X865935Y169193D01*
X865955Y169191D01*
X865973Y169183D01*
X866140Y169165D01*
X870582Y169165D01*
X871475Y168272D01*
X871475Y159388D01*
X870582Y158495D01*
X854078Y158495D01*
X853185Y159388D01*
X853185Y168272D01*
X854078Y169165D01*
X859028Y169165D01*
X859048Y169168D01*
X859067Y169166D01*
X859169Y169188D01*
X859271Y169204D01*
X859288Y169214D01*
X859308Y169218D01*
X859397Y169271D01*
X859488Y169320D01*
X859502Y169334D01*
X859519Y169344D01*
X859586Y169423D01*
X859658Y169498D01*
X859666Y169516D01*
X859679Y169531D01*
X859718Y169627D01*
X859761Y169721D01*
X859763Y169741D01*
X859771Y169759D01*
X859789Y169926D01*
X859789Y225095D01*
X859775Y225185D01*
X859767Y225276D01*
X859755Y225306D01*
X859750Y225338D01*
X859707Y225419D01*
X859671Y225502D01*
X859645Y225535D01*
X859634Y225555D01*
X859611Y225577D01*
X859566Y225633D01*
X836249Y248950D01*
X834389Y250810D01*
X834389Y317047D01*
X834378Y317116D01*
X834376Y317187D01*
X834358Y317237D01*
X834350Y317289D01*
X834317Y317352D01*
X834292Y317418D01*
X834259Y317460D01*
X834234Y317507D01*
X834183Y317555D01*
X834139Y317611D01*
X834095Y317640D01*
X834056Y317676D01*
X833992Y317706D01*
X833933Y317744D01*
X833881Y317757D01*
X833833Y317780D01*
X833763Y317788D01*
X833694Y317805D01*
X833641Y317801D01*
X833589Y317807D01*
X833519Y317792D01*
X833449Y317787D01*
X833400Y317766D01*
X833348Y317755D01*
X833288Y317718D01*
X833222Y317691D01*
X833183Y317656D01*
X833137Y317628D01*
X833091Y317575D01*
X833038Y317528D01*
X832998Y317466D01*
X832977Y317441D01*
X832969Y317420D01*
X832947Y317387D01*
X832920Y317299D01*
X832885Y317213D01*
X832881Y317174D01*
X832874Y317152D01*
X832875Y317120D01*
X832867Y317047D01*
X832867Y305674D01*
X683656Y156463D01*
X567294Y156463D01*
X484967Y238790D01*
X484893Y238843D01*
X484824Y238903D01*
X484794Y238915D01*
X484768Y238934D01*
X484681Y238961D01*
X484596Y238995D01*
X484555Y238999D01*
X484533Y239006D01*
X484500Y239005D01*
X484429Y239013D01*
X447497Y239013D01*
X447426Y239002D01*
X447354Y239000D01*
X447305Y238982D01*
X447254Y238974D01*
X447191Y238940D01*
X447123Y238915D01*
X447083Y238883D01*
X447037Y238858D01*
X446987Y238806D01*
X446931Y238762D01*
X446903Y238718D01*
X446867Y238680D01*
X446837Y238615D01*
X446798Y238555D01*
X446786Y238504D01*
X446764Y238457D01*
X446756Y238386D01*
X446738Y238316D01*
X446742Y238264D01*
X446737Y238213D01*
X446752Y238142D01*
X446757Y238071D01*
X446778Y238023D01*
X446789Y237972D01*
X446826Y237911D01*
X446854Y237845D01*
X446899Y237789D01*
X446915Y237761D01*
X446933Y237746D01*
X446959Y237714D01*
X495247Y189426D01*
X495321Y189373D01*
X495390Y189313D01*
X495420Y189301D01*
X495446Y189282D01*
X495533Y189255D01*
X495618Y189221D01*
X495659Y189217D01*
X495681Y189210D01*
X495714Y189211D01*
X495785Y189203D01*
X499022Y189203D01*
X501366Y186859D01*
X501382Y186848D01*
X501394Y186832D01*
X501482Y186776D01*
X501565Y186716D01*
X501584Y186710D01*
X501601Y186699D01*
X501702Y186674D01*
X501801Y186643D01*
X501820Y186644D01*
X501840Y186639D01*
X501943Y186647D01*
X502046Y186650D01*
X502065Y186656D01*
X502085Y186658D01*
X502180Y186698D01*
X502277Y186734D01*
X502293Y186747D01*
X502311Y186754D01*
X502442Y186859D01*
X504786Y189203D01*
X509182Y189203D01*
X512291Y186094D01*
X512291Y181698D01*
X509182Y178589D01*
X505945Y178589D01*
X505855Y178575D01*
X505764Y178567D01*
X505734Y178555D01*
X505702Y178550D01*
X505622Y178507D01*
X505538Y178471D01*
X505506Y178445D01*
X505485Y178434D01*
X505463Y178411D01*
X505407Y178366D01*
X463438Y136397D01*
X325994Y136397D01*
X325201Y137190D01*
X325127Y137243D01*
X325058Y137303D01*
X325028Y137315D01*
X325002Y137334D01*
X324915Y137361D01*
X324830Y137395D01*
X324789Y137399D01*
X324767Y137406D01*
X324734Y137405D01*
X324663Y137413D01*
X305761Y137413D01*
X305671Y137399D01*
X305580Y137391D01*
X305551Y137379D01*
X305519Y137374D01*
X305438Y137331D01*
X305354Y137295D01*
X305322Y137269D01*
X305301Y137258D01*
X305279Y137235D01*
X305223Y137190D01*
X302934Y134901D01*
X298538Y134901D01*
G37*
%LPD*%
G36*
X681115Y162067D02*
X681115Y162067D01*
X681206Y162075D01*
X681236Y162087D01*
X681268Y162092D01*
X681348Y162135D01*
X681432Y162171D01*
X681464Y162197D01*
X681485Y162208D01*
X681507Y162231D01*
X681563Y162276D01*
X827054Y307767D01*
X827107Y307841D01*
X827167Y307910D01*
X827179Y307940D01*
X827198Y307966D01*
X827225Y308053D01*
X827246Y308106D01*
X827249Y308113D01*
X827249Y308115D01*
X827259Y308138D01*
X827263Y308179D01*
X827270Y308201D01*
X827269Y308234D01*
X827277Y308305D01*
X827277Y317047D01*
X827263Y317137D01*
X827255Y317228D01*
X827243Y317257D01*
X827238Y317289D01*
X827195Y317370D01*
X827159Y317454D01*
X827133Y317486D01*
X827122Y317507D01*
X827099Y317529D01*
X827054Y317585D01*
X824765Y319874D01*
X824765Y324270D01*
X825585Y325090D01*
X825627Y325148D01*
X825676Y325200D01*
X825698Y325247D01*
X825728Y325289D01*
X825750Y325358D01*
X825780Y325423D01*
X825785Y325475D01*
X825801Y325525D01*
X825799Y325596D01*
X825807Y325667D01*
X825796Y325718D01*
X825794Y325770D01*
X825770Y325838D01*
X825755Y325908D01*
X825728Y325953D01*
X825710Y326001D01*
X825665Y326057D01*
X825628Y326119D01*
X825589Y326153D01*
X825556Y326193D01*
X825496Y326232D01*
X825441Y326279D01*
X825393Y326298D01*
X825349Y326326D01*
X825280Y326344D01*
X825213Y326371D01*
X825142Y326379D01*
X825111Y326387D01*
X825088Y326385D01*
X825047Y326389D01*
X686511Y326389D01*
X686421Y326375D01*
X686330Y326367D01*
X686300Y326355D01*
X686268Y326350D01*
X686188Y326307D01*
X686104Y326271D01*
X686072Y326245D01*
X686051Y326234D01*
X686029Y326211D01*
X685973Y326166D01*
X681170Y321363D01*
X681117Y321289D01*
X681057Y321220D01*
X681045Y321190D01*
X681026Y321164D01*
X680999Y321077D01*
X680965Y320992D01*
X680961Y320951D01*
X680954Y320929D01*
X680955Y320896D01*
X680947Y320825D01*
X680947Y317588D01*
X677838Y314479D01*
X673442Y314479D01*
X672444Y315477D01*
X672386Y315519D01*
X672334Y315568D01*
X672287Y315590D01*
X672245Y315620D01*
X672176Y315641D01*
X672111Y315672D01*
X672059Y315677D01*
X672010Y315693D01*
X671938Y315691D01*
X671867Y315699D01*
X671816Y315688D01*
X671764Y315686D01*
X671696Y315662D01*
X671626Y315646D01*
X671582Y315620D01*
X671533Y315602D01*
X671477Y315557D01*
X671415Y315520D01*
X671381Y315481D01*
X671341Y315448D01*
X671302Y315388D01*
X671255Y315333D01*
X671236Y315285D01*
X671208Y315241D01*
X671190Y315172D01*
X671163Y315105D01*
X671155Y315034D01*
X671148Y315003D01*
X671149Y314979D01*
X671145Y314939D01*
X671145Y309718D01*
X670315Y308888D01*
X670303Y308872D01*
X670287Y308860D01*
X670231Y308772D01*
X670171Y308689D01*
X670165Y308670D01*
X670154Y308653D01*
X670129Y308552D01*
X670099Y308453D01*
X670099Y308434D01*
X670094Y308414D01*
X670102Y308311D01*
X670105Y308208D01*
X670112Y308189D01*
X670114Y308169D01*
X670154Y308074D01*
X670190Y307977D01*
X670202Y307961D01*
X670210Y307943D01*
X670315Y307812D01*
X671145Y306982D01*
X671145Y301718D01*
X670315Y300888D01*
X670303Y300872D01*
X670287Y300860D01*
X670231Y300772D01*
X670171Y300689D01*
X670165Y300670D01*
X670154Y300653D01*
X670129Y300552D01*
X670099Y300453D01*
X670099Y300434D01*
X670094Y300414D01*
X670102Y300311D01*
X670105Y300208D01*
X670112Y300189D01*
X670114Y300169D01*
X670154Y300074D01*
X670190Y299977D01*
X670202Y299961D01*
X670210Y299943D01*
X670315Y299812D01*
X671145Y298982D01*
X671145Y293718D01*
X670315Y292888D01*
X670303Y292872D01*
X670287Y292860D01*
X670231Y292772D01*
X670171Y292689D01*
X670165Y292670D01*
X670154Y292653D01*
X670129Y292552D01*
X670099Y292453D01*
X670099Y292434D01*
X670094Y292414D01*
X670102Y292311D01*
X670105Y292208D01*
X670112Y292189D01*
X670114Y292169D01*
X670154Y292074D01*
X670190Y291977D01*
X670202Y291961D01*
X670210Y291943D01*
X670283Y291851D01*
X670289Y291841D01*
X670295Y291836D01*
X670315Y291812D01*
X671145Y290982D01*
X671145Y285718D01*
X670315Y284888D01*
X670303Y284872D01*
X670287Y284860D01*
X670231Y284772D01*
X670171Y284689D01*
X670165Y284670D01*
X670154Y284653D01*
X670129Y284552D01*
X670099Y284453D01*
X670099Y284434D01*
X670094Y284414D01*
X670102Y284311D01*
X670105Y284208D01*
X670112Y284189D01*
X670114Y284169D01*
X670154Y284074D01*
X670190Y283977D01*
X670202Y283961D01*
X670210Y283943D01*
X670315Y283812D01*
X671145Y282982D01*
X671145Y277718D01*
X670315Y276888D01*
X670303Y276872D01*
X670287Y276860D01*
X670242Y276789D01*
X670228Y276774D01*
X670219Y276755D01*
X670171Y276689D01*
X670165Y276670D01*
X670154Y276653D01*
X670134Y276573D01*
X670124Y276551D01*
X670122Y276527D01*
X670099Y276453D01*
X670099Y276434D01*
X670094Y276414D01*
X670100Y276337D01*
X670097Y276306D01*
X670103Y276277D01*
X670105Y276208D01*
X670112Y276189D01*
X670114Y276169D01*
X670141Y276105D01*
X670149Y276066D01*
X670169Y276033D01*
X670190Y275977D01*
X670202Y275961D01*
X670210Y275943D01*
X670262Y275878D01*
X670275Y275855D01*
X670290Y275842D01*
X670315Y275812D01*
X671145Y274982D01*
X671145Y269718D01*
X670315Y268888D01*
X670303Y268872D01*
X670287Y268860D01*
X670231Y268772D01*
X670171Y268689D01*
X670165Y268670D01*
X670154Y268653D01*
X670129Y268552D01*
X670099Y268453D01*
X670099Y268434D01*
X670094Y268414D01*
X670102Y268311D01*
X670105Y268208D01*
X670112Y268189D01*
X670114Y268169D01*
X670154Y268074D01*
X670190Y267977D01*
X670202Y267961D01*
X670210Y267943D01*
X670315Y267812D01*
X670585Y267541D01*
X670601Y267530D01*
X670614Y267514D01*
X670701Y267458D01*
X670785Y267398D01*
X670804Y267392D01*
X670821Y267381D01*
X670921Y267356D01*
X671020Y267325D01*
X671040Y267326D01*
X671059Y267321D01*
X671162Y267329D01*
X671266Y267332D01*
X671285Y267339D01*
X671304Y267340D01*
X671399Y267380D01*
X671497Y267416D01*
X671512Y267429D01*
X671531Y267436D01*
X671662Y267541D01*
X679480Y275360D01*
X681712Y277592D01*
X693986Y289866D01*
X694039Y289940D01*
X694099Y290009D01*
X694111Y290039D01*
X694130Y290066D01*
X694157Y290153D01*
X694191Y290237D01*
X694195Y290278D01*
X694202Y290301D01*
X694201Y290333D01*
X694209Y290404D01*
X694209Y293282D01*
X697318Y296391D01*
X701714Y296391D01*
X704823Y293282D01*
X704823Y288886D01*
X701714Y285777D01*
X698836Y285777D01*
X698746Y285763D01*
X698655Y285755D01*
X698625Y285743D01*
X698593Y285738D01*
X698513Y285695D01*
X698429Y285659D01*
X698397Y285633D01*
X698376Y285622D01*
X698354Y285599D01*
X698298Y285554D01*
X687602Y274858D01*
X687590Y274842D01*
X687575Y274830D01*
X687519Y274742D01*
X687458Y274659D01*
X687452Y274640D01*
X687442Y274623D01*
X687416Y274522D01*
X687386Y274423D01*
X687386Y274404D01*
X687382Y274384D01*
X687390Y274281D01*
X687392Y274178D01*
X687399Y274159D01*
X687401Y274139D01*
X687441Y274044D01*
X687477Y273947D01*
X687489Y273931D01*
X687497Y273913D01*
X687602Y273782D01*
X704394Y256990D01*
X704468Y256937D01*
X704537Y256877D01*
X704567Y256865D01*
X704594Y256846D01*
X704681Y256819D01*
X704765Y256785D01*
X704806Y256781D01*
X704829Y256774D01*
X704861Y256775D01*
X704932Y256767D01*
X707810Y256767D01*
X710919Y253658D01*
X710919Y249262D01*
X707810Y246153D01*
X703414Y246153D01*
X700305Y249262D01*
X700305Y252140D01*
X700291Y252230D01*
X700283Y252321D01*
X700271Y252351D01*
X700266Y252383D01*
X700223Y252463D01*
X700187Y252547D01*
X700161Y252579D01*
X700150Y252600D01*
X700127Y252622D01*
X700082Y252678D01*
X683290Y269470D01*
X683274Y269482D01*
X683262Y269497D01*
X683174Y269553D01*
X683091Y269614D01*
X683072Y269620D01*
X683055Y269630D01*
X682954Y269656D01*
X682855Y269686D01*
X682836Y269686D01*
X682816Y269690D01*
X682713Y269682D01*
X682610Y269680D01*
X682591Y269673D01*
X682571Y269671D01*
X682476Y269631D01*
X682379Y269595D01*
X682363Y269583D01*
X682345Y269575D01*
X682214Y269470D01*
X675864Y263120D01*
X673855Y261111D01*
X670853Y261111D01*
X670833Y261108D01*
X670813Y261110D01*
X670762Y261099D01*
X670711Y261098D01*
X670662Y261080D01*
X670610Y261072D01*
X670593Y261062D01*
X670573Y261058D01*
X670528Y261031D01*
X670480Y261013D01*
X670439Y260981D01*
X670393Y260956D01*
X670379Y260942D01*
X670362Y260932D01*
X670328Y260892D01*
X670287Y260860D01*
X670259Y260816D01*
X670223Y260778D01*
X670215Y260760D01*
X670202Y260745D01*
X670183Y260696D01*
X670154Y260653D01*
X670142Y260602D01*
X670120Y260555D01*
X670118Y260535D01*
X670110Y260517D01*
X670102Y260445D01*
X670094Y260414D01*
X670096Y260391D01*
X670092Y260350D01*
X670095Y260330D01*
X670093Y260311D01*
X670108Y260240D01*
X670114Y260169D01*
X670126Y260139D01*
X670131Y260107D01*
X670141Y260090D01*
X670145Y260070D01*
X670182Y260009D01*
X670210Y259943D01*
X670236Y259910D01*
X670247Y259890D01*
X670261Y259876D01*
X670271Y259859D01*
X670289Y259844D01*
X670315Y259812D01*
X671145Y258982D01*
X671145Y253718D01*
X671013Y253586D01*
X670943Y253490D01*
X670873Y253394D01*
X670872Y253390D01*
X670869Y253387D01*
X670834Y253273D01*
X670798Y253160D01*
X670798Y253155D01*
X670797Y253152D01*
X670800Y253033D01*
X670802Y252914D01*
X670803Y252910D01*
X670803Y252906D01*
X670844Y252795D01*
X670884Y252682D01*
X670886Y252679D01*
X670888Y252675D01*
X670962Y252582D01*
X671035Y252488D01*
X671039Y252485D01*
X671041Y252483D01*
X671053Y252475D01*
X671170Y252389D01*
X671180Y252383D01*
X671653Y251910D01*
X671988Y251331D01*
X672161Y250684D01*
X672161Y249349D01*
X649858Y249349D01*
X649839Y249346D01*
X649819Y249348D01*
X649718Y249326D01*
X649616Y249310D01*
X649614Y249309D01*
X649587Y249321D01*
X649567Y249323D01*
X649549Y249331D01*
X649382Y249349D01*
X627079Y249349D01*
X627079Y250684D01*
X627253Y251331D01*
X627587Y251910D01*
X628060Y252383D01*
X628070Y252389D01*
X628161Y252464D01*
X628255Y252538D01*
X628257Y252542D01*
X628260Y252545D01*
X628323Y252644D01*
X628388Y252745D01*
X628389Y252749D01*
X628391Y252753D01*
X628419Y252868D01*
X628448Y252984D01*
X628447Y252988D01*
X628448Y252992D01*
X628438Y253111D01*
X628429Y253229D01*
X628427Y253233D01*
X628427Y253237D01*
X628379Y253345D01*
X628332Y253455D01*
X628329Y253459D01*
X628328Y253462D01*
X628319Y253472D01*
X628227Y253586D01*
X628095Y253718D01*
X628095Y258982D01*
X628926Y259812D01*
X628937Y259828D01*
X628953Y259840D01*
X629009Y259928D01*
X629069Y260011D01*
X629075Y260030D01*
X629086Y260047D01*
X629111Y260148D01*
X629141Y260247D01*
X629141Y260266D01*
X629146Y260286D01*
X629138Y260389D01*
X629138Y260395D01*
X629138Y260399D01*
X629137Y260401D01*
X629135Y260492D01*
X629128Y260511D01*
X629127Y260531D01*
X629091Y260615D01*
X629086Y260639D01*
X629075Y260658D01*
X629051Y260723D01*
X629038Y260739D01*
X629030Y260757D01*
X628970Y260832D01*
X628960Y260850D01*
X628948Y260860D01*
X628926Y260888D01*
X628095Y261718D01*
X628095Y266982D01*
X628926Y267812D01*
X628937Y267828D01*
X628953Y267840D01*
X629009Y267928D01*
X629069Y268011D01*
X629075Y268030D01*
X629086Y268047D01*
X629111Y268148D01*
X629141Y268247D01*
X629141Y268266D01*
X629146Y268286D01*
X629138Y268389D01*
X629135Y268492D01*
X629128Y268511D01*
X629127Y268531D01*
X629086Y268626D01*
X629051Y268723D01*
X629038Y268739D01*
X629030Y268757D01*
X628926Y268888D01*
X628095Y269718D01*
X628095Y274982D01*
X628926Y275812D01*
X628937Y275828D01*
X628953Y275840D01*
X628981Y275885D01*
X629012Y275918D01*
X629032Y275960D01*
X629069Y276011D01*
X629075Y276031D01*
X629086Y276047D01*
X629101Y276108D01*
X629116Y276141D01*
X629120Y276178D01*
X629141Y276247D01*
X629141Y276266D01*
X629146Y276286D01*
X629140Y276358D01*
X629143Y276385D01*
X629137Y276413D01*
X629135Y276492D01*
X629128Y276511D01*
X629127Y276531D01*
X629096Y276604D01*
X629091Y276626D01*
X629079Y276645D01*
X629051Y276723D01*
X629038Y276739D01*
X629030Y276757D01*
X628926Y276888D01*
X628416Y277398D01*
X628341Y277452D01*
X628272Y277511D01*
X628242Y277523D01*
X628216Y277542D01*
X628129Y277569D01*
X628044Y277603D01*
X628003Y277607D01*
X627981Y277614D01*
X627949Y277613D01*
X627877Y277621D01*
X627833Y277621D01*
X627754Y277608D01*
X627735Y277608D01*
X627728Y277605D01*
X627652Y277599D01*
X627623Y277587D01*
X627591Y277582D01*
X627510Y277539D01*
X627426Y277503D01*
X627394Y277477D01*
X627373Y277466D01*
X627351Y277443D01*
X627295Y277398D01*
X626022Y276125D01*
X621626Y276125D01*
X618517Y279234D01*
X618517Y283630D01*
X621626Y286739D01*
X626022Y286739D01*
X626796Y285965D01*
X626854Y285923D01*
X626906Y285874D01*
X626953Y285852D01*
X626996Y285821D01*
X627064Y285800D01*
X627129Y285770D01*
X627181Y285764D01*
X627231Y285749D01*
X627302Y285751D01*
X627374Y285743D01*
X627424Y285754D01*
X627477Y285755D01*
X627544Y285780D01*
X627614Y285795D01*
X627659Y285822D01*
X627708Y285840D01*
X627764Y285885D01*
X627825Y285922D01*
X627859Y285961D01*
X627900Y285994D01*
X627938Y286054D01*
X627985Y286108D01*
X628004Y286157D01*
X628033Y286201D01*
X628050Y286270D01*
X628077Y286337D01*
X628085Y286408D01*
X628093Y286439D01*
X628091Y286462D01*
X628095Y286503D01*
X628095Y290982D01*
X628926Y291812D01*
X628937Y291828D01*
X628953Y291840D01*
X628983Y291887D01*
X628999Y291904D01*
X629011Y291931D01*
X629069Y292011D01*
X629075Y292030D01*
X629086Y292047D01*
X629111Y292148D01*
X629141Y292247D01*
X629141Y292266D01*
X629146Y292286D01*
X629138Y292389D01*
X629135Y292492D01*
X629128Y292511D01*
X629127Y292531D01*
X629086Y292626D01*
X629051Y292723D01*
X629038Y292739D01*
X629030Y292757D01*
X628926Y292888D01*
X628095Y293718D01*
X628095Y298982D01*
X628926Y299812D01*
X628937Y299828D01*
X628953Y299840D01*
X629009Y299928D01*
X629069Y300011D01*
X629075Y300030D01*
X629086Y300047D01*
X629111Y300148D01*
X629141Y300247D01*
X629141Y300266D01*
X629146Y300286D01*
X629138Y300389D01*
X629135Y300492D01*
X629128Y300511D01*
X629127Y300531D01*
X629086Y300626D01*
X629051Y300723D01*
X629038Y300739D01*
X629030Y300757D01*
X628926Y300888D01*
X628095Y301718D01*
X628095Y306982D01*
X628926Y307812D01*
X628937Y307828D01*
X628953Y307840D01*
X628984Y307889D01*
X628985Y307890D01*
X628986Y307892D01*
X629009Y307928D01*
X629069Y308011D01*
X629075Y308030D01*
X629086Y308047D01*
X629111Y308148D01*
X629141Y308247D01*
X629141Y308266D01*
X629146Y308286D01*
X629138Y308389D01*
X629135Y308492D01*
X629128Y308511D01*
X629127Y308531D01*
X629086Y308626D01*
X629051Y308723D01*
X629038Y308739D01*
X629030Y308757D01*
X628926Y308888D01*
X628095Y309718D01*
X628095Y314982D01*
X628926Y315812D01*
X628937Y315828D01*
X628953Y315840D01*
X629009Y315928D01*
X629069Y316011D01*
X629075Y316030D01*
X629086Y316047D01*
X629111Y316148D01*
X629141Y316247D01*
X629141Y316266D01*
X629146Y316286D01*
X629138Y316389D01*
X629135Y316492D01*
X629128Y316511D01*
X629127Y316531D01*
X629086Y316626D01*
X629051Y316723D01*
X629038Y316739D01*
X629030Y316757D01*
X628926Y316888D01*
X628095Y317718D01*
X628095Y322982D01*
X628926Y323812D01*
X628937Y323828D01*
X628953Y323840D01*
X629009Y323928D01*
X629069Y324011D01*
X629075Y324030D01*
X629086Y324047D01*
X629111Y324148D01*
X629141Y324247D01*
X629141Y324266D01*
X629146Y324286D01*
X629138Y324389D01*
X629135Y324492D01*
X629128Y324511D01*
X629127Y324531D01*
X629086Y324626D01*
X629051Y324723D01*
X629038Y324739D01*
X629030Y324757D01*
X628926Y324888D01*
X628010Y325804D01*
X627993Y325816D01*
X627981Y325831D01*
X627894Y325887D01*
X627810Y325948D01*
X627791Y325954D01*
X627774Y325964D01*
X627674Y325990D01*
X627575Y326020D01*
X627555Y326020D01*
X627536Y326024D01*
X627433Y326016D01*
X627329Y326014D01*
X627310Y326007D01*
X627290Y326005D01*
X627195Y325965D01*
X627098Y325929D01*
X627082Y325917D01*
X627064Y325909D01*
X626933Y325804D01*
X625006Y323877D01*
X620610Y323877D01*
X619790Y324697D01*
X619732Y324739D01*
X619680Y324788D01*
X619633Y324810D01*
X619591Y324840D01*
X619522Y324862D01*
X619457Y324892D01*
X619405Y324897D01*
X619355Y324913D01*
X619284Y324911D01*
X619213Y324919D01*
X619162Y324908D01*
X619110Y324906D01*
X619042Y324882D01*
X618972Y324867D01*
X618927Y324840D01*
X618879Y324822D01*
X618823Y324777D01*
X618761Y324740D01*
X618727Y324701D01*
X618687Y324668D01*
X618648Y324608D01*
X618601Y324553D01*
X618582Y324505D01*
X618554Y324461D01*
X618536Y324392D01*
X618509Y324325D01*
X618501Y324254D01*
X618493Y324223D01*
X618495Y324200D01*
X618491Y324159D01*
X618491Y322017D01*
X618494Y321999D01*
X618492Y321981D01*
X618507Y321913D01*
X618513Y321836D01*
X618525Y321807D01*
X618530Y321775D01*
X618541Y321755D01*
X618544Y321741D01*
X618576Y321687D01*
X618609Y321610D01*
X618635Y321578D01*
X618646Y321557D01*
X618665Y321539D01*
X618670Y321530D01*
X618680Y321522D01*
X618714Y321479D01*
X621003Y319190D01*
X621003Y314794D01*
X617894Y311685D01*
X613498Y311685D01*
X610389Y314794D01*
X610389Y319190D01*
X612678Y321479D01*
X612730Y321551D01*
X612770Y321593D01*
X612775Y321604D01*
X612791Y321623D01*
X612803Y321653D01*
X612822Y321679D01*
X612846Y321757D01*
X612873Y321816D01*
X612875Y321831D01*
X612883Y321851D01*
X612887Y321892D01*
X612894Y321914D01*
X612893Y321946D01*
X612901Y322017D01*
X612901Y333390D01*
X622666Y343155D01*
X851967Y343155D01*
X852057Y343169D01*
X852148Y343177D01*
X852178Y343189D01*
X852210Y343194D01*
X852290Y343237D01*
X852374Y343273D01*
X852406Y343299D01*
X852427Y343310D01*
X852449Y343333D01*
X852505Y343378D01*
X855022Y345895D01*
X855075Y345969D01*
X855135Y346038D01*
X855147Y346068D01*
X855166Y346094D01*
X855193Y346181D01*
X855227Y346266D01*
X855231Y346307D01*
X855238Y346329D01*
X855237Y346362D01*
X855245Y346433D01*
X855245Y349670D01*
X858354Y352779D01*
X859615Y352779D01*
X859686Y352790D01*
X859758Y352792D01*
X859807Y352810D01*
X859858Y352818D01*
X859921Y352852D01*
X859989Y352877D01*
X860029Y352909D01*
X860075Y352934D01*
X860125Y352986D01*
X860181Y353030D01*
X860209Y353074D01*
X860245Y353112D01*
X860275Y353177D01*
X860314Y353237D01*
X860326Y353288D01*
X860348Y353335D01*
X860356Y353406D01*
X860374Y353476D01*
X860370Y353528D01*
X860375Y353579D01*
X860360Y353650D01*
X860355Y353721D01*
X860334Y353769D01*
X860323Y353820D01*
X860286Y353881D01*
X860258Y353947D01*
X860213Y354003D01*
X860197Y354031D01*
X860179Y354046D01*
X860153Y354078D01*
X834725Y379506D01*
X834651Y379559D01*
X834582Y379619D01*
X834552Y379631D01*
X834526Y379650D01*
X834439Y379677D01*
X834354Y379711D01*
X834313Y379715D01*
X834291Y379722D01*
X834258Y379721D01*
X834187Y379729D01*
X478231Y379729D01*
X478160Y379718D01*
X478088Y379716D01*
X478039Y379698D01*
X477988Y379690D01*
X477925Y379656D01*
X477857Y379631D01*
X477817Y379599D01*
X477771Y379574D01*
X477721Y379522D01*
X477665Y379478D01*
X477637Y379434D01*
X477601Y379396D01*
X477571Y379331D01*
X477532Y379271D01*
X477520Y379220D01*
X477498Y379173D01*
X477490Y379102D01*
X477472Y379032D01*
X477476Y378980D01*
X477471Y378929D01*
X477486Y378858D01*
X477491Y378787D01*
X477512Y378739D01*
X477523Y378688D01*
X477560Y378627D01*
X477588Y378561D01*
X477633Y378505D01*
X477649Y378477D01*
X477667Y378462D01*
X477693Y378430D01*
X494285Y361838D01*
X494285Y351140D01*
X493210Y350065D01*
X493157Y349991D01*
X493097Y349922D01*
X493085Y349892D01*
X493066Y349866D01*
X493039Y349779D01*
X493005Y349694D01*
X493001Y349653D01*
X492994Y349631D01*
X492995Y349598D01*
X492987Y349527D01*
X492987Y346290D01*
X489878Y343181D01*
X485482Y343181D01*
X482373Y346290D01*
X482373Y350686D01*
X485482Y353795D01*
X487934Y353795D01*
X487954Y353798D01*
X487973Y353796D01*
X488075Y353818D01*
X488177Y353834D01*
X488194Y353844D01*
X488214Y353848D01*
X488303Y353901D01*
X488394Y353950D01*
X488408Y353964D01*
X488425Y353974D01*
X488492Y354053D01*
X488564Y354128D01*
X488572Y354146D01*
X488585Y354161D01*
X488624Y354257D01*
X488667Y354351D01*
X488669Y354371D01*
X488677Y354389D01*
X488695Y354556D01*
X488695Y359207D01*
X488681Y359297D01*
X488673Y359388D01*
X488661Y359418D01*
X488656Y359450D01*
X488613Y359530D01*
X488577Y359614D01*
X488551Y359646D01*
X488540Y359667D01*
X488517Y359689D01*
X488472Y359745D01*
X472775Y375442D01*
X472701Y375495D01*
X472632Y375555D01*
X472602Y375567D01*
X472576Y375586D01*
X472489Y375613D01*
X472404Y375647D01*
X472363Y375651D01*
X472341Y375658D01*
X472308Y375657D01*
X472237Y375665D01*
X402308Y375665D01*
X402288Y375662D01*
X402269Y375664D01*
X402167Y375642D01*
X402065Y375626D01*
X402048Y375616D01*
X402028Y375612D01*
X401939Y375559D01*
X401848Y375510D01*
X401834Y375496D01*
X401817Y375486D01*
X401750Y375407D01*
X401678Y375332D01*
X401670Y375314D01*
X401657Y375299D01*
X401618Y375203D01*
X401575Y375109D01*
X401573Y375089D01*
X401565Y375071D01*
X401547Y374904D01*
X401547Y373722D01*
X399203Y371378D01*
X399192Y371362D01*
X399176Y371350D01*
X399120Y371262D01*
X399060Y371179D01*
X399054Y371160D01*
X399043Y371143D01*
X399018Y371042D01*
X398987Y370943D01*
X398988Y370924D01*
X398983Y370904D01*
X398991Y370801D01*
X398994Y370698D01*
X399000Y370679D01*
X399002Y370659D01*
X399042Y370564D01*
X399078Y370467D01*
X399091Y370451D01*
X399098Y370433D01*
X399203Y370302D01*
X399457Y370048D01*
X399531Y369995D01*
X399601Y369935D01*
X399631Y369923D01*
X399657Y369904D01*
X399744Y369877D01*
X399829Y369843D01*
X399870Y369839D01*
X399892Y369832D01*
X399924Y369833D01*
X399995Y369825D01*
X446079Y369825D01*
X446169Y369839D01*
X446260Y369847D01*
X446289Y369859D01*
X446321Y369864D01*
X446402Y369907D01*
X446486Y369943D01*
X446518Y369969D01*
X446539Y369980D01*
X446561Y370003D01*
X446617Y370048D01*
X448652Y372083D01*
X453048Y372083D01*
X456157Y368974D01*
X456157Y364578D01*
X453048Y361469D01*
X448652Y361469D01*
X446617Y363504D01*
X446543Y363557D01*
X446473Y363617D01*
X446443Y363629D01*
X446417Y363648D01*
X446330Y363675D01*
X446245Y363709D01*
X446204Y363713D01*
X446182Y363720D01*
X446150Y363719D01*
X446079Y363727D01*
X402027Y363727D01*
X401937Y363713D01*
X401846Y363705D01*
X401817Y363693D01*
X401785Y363688D01*
X401704Y363645D01*
X401620Y363609D01*
X401588Y363583D01*
X401567Y363572D01*
X401545Y363549D01*
X401489Y363504D01*
X399512Y361527D01*
X399459Y361453D01*
X399399Y361383D01*
X399387Y361353D01*
X399368Y361327D01*
X399341Y361240D01*
X399307Y361155D01*
X399303Y361114D01*
X399296Y361092D01*
X399297Y361060D01*
X399289Y360989D01*
X399289Y356307D01*
X399303Y356217D01*
X399311Y356126D01*
X399323Y356097D01*
X399328Y356065D01*
X399371Y355984D01*
X399407Y355900D01*
X399433Y355868D01*
X399444Y355847D01*
X399467Y355825D01*
X399512Y355769D01*
X401547Y353734D01*
X401547Y352473D01*
X401558Y352402D01*
X401560Y352330D01*
X401578Y352281D01*
X401586Y352230D01*
X401620Y352167D01*
X401645Y352099D01*
X401677Y352059D01*
X401702Y352013D01*
X401754Y351963D01*
X401798Y351907D01*
X401842Y351879D01*
X401880Y351843D01*
X401945Y351813D01*
X402005Y351774D01*
X402056Y351762D01*
X402103Y351740D01*
X402174Y351732D01*
X402244Y351714D01*
X402296Y351718D01*
X402347Y351713D01*
X402418Y351728D01*
X402489Y351733D01*
X402537Y351754D01*
X402588Y351765D01*
X402649Y351802D01*
X402715Y351830D01*
X402771Y351875D01*
X402799Y351891D01*
X402814Y351909D01*
X402846Y351935D01*
X410830Y359919D01*
X472468Y359919D01*
X472488Y359922D01*
X472507Y359920D01*
X472609Y359942D01*
X472711Y359958D01*
X472728Y359968D01*
X472748Y359972D01*
X472837Y360025D01*
X472928Y360074D01*
X472942Y360088D01*
X472959Y360098D01*
X473026Y360177D01*
X473098Y360252D01*
X473106Y360270D01*
X473119Y360285D01*
X473158Y360381D01*
X473201Y360475D01*
X473203Y360495D01*
X473211Y360513D01*
X473229Y360680D01*
X473229Y361862D01*
X476338Y364971D01*
X480734Y364971D01*
X483843Y361862D01*
X483843Y357466D01*
X480734Y354357D01*
X477497Y354357D01*
X477407Y354343D01*
X477316Y354335D01*
X477301Y354329D01*
X413461Y354329D01*
X413371Y354315D01*
X413280Y354307D01*
X413250Y354295D01*
X413218Y354290D01*
X413138Y354247D01*
X413054Y354211D01*
X413022Y354185D01*
X413001Y354174D01*
X412979Y354151D01*
X412923Y354106D01*
X397906Y339089D01*
X365709Y339089D01*
X365619Y339075D01*
X365528Y339067D01*
X365498Y339055D01*
X365466Y339050D01*
X365386Y339007D01*
X365302Y338971D01*
X365270Y338945D01*
X365249Y338934D01*
X365227Y338911D01*
X365171Y338866D01*
X357066Y330761D01*
X357013Y330687D01*
X356953Y330618D01*
X356941Y330588D01*
X356922Y330562D01*
X356895Y330475D01*
X356861Y330390D01*
X356857Y330349D01*
X356850Y330327D01*
X356851Y330294D01*
X356843Y330223D01*
X356843Y326986D01*
X353734Y323877D01*
X349338Y323877D01*
X346229Y326986D01*
X346229Y331382D01*
X349338Y334491D01*
X352575Y334491D01*
X352665Y334505D01*
X352756Y334513D01*
X352786Y334525D01*
X352818Y334530D01*
X352898Y334573D01*
X352982Y334609D01*
X353014Y334635D01*
X353035Y334646D01*
X353057Y334669D01*
X353113Y334714D01*
X363078Y344679D01*
X395275Y344679D01*
X395365Y344693D01*
X395456Y344700D01*
X395486Y344713D01*
X395518Y344718D01*
X395598Y344761D01*
X395682Y344797D01*
X395714Y344823D01*
X395735Y344834D01*
X395757Y344857D01*
X395813Y344901D01*
X395841Y344929D01*
X395883Y344988D01*
X395933Y345040D01*
X395954Y345087D01*
X395985Y345129D01*
X396006Y345198D01*
X396036Y345263D01*
X396042Y345315D01*
X396057Y345364D01*
X396055Y345436D01*
X396063Y345507D01*
X396052Y345558D01*
X396051Y345610D01*
X396026Y345677D01*
X396011Y345748D01*
X395984Y345792D01*
X395967Y345841D01*
X395922Y345897D01*
X395885Y345959D01*
X395845Y345993D01*
X395813Y346033D01*
X395753Y346072D01*
X395698Y346119D01*
X395650Y346138D01*
X395606Y346166D01*
X395537Y346184D01*
X395470Y346211D01*
X395399Y346219D01*
X395368Y346227D01*
X395344Y346225D01*
X395303Y346229D01*
X394042Y346229D01*
X390933Y349338D01*
X390933Y353734D01*
X392968Y355769D01*
X393015Y355834D01*
X393029Y355849D01*
X393032Y355856D01*
X393081Y355913D01*
X393093Y355943D01*
X393112Y355969D01*
X393139Y356056D01*
X393173Y356141D01*
X393177Y356182D01*
X393184Y356204D01*
X393183Y356236D01*
X393191Y356307D01*
X393191Y360989D01*
X393177Y361079D01*
X393169Y361170D01*
X393157Y361199D01*
X393152Y361231D01*
X393109Y361312D01*
X393073Y361396D01*
X393047Y361428D01*
X393036Y361449D01*
X393013Y361471D01*
X392968Y361527D01*
X390933Y363562D01*
X390933Y367958D01*
X393277Y370302D01*
X393288Y370318D01*
X393304Y370330D01*
X393360Y370418D01*
X393420Y370501D01*
X393426Y370520D01*
X393437Y370537D01*
X393462Y370638D01*
X393493Y370737D01*
X393492Y370756D01*
X393497Y370776D01*
X393489Y370879D01*
X393486Y370982D01*
X393480Y371001D01*
X393478Y371021D01*
X393438Y371116D01*
X393402Y371213D01*
X393389Y371229D01*
X393382Y371247D01*
X393277Y371378D01*
X390933Y373722D01*
X390933Y375999D01*
X390922Y376070D01*
X390920Y376142D01*
X390902Y376191D01*
X390894Y376242D01*
X390860Y376305D01*
X390835Y376373D01*
X390803Y376413D01*
X390778Y376459D01*
X390726Y376509D01*
X390682Y376565D01*
X390638Y376593D01*
X390600Y376629D01*
X390535Y376659D01*
X390475Y376698D01*
X390424Y376710D01*
X390377Y376732D01*
X390306Y376740D01*
X390236Y376758D01*
X390184Y376754D01*
X390133Y376759D01*
X390062Y376744D01*
X389991Y376739D01*
X389943Y376718D01*
X389892Y376707D01*
X389831Y376670D01*
X389765Y376642D01*
X389709Y376597D01*
X389681Y376581D01*
X389666Y376563D01*
X389634Y376537D01*
X364178Y351081D01*
X364125Y351007D01*
X364065Y350938D01*
X364053Y350908D01*
X364034Y350882D01*
X364007Y350795D01*
X363973Y350710D01*
X363969Y350669D01*
X363962Y350647D01*
X363963Y350614D01*
X363955Y350543D01*
X363955Y348322D01*
X360846Y345213D01*
X357609Y345213D01*
X357519Y345199D01*
X357428Y345191D01*
X357398Y345179D01*
X357366Y345174D01*
X357286Y345131D01*
X357202Y345095D01*
X357170Y345069D01*
X357149Y345058D01*
X357127Y345035D01*
X357071Y344990D01*
X334742Y322661D01*
X334689Y322587D01*
X334629Y322518D01*
X334617Y322488D01*
X334598Y322462D01*
X334571Y322375D01*
X334537Y322290D01*
X334533Y322249D01*
X334526Y322227D01*
X334527Y322194D01*
X334519Y322123D01*
X334519Y298653D01*
X334533Y298563D01*
X334541Y298472D01*
X334553Y298442D01*
X334558Y298410D01*
X334601Y298330D01*
X334637Y298246D01*
X334663Y298214D01*
X334674Y298193D01*
X334697Y298171D01*
X334742Y298115D01*
X385034Y247823D01*
X385092Y247781D01*
X385144Y247731D01*
X385191Y247709D01*
X385233Y247679D01*
X385302Y247658D01*
X385367Y247628D01*
X385419Y247622D01*
X385469Y247607D01*
X385540Y247609D01*
X385611Y247601D01*
X385662Y247612D01*
X385714Y247613D01*
X385782Y247638D01*
X385852Y247653D01*
X385897Y247680D01*
X385945Y247698D01*
X386001Y247742D01*
X386063Y247779D01*
X386097Y247819D01*
X386137Y247851D01*
X386176Y247912D01*
X386223Y247966D01*
X386242Y248014D01*
X386270Y248058D01*
X386288Y248128D01*
X386315Y248194D01*
X386323Y248266D01*
X386331Y248297D01*
X386329Y248320D01*
X386333Y248361D01*
X386333Y259135D01*
X386319Y259225D01*
X386311Y259316D01*
X386299Y259345D01*
X386294Y259377D01*
X386251Y259458D01*
X386215Y259542D01*
X386189Y259574D01*
X386178Y259595D01*
X386155Y259617D01*
X386110Y259673D01*
X383821Y261962D01*
X383821Y266358D01*
X386930Y269467D01*
X391326Y269467D01*
X394435Y266358D01*
X394435Y261962D01*
X392146Y259673D01*
X392093Y259599D01*
X392033Y259529D01*
X392021Y259499D01*
X392002Y259473D01*
X391975Y259386D01*
X391941Y259301D01*
X391937Y259260D01*
X391930Y259238D01*
X391931Y259206D01*
X391923Y259135D01*
X391923Y253945D01*
X391934Y253875D01*
X391936Y253803D01*
X391954Y253754D01*
X391962Y253703D01*
X391996Y253639D01*
X392021Y253572D01*
X392053Y253531D01*
X392078Y253485D01*
X392130Y253436D01*
X392174Y253380D01*
X392218Y253352D01*
X392256Y253316D01*
X392321Y253286D01*
X392381Y253247D01*
X392432Y253234D01*
X392479Y253212D01*
X392550Y253204D01*
X392620Y253187D01*
X392672Y253191D01*
X392723Y253185D01*
X392794Y253200D01*
X392865Y253206D01*
X392913Y253226D01*
X392964Y253237D01*
X393025Y253274D01*
X393091Y253302D01*
X393147Y253347D01*
X393175Y253364D01*
X393190Y253381D01*
X393222Y253407D01*
X394042Y254227D01*
X398438Y254227D01*
X400727Y251938D01*
X400801Y251885D01*
X400871Y251825D01*
X400901Y251813D01*
X400927Y251794D01*
X401014Y251767D01*
X401099Y251733D01*
X401140Y251729D01*
X401162Y251722D01*
X401194Y251723D01*
X401265Y251715D01*
X407467Y251715D01*
X407557Y251729D01*
X407648Y251737D01*
X407678Y251749D01*
X407710Y251754D01*
X407790Y251797D01*
X407874Y251833D01*
X407906Y251859D01*
X407927Y251870D01*
X407949Y251893D01*
X408005Y251938D01*
X461830Y305763D01*
X461883Y305837D01*
X461943Y305906D01*
X461955Y305936D01*
X461974Y305962D01*
X462001Y306049D01*
X462035Y306134D01*
X462039Y306175D01*
X462046Y306197D01*
X462045Y306230D01*
X462053Y306301D01*
X462053Y309538D01*
X465162Y312647D01*
X469558Y312647D01*
X471847Y310358D01*
X471921Y310305D01*
X471991Y310245D01*
X472021Y310233D01*
X472047Y310214D01*
X472134Y310187D01*
X472219Y310153D01*
X472260Y310149D01*
X472282Y310142D01*
X472314Y310143D01*
X472385Y310135D01*
X490362Y310135D01*
X492222Y308275D01*
X559306Y241191D01*
X559364Y241149D01*
X559416Y241099D01*
X559463Y241077D01*
X559505Y241047D01*
X559574Y241026D01*
X559639Y240996D01*
X559691Y240990D01*
X559741Y240975D01*
X559812Y240977D01*
X559883Y240969D01*
X559934Y240980D01*
X559986Y240981D01*
X560054Y241006D01*
X560124Y241021D01*
X560169Y241048D01*
X560217Y241066D01*
X560273Y241110D01*
X560335Y241147D01*
X560369Y241187D01*
X560409Y241219D01*
X560448Y241280D01*
X560495Y241334D01*
X560514Y241382D01*
X560542Y241426D01*
X560560Y241496D01*
X560587Y241562D01*
X560595Y241634D01*
X560603Y241665D01*
X560601Y241688D01*
X560605Y241729D01*
X560605Y241831D01*
X560591Y241921D01*
X560583Y242012D01*
X560571Y242042D01*
X560566Y242074D01*
X560523Y242154D01*
X560487Y242238D01*
X560461Y242270D01*
X560450Y242291D01*
X560427Y242313D01*
X560382Y242369D01*
X513333Y289418D01*
X513333Y294187D01*
X513319Y294277D01*
X513311Y294368D01*
X513299Y294397D01*
X513294Y294429D01*
X513251Y294510D01*
X513215Y294594D01*
X513189Y294626D01*
X513178Y294647D01*
X513155Y294669D01*
X513110Y294725D01*
X510821Y297014D01*
X510821Y301410D01*
X513930Y304519D01*
X518326Y304519D01*
X521435Y301410D01*
X521435Y297014D01*
X519146Y294725D01*
X519093Y294651D01*
X519033Y294581D01*
X519021Y294551D01*
X519002Y294525D01*
X518975Y294438D01*
X518941Y294353D01*
X518937Y294312D01*
X518930Y294290D01*
X518931Y294258D01*
X518923Y294187D01*
X518923Y292049D01*
X518937Y291959D01*
X518945Y291868D01*
X518957Y291838D01*
X518962Y291806D01*
X519005Y291726D01*
X519041Y291642D01*
X519067Y291610D01*
X519078Y291589D01*
X519101Y291567D01*
X519146Y291511D01*
X564335Y246322D01*
X564409Y246269D01*
X564478Y246209D01*
X564508Y246197D01*
X564534Y246178D01*
X564621Y246151D01*
X564706Y246117D01*
X564747Y246113D01*
X564769Y246106D01*
X564802Y246107D01*
X564873Y246099D01*
X568110Y246099D01*
X571219Y242990D01*
X571219Y238594D01*
X568110Y235485D01*
X566849Y235485D01*
X566778Y235474D01*
X566706Y235472D01*
X566657Y235454D01*
X566606Y235446D01*
X566543Y235412D01*
X566475Y235387D01*
X566435Y235355D01*
X566389Y235330D01*
X566339Y235278D01*
X566283Y235234D01*
X566255Y235190D01*
X566219Y235152D01*
X566189Y235087D01*
X566150Y235027D01*
X566138Y234976D01*
X566116Y234929D01*
X566108Y234858D01*
X566090Y234788D01*
X566094Y234736D01*
X566089Y234685D01*
X566104Y234614D01*
X566109Y234543D01*
X566130Y234495D01*
X566141Y234444D01*
X566178Y234383D01*
X566206Y234317D01*
X566251Y234261D01*
X566267Y234233D01*
X566285Y234218D01*
X566311Y234186D01*
X596311Y204186D01*
X596385Y204133D01*
X596454Y204073D01*
X596484Y204061D01*
X596510Y204042D01*
X596597Y204015D01*
X596682Y203981D01*
X596723Y203977D01*
X596745Y203970D01*
X596778Y203971D01*
X596849Y203963D01*
X628013Y203963D01*
X628083Y203974D01*
X628154Y203976D01*
X628204Y203994D01*
X628256Y204002D01*
X628318Y204035D01*
X628385Y204060D01*
X628427Y204093D01*
X628473Y204118D01*
X628522Y204169D01*
X628577Y204213D01*
X628606Y204257D01*
X628643Y204296D01*
X628673Y204360D01*
X628711Y204419D01*
X628724Y204471D01*
X628746Y204519D01*
X628754Y204589D01*
X628772Y204658D01*
X628768Y204711D01*
X628773Y204763D01*
X628758Y204833D01*
X628753Y204903D01*
X628733Y204952D01*
X628721Y205004D01*
X628685Y205064D01*
X628658Y205130D01*
X628622Y205169D01*
X628595Y205215D01*
X628541Y205261D01*
X628495Y205314D01*
X628433Y205354D01*
X628408Y205375D01*
X628387Y205383D01*
X628354Y205405D01*
X628266Y205432D01*
X628180Y205467D01*
X628140Y205471D01*
X628119Y205478D01*
X628086Y205477D01*
X628013Y205485D01*
X623682Y205485D01*
X505033Y324134D01*
X504959Y324187D01*
X504890Y324247D01*
X504860Y324259D01*
X504834Y324278D01*
X504747Y324305D01*
X504662Y324339D01*
X504621Y324343D01*
X504599Y324350D01*
X504566Y324349D01*
X504495Y324357D01*
X459435Y324357D01*
X459345Y324343D01*
X459254Y324335D01*
X459224Y324323D01*
X459192Y324318D01*
X459112Y324275D01*
X459028Y324239D01*
X458996Y324213D01*
X458975Y324202D01*
X458953Y324179D01*
X458897Y324134D01*
X448706Y313943D01*
X438516Y313943D01*
X430021Y322438D01*
X430021Y325429D01*
X430007Y325519D01*
X429999Y325610D01*
X429987Y325639D01*
X429982Y325671D01*
X429939Y325752D01*
X429903Y325836D01*
X429877Y325868D01*
X429866Y325889D01*
X429843Y325911D01*
X429798Y325967D01*
X427509Y328256D01*
X427509Y332652D01*
X430618Y335761D01*
X435014Y335761D01*
X438123Y332652D01*
X438123Y328256D01*
X435834Y325967D01*
X435781Y325893D01*
X435721Y325823D01*
X435709Y325793D01*
X435690Y325767D01*
X435663Y325680D01*
X435629Y325595D01*
X435625Y325554D01*
X435618Y325532D01*
X435619Y325500D01*
X435611Y325429D01*
X435611Y325069D01*
X435616Y325036D01*
X435615Y325026D01*
X435626Y324977D01*
X435633Y324888D01*
X435645Y324858D01*
X435650Y324826D01*
X435664Y324801D01*
X435667Y324786D01*
X435698Y324735D01*
X435729Y324662D01*
X435755Y324629D01*
X435766Y324609D01*
X435783Y324592D01*
X435793Y324575D01*
X435809Y324561D01*
X435834Y324531D01*
X437386Y322979D01*
X437444Y322937D01*
X437496Y322887D01*
X437543Y322865D01*
X437585Y322835D01*
X437654Y322814D01*
X437719Y322784D01*
X437771Y322778D01*
X437821Y322763D01*
X437892Y322765D01*
X437963Y322757D01*
X438014Y322768D01*
X438066Y322769D01*
X438134Y322794D01*
X438204Y322809D01*
X438249Y322836D01*
X438297Y322854D01*
X438353Y322898D01*
X438415Y322935D01*
X438449Y322975D01*
X438489Y323007D01*
X438528Y323068D01*
X438575Y323122D01*
X438594Y323170D01*
X438622Y323214D01*
X438640Y323284D01*
X438667Y323350D01*
X438675Y323422D01*
X438683Y323453D01*
X438681Y323476D01*
X438685Y323517D01*
X438685Y326048D01*
X441794Y329157D01*
X445031Y329157D01*
X445121Y329171D01*
X445212Y329179D01*
X445242Y329191D01*
X445274Y329196D01*
X445354Y329239D01*
X445438Y329275D01*
X445470Y329301D01*
X445491Y329312D01*
X445513Y329335D01*
X445569Y329380D01*
X450200Y334011D01*
X509920Y334011D01*
X614345Y229586D01*
X614419Y229533D01*
X614488Y229473D01*
X614518Y229461D01*
X614544Y229442D01*
X614631Y229415D01*
X614716Y229381D01*
X614757Y229377D01*
X614779Y229370D01*
X614812Y229371D01*
X614883Y229363D01*
X622012Y229363D01*
X622083Y229374D01*
X622155Y229376D01*
X622204Y229394D01*
X622255Y229402D01*
X622319Y229436D01*
X622386Y229461D01*
X622427Y229493D01*
X622473Y229518D01*
X622522Y229570D01*
X622578Y229614D01*
X622606Y229658D01*
X622642Y229696D01*
X622672Y229761D01*
X622711Y229821D01*
X622724Y229872D01*
X622746Y229919D01*
X622753Y229990D01*
X622771Y230060D01*
X622767Y230112D01*
X622773Y230163D01*
X622757Y230234D01*
X622752Y230305D01*
X622732Y230353D01*
X622720Y230404D01*
X622684Y230465D01*
X622656Y230531D01*
X622611Y230587D01*
X622594Y230615D01*
X622576Y230630D01*
X622551Y230662D01*
X621484Y231729D01*
X569213Y284000D01*
X569213Y284535D01*
X569199Y284625D01*
X569191Y284716D01*
X569179Y284745D01*
X569174Y284777D01*
X569131Y284858D01*
X569095Y284942D01*
X569069Y284974D01*
X569058Y284995D01*
X569035Y285017D01*
X568990Y285073D01*
X566701Y287362D01*
X566701Y291758D01*
X569810Y294867D01*
X574206Y294867D01*
X577315Y291758D01*
X577315Y287362D01*
X576074Y286121D01*
X576062Y286105D01*
X576046Y286092D01*
X575990Y286005D01*
X575930Y285921D01*
X575924Y285902D01*
X575913Y285885D01*
X575888Y285785D01*
X575858Y285686D01*
X575858Y285666D01*
X575853Y285647D01*
X575861Y285544D01*
X575864Y285440D01*
X575871Y285421D01*
X575872Y285401D01*
X575913Y285307D01*
X575948Y285209D01*
X575961Y285193D01*
X575969Y285175D01*
X576074Y285044D01*
X625436Y235682D01*
X625510Y235629D01*
X625579Y235569D01*
X625610Y235557D01*
X625636Y235538D01*
X625723Y235511D01*
X625808Y235477D01*
X625849Y235473D01*
X625871Y235466D01*
X625903Y235467D01*
X625974Y235459D01*
X628257Y235459D01*
X628347Y235473D01*
X628438Y235481D01*
X628468Y235493D01*
X628500Y235498D01*
X628580Y235541D01*
X628665Y235577D01*
X628697Y235603D01*
X628717Y235614D01*
X628739Y235637D01*
X628796Y235682D01*
X628926Y235812D01*
X628937Y235828D01*
X628953Y235840D01*
X629009Y235927D01*
X629069Y236012D01*
X629075Y236031D01*
X629086Y236047D01*
X629111Y236148D01*
X629141Y236247D01*
X629141Y236266D01*
X629146Y236286D01*
X629138Y236389D01*
X629135Y236493D01*
X629128Y236511D01*
X629127Y236531D01*
X629086Y236626D01*
X629051Y236724D01*
X629038Y236739D01*
X629030Y236757D01*
X628926Y236888D01*
X628095Y237718D01*
X628095Y242982D01*
X628227Y243114D01*
X628276Y243181D01*
X628279Y243184D01*
X628280Y243187D01*
X628296Y243209D01*
X628367Y243306D01*
X628369Y243310D01*
X628371Y243313D01*
X628406Y243427D01*
X628442Y243540D01*
X628442Y243545D01*
X628443Y243548D01*
X628440Y243667D01*
X628439Y243786D01*
X628437Y243790D01*
X628437Y243794D01*
X628397Y243904D01*
X628357Y244018D01*
X628354Y244021D01*
X628353Y244025D01*
X628278Y244118D01*
X628205Y244212D01*
X628201Y244215D01*
X628199Y244217D01*
X628187Y244225D01*
X628070Y244311D01*
X628060Y244317D01*
X627587Y244790D01*
X627253Y245369D01*
X627079Y246016D01*
X627079Y247351D01*
X649382Y247351D01*
X649402Y247354D01*
X649421Y247352D01*
X649523Y247374D01*
X649625Y247390D01*
X649626Y247391D01*
X649653Y247379D01*
X649673Y247377D01*
X649692Y247369D01*
X649858Y247351D01*
X672161Y247351D01*
X672161Y246016D01*
X671988Y245369D01*
X671653Y244790D01*
X671180Y244317D01*
X671170Y244311D01*
X671079Y244236D01*
X670985Y244162D01*
X670983Y244158D01*
X670980Y244155D01*
X670918Y244056D01*
X670852Y243955D01*
X670851Y243951D01*
X670849Y243947D01*
X670821Y243830D01*
X670792Y243716D01*
X670793Y243712D01*
X670792Y243708D01*
X670802Y243589D01*
X670812Y243471D01*
X670813Y243467D01*
X670814Y243463D01*
X670861Y243355D01*
X670908Y243245D01*
X670911Y243241D01*
X670912Y243238D01*
X670921Y243228D01*
X671013Y243114D01*
X671145Y242982D01*
X671145Y237718D01*
X670315Y236888D01*
X670303Y236872D01*
X670287Y236860D01*
X670231Y236772D01*
X670171Y236689D01*
X670165Y236670D01*
X670154Y236653D01*
X670129Y236552D01*
X670099Y236453D01*
X670099Y236434D01*
X670094Y236414D01*
X670102Y236311D01*
X670105Y236208D01*
X670112Y236189D01*
X670114Y236169D01*
X670154Y236074D01*
X670190Y235977D01*
X670202Y235961D01*
X670210Y235943D01*
X670315Y235812D01*
X671145Y234982D01*
X671145Y229718D01*
X670315Y228888D01*
X670303Y228872D01*
X670287Y228860D01*
X670231Y228772D01*
X670171Y228689D01*
X670165Y228670D01*
X670154Y228653D01*
X670129Y228552D01*
X670099Y228453D01*
X670099Y228434D01*
X670094Y228414D01*
X670102Y228311D01*
X670105Y228208D01*
X670112Y228189D01*
X670114Y228169D01*
X670154Y228074D01*
X670190Y227977D01*
X670202Y227961D01*
X670210Y227943D01*
X670315Y227812D01*
X671145Y226982D01*
X671145Y221718D01*
X670315Y220888D01*
X670303Y220872D01*
X670287Y220860D01*
X670231Y220772D01*
X670171Y220689D01*
X670165Y220670D01*
X670154Y220653D01*
X670129Y220552D01*
X670099Y220453D01*
X670099Y220434D01*
X670094Y220414D01*
X670102Y220311D01*
X670105Y220208D01*
X670112Y220189D01*
X670114Y220169D01*
X670154Y220074D01*
X670190Y219977D01*
X670202Y219961D01*
X670210Y219943D01*
X670315Y219812D01*
X671145Y218982D01*
X671145Y213718D01*
X670315Y212888D01*
X670303Y212872D01*
X670287Y212860D01*
X670231Y212772D01*
X670171Y212689D01*
X670165Y212670D01*
X670154Y212653D01*
X670129Y212552D01*
X670099Y212453D01*
X670099Y212434D01*
X670094Y212414D01*
X670102Y212311D01*
X670105Y212208D01*
X670112Y212189D01*
X670114Y212169D01*
X670154Y212074D01*
X670190Y211977D01*
X670202Y211961D01*
X670210Y211943D01*
X670315Y211812D01*
X671145Y210982D01*
X671145Y205718D01*
X670315Y204888D01*
X670303Y204872D01*
X670287Y204860D01*
X670231Y204772D01*
X670171Y204689D01*
X670165Y204670D01*
X670154Y204653D01*
X670129Y204552D01*
X670099Y204453D01*
X670099Y204434D01*
X670094Y204414D01*
X670102Y204311D01*
X670105Y204208D01*
X670112Y204189D01*
X670114Y204169D01*
X670154Y204074D01*
X670190Y203977D01*
X670202Y203961D01*
X670210Y203943D01*
X670315Y203812D01*
X671145Y202982D01*
X671145Y197718D01*
X671013Y197586D01*
X670944Y197491D01*
X670873Y197394D01*
X670872Y197390D01*
X670869Y197387D01*
X670834Y197273D01*
X670798Y197160D01*
X670798Y197155D01*
X670797Y197152D01*
X670800Y197033D01*
X670802Y196914D01*
X670803Y196910D01*
X670803Y196906D01*
X670844Y196795D01*
X670884Y196682D01*
X670886Y196679D01*
X670888Y196675D01*
X670962Y196582D01*
X671035Y196488D01*
X671039Y196485D01*
X671041Y196483D01*
X671053Y196475D01*
X671170Y196389D01*
X671180Y196383D01*
X671653Y195910D01*
X671988Y195331D01*
X672161Y194684D01*
X672161Y193349D01*
X649858Y193349D01*
X649839Y193346D01*
X649819Y193348D01*
X649718Y193326D01*
X649616Y193310D01*
X649614Y193309D01*
X649587Y193321D01*
X649567Y193323D01*
X649549Y193331D01*
X649382Y193349D01*
X627079Y193349D01*
X627079Y194684D01*
X627253Y195331D01*
X627587Y195910D01*
X628060Y196383D01*
X628070Y196389D01*
X628161Y196464D01*
X628255Y196538D01*
X628257Y196542D01*
X628260Y196545D01*
X628323Y196644D01*
X628388Y196745D01*
X628389Y196749D01*
X628391Y196753D01*
X628419Y196868D01*
X628448Y196984D01*
X628447Y196988D01*
X628448Y196992D01*
X628438Y197111D01*
X628429Y197229D01*
X628427Y197233D01*
X628427Y197237D01*
X628379Y197345D01*
X628332Y197455D01*
X628329Y197459D01*
X628328Y197462D01*
X628319Y197472D01*
X628227Y197586D01*
X628075Y197738D01*
X628072Y197753D01*
X628056Y197855D01*
X628046Y197872D01*
X628042Y197892D01*
X627989Y197981D01*
X627941Y198072D01*
X627926Y198086D01*
X627916Y198103D01*
X627837Y198170D01*
X627762Y198242D01*
X627744Y198250D01*
X627729Y198263D01*
X627633Y198302D01*
X627539Y198345D01*
X627519Y198347D01*
X627501Y198355D01*
X627334Y198373D01*
X597865Y198373D01*
X597794Y198362D01*
X597722Y198360D01*
X597673Y198342D01*
X597622Y198334D01*
X597559Y198300D01*
X597491Y198275D01*
X597451Y198243D01*
X597405Y198218D01*
X597355Y198167D01*
X597299Y198122D01*
X597271Y198078D01*
X597235Y198040D01*
X597205Y197975D01*
X597166Y197915D01*
X597154Y197864D01*
X597132Y197817D01*
X597124Y197746D01*
X597106Y197676D01*
X597110Y197624D01*
X597105Y197573D01*
X597120Y197502D01*
X597125Y197431D01*
X597146Y197383D01*
X597157Y197332D01*
X597194Y197271D01*
X597222Y197205D01*
X597267Y197149D01*
X597283Y197121D01*
X597301Y197106D01*
X597327Y197074D01*
X608503Y185898D01*
X608577Y185845D01*
X608646Y185785D01*
X608676Y185773D01*
X608702Y185754D01*
X608789Y185727D01*
X608874Y185693D01*
X608915Y185689D01*
X608937Y185682D01*
X608970Y185683D01*
X609041Y185675D01*
X675695Y185675D01*
X675785Y185689D01*
X675876Y185697D01*
X675905Y185709D01*
X675937Y185714D01*
X676018Y185757D01*
X676102Y185793D01*
X676134Y185819D01*
X676155Y185830D01*
X676177Y185853D01*
X676233Y185898D01*
X678522Y188187D01*
X682918Y188187D01*
X686027Y185078D01*
X686027Y180682D01*
X682918Y177573D01*
X678522Y177573D01*
X676233Y179862D01*
X676159Y179915D01*
X676089Y179975D01*
X676059Y179987D01*
X676033Y180006D01*
X675946Y180033D01*
X675861Y180067D01*
X675820Y180071D01*
X675798Y180078D01*
X675766Y180077D01*
X675695Y180085D01*
X606410Y180085D01*
X604550Y181945D01*
X535513Y250982D01*
X535439Y251035D01*
X535370Y251095D01*
X535340Y251107D01*
X535314Y251126D01*
X535227Y251153D01*
X535142Y251187D01*
X535101Y251191D01*
X535079Y251198D01*
X535046Y251197D01*
X534975Y251205D01*
X473401Y251205D01*
X473311Y251191D01*
X473220Y251183D01*
X473191Y251171D01*
X473159Y251166D01*
X473078Y251123D01*
X472994Y251087D01*
X472962Y251061D01*
X472941Y251050D01*
X472919Y251027D01*
X472863Y250982D01*
X470574Y248693D01*
X466178Y248693D01*
X463069Y251802D01*
X463069Y256198D01*
X466178Y259307D01*
X470574Y259307D01*
X472863Y257018D01*
X472937Y256965D01*
X473007Y256905D01*
X473037Y256893D01*
X473063Y256874D01*
X473150Y256847D01*
X473235Y256813D01*
X473276Y256809D01*
X473298Y256802D01*
X473330Y256803D01*
X473401Y256795D01*
X490275Y256795D01*
X490345Y256806D01*
X490417Y256808D01*
X490466Y256826D01*
X490517Y256834D01*
X490581Y256868D01*
X490648Y256893D01*
X490689Y256925D01*
X490735Y256950D01*
X490784Y257002D01*
X490840Y257046D01*
X490868Y257090D01*
X490904Y257128D01*
X490934Y257193D01*
X490973Y257253D01*
X490986Y257304D01*
X491008Y257351D01*
X491016Y257422D01*
X491033Y257492D01*
X491029Y257544D01*
X491035Y257595D01*
X491020Y257666D01*
X491014Y257737D01*
X490994Y257785D01*
X490983Y257836D01*
X490946Y257897D01*
X490918Y257963D01*
X490873Y258019D01*
X490856Y258047D01*
X490839Y258062D01*
X490813Y258094D01*
X489993Y258914D01*
X489993Y263310D01*
X492282Y265599D01*
X492335Y265673D01*
X492395Y265743D01*
X492407Y265773D01*
X492426Y265799D01*
X492453Y265886D01*
X492487Y265971D01*
X492491Y266012D01*
X492498Y266034D01*
X492497Y266066D01*
X492505Y266137D01*
X492505Y277673D01*
X492491Y277763D01*
X492483Y277854D01*
X492471Y277884D01*
X492466Y277916D01*
X492423Y277996D01*
X492387Y278080D01*
X492361Y278112D01*
X492350Y278133D01*
X492327Y278155D01*
X492282Y278211D01*
X484177Y286316D01*
X484103Y286369D01*
X484034Y286429D01*
X484004Y286441D01*
X483978Y286460D01*
X483891Y286487D01*
X483806Y286521D01*
X483765Y286525D01*
X483743Y286532D01*
X483710Y286531D01*
X483639Y286539D01*
X480402Y286539D01*
X477293Y289648D01*
X477293Y294044D01*
X480402Y297153D01*
X484798Y297153D01*
X487907Y294044D01*
X487907Y290807D01*
X487910Y290788D01*
X487908Y290770D01*
X487923Y290701D01*
X487929Y290626D01*
X487941Y290596D01*
X487946Y290564D01*
X487957Y290545D01*
X487960Y290530D01*
X487993Y290474D01*
X488025Y290400D01*
X488051Y290367D01*
X488062Y290347D01*
X488080Y290330D01*
X488086Y290319D01*
X488097Y290309D01*
X488130Y290269D01*
X496235Y282164D01*
X498095Y280304D01*
X498095Y266137D01*
X498109Y266047D01*
X498117Y265956D01*
X498129Y265927D01*
X498134Y265895D01*
X498177Y265814D01*
X498213Y265730D01*
X498239Y265698D01*
X498250Y265677D01*
X498273Y265655D01*
X498318Y265599D01*
X500607Y263310D01*
X500607Y258914D01*
X499787Y258094D01*
X499745Y258036D01*
X499696Y257984D01*
X499674Y257937D01*
X499644Y257895D01*
X499622Y257826D01*
X499592Y257761D01*
X499587Y257709D01*
X499571Y257659D01*
X499573Y257588D01*
X499565Y257517D01*
X499576Y257466D01*
X499578Y257414D01*
X499602Y257346D01*
X499617Y257276D01*
X499644Y257231D01*
X499662Y257183D01*
X499707Y257127D01*
X499744Y257065D01*
X499783Y257031D01*
X499816Y256991D01*
X499876Y256952D01*
X499931Y256905D01*
X499979Y256886D01*
X500023Y256858D01*
X500092Y256840D01*
X500159Y256813D01*
X500230Y256805D01*
X500261Y256797D01*
X500284Y256799D01*
X500325Y256795D01*
X533959Y256795D01*
X534030Y256806D01*
X534102Y256808D01*
X534151Y256826D01*
X534202Y256834D01*
X534265Y256868D01*
X534333Y256893D01*
X534373Y256925D01*
X534419Y256950D01*
X534469Y257002D01*
X534525Y257046D01*
X534553Y257090D01*
X534589Y257128D01*
X534619Y257193D01*
X534658Y257253D01*
X534670Y257304D01*
X534692Y257351D01*
X534700Y257422D01*
X534718Y257492D01*
X534714Y257544D01*
X534719Y257595D01*
X534704Y257666D01*
X534699Y257737D01*
X534678Y257785D01*
X534667Y257836D01*
X534630Y257897D01*
X534602Y257963D01*
X534557Y258019D01*
X534541Y258047D01*
X534523Y258062D01*
X534497Y258094D01*
X488269Y304322D01*
X488195Y304375D01*
X488126Y304435D01*
X488096Y304447D01*
X488070Y304466D01*
X487983Y304493D01*
X487898Y304527D01*
X487857Y304531D01*
X487835Y304538D01*
X487802Y304537D01*
X487731Y304545D01*
X472385Y304545D01*
X472295Y304531D01*
X472204Y304523D01*
X472175Y304511D01*
X472143Y304506D01*
X472062Y304463D01*
X471978Y304427D01*
X471946Y304401D01*
X471925Y304390D01*
X471903Y304367D01*
X471847Y304322D01*
X469558Y302033D01*
X466321Y302033D01*
X466231Y302019D01*
X466140Y302011D01*
X466110Y301999D01*
X466078Y301994D01*
X465997Y301951D01*
X465914Y301915D01*
X465881Y301889D01*
X465861Y301878D01*
X465839Y301855D01*
X465783Y301810D01*
X411958Y247985D01*
X410098Y246125D01*
X401265Y246125D01*
X401174Y246110D01*
X401082Y246103D01*
X401045Y246089D01*
X401023Y246086D01*
X400994Y246070D01*
X400925Y246045D01*
X400868Y246003D01*
X400805Y245970D01*
X400769Y245932D01*
X400726Y245901D01*
X400685Y245843D01*
X400636Y245792D01*
X400614Y245744D01*
X400583Y245701D01*
X400562Y245633D01*
X400532Y245569D01*
X400526Y245516D01*
X400511Y245465D01*
X400513Y245395D01*
X400505Y245325D01*
X400516Y245273D01*
X400518Y245219D01*
X400542Y245153D01*
X400557Y245084D01*
X400585Y245039D01*
X400603Y244989D01*
X400647Y244934D01*
X400684Y244873D01*
X400724Y244839D01*
X400757Y244797D01*
X400817Y244759D01*
X400871Y244713D01*
X400920Y244693D01*
X400965Y244665D01*
X401033Y244648D01*
X401099Y244621D01*
X401172Y244613D01*
X401203Y244605D01*
X401226Y244607D01*
X401265Y244603D01*
X487060Y244603D01*
X569387Y162276D01*
X569461Y162223D01*
X569530Y162163D01*
X569560Y162151D01*
X569586Y162132D01*
X569673Y162105D01*
X569758Y162071D01*
X569799Y162067D01*
X569821Y162060D01*
X569854Y162061D01*
X569925Y162053D01*
X681025Y162053D01*
X681115Y162067D01*
G37*
%LPC*%
G36*
X73028Y247395D02*
X73028Y247395D01*
X72135Y248288D01*
X72135Y257172D01*
X73028Y258065D01*
X89532Y258065D01*
X90425Y257172D01*
X90425Y256286D01*
X90428Y256266D01*
X90426Y256247D01*
X90448Y256145D01*
X90464Y256043D01*
X90474Y256026D01*
X90478Y256006D01*
X90531Y255917D01*
X90580Y255826D01*
X90594Y255812D01*
X90604Y255795D01*
X90683Y255728D01*
X90758Y255656D01*
X90776Y255648D01*
X90791Y255635D01*
X90887Y255596D01*
X90981Y255553D01*
X91001Y255551D01*
X91019Y255543D01*
X91186Y255525D01*
X100127Y255525D01*
X100217Y255539D01*
X100308Y255547D01*
X100338Y255559D01*
X100370Y255564D01*
X100450Y255607D01*
X100534Y255643D01*
X100566Y255669D01*
X100587Y255680D01*
X100609Y255703D01*
X100665Y255748D01*
X119918Y275001D01*
X119971Y275075D01*
X120031Y275144D01*
X120043Y275174D01*
X120062Y275200D01*
X120089Y275287D01*
X120123Y275372D01*
X120127Y275413D01*
X120134Y275435D01*
X120133Y275467D01*
X120141Y275539D01*
X120141Y314086D01*
X198201Y392146D01*
X198243Y392204D01*
X198293Y392256D01*
X198315Y392303D01*
X198345Y392345D01*
X198366Y392414D01*
X198396Y392479D01*
X198402Y392531D01*
X198417Y392581D01*
X198415Y392652D01*
X198423Y392723D01*
X198412Y392774D01*
X198411Y392826D01*
X198386Y392894D01*
X198371Y392964D01*
X198344Y393008D01*
X198326Y393057D01*
X198282Y393113D01*
X198245Y393175D01*
X198205Y393209D01*
X198173Y393249D01*
X198112Y393288D01*
X198058Y393335D01*
X198010Y393354D01*
X197966Y393382D01*
X197896Y393400D01*
X197830Y393427D01*
X197758Y393435D01*
X197727Y393443D01*
X197704Y393441D01*
X197663Y393445D01*
X143713Y393445D01*
X143623Y393431D01*
X143532Y393423D01*
X143502Y393411D01*
X143470Y393406D01*
X143390Y393363D01*
X143306Y393327D01*
X143274Y393301D01*
X143253Y393290D01*
X143231Y393267D01*
X143175Y393222D01*
X124938Y374985D01*
X124885Y374911D01*
X124825Y374842D01*
X124813Y374812D01*
X124794Y374786D01*
X124767Y374699D01*
X124733Y374614D01*
X124729Y374573D01*
X124722Y374551D01*
X124723Y374518D01*
X124715Y374447D01*
X124715Y373875D01*
X124722Y373827D01*
X124721Y373779D01*
X124742Y373707D01*
X124754Y373632D01*
X124777Y373589D01*
X124791Y373543D01*
X124834Y373481D01*
X124870Y373414D01*
X124904Y373381D01*
X124932Y373342D01*
X124993Y373297D01*
X125048Y373245D01*
X125092Y373225D01*
X125130Y373196D01*
X125202Y373173D01*
X125271Y373141D01*
X125319Y373136D01*
X125364Y373122D01*
X125440Y373123D01*
X125515Y373114D01*
X125562Y373125D01*
X125610Y373125D01*
X125682Y373150D01*
X125756Y373167D01*
X125797Y373191D01*
X125842Y373207D01*
X125902Y373254D01*
X125967Y373293D01*
X125998Y373329D01*
X126036Y373359D01*
X126112Y373462D01*
X126127Y373480D01*
X126129Y373486D01*
X126135Y373494D01*
X126237Y373670D01*
X126710Y374143D01*
X127289Y374478D01*
X127936Y374651D01*
X134367Y374651D01*
X134367Y369062D01*
X134370Y369042D01*
X134368Y369023D01*
X134390Y368921D01*
X134407Y368819D01*
X134416Y368802D01*
X134420Y368782D01*
X134473Y368693D01*
X134522Y368602D01*
X134536Y368588D01*
X134546Y368571D01*
X134625Y368504D01*
X134700Y368433D01*
X134718Y368424D01*
X134733Y368411D01*
X134829Y368372D01*
X134923Y368329D01*
X134943Y368327D01*
X134961Y368319D01*
X135128Y368301D01*
X135891Y368301D01*
X135891Y368299D01*
X135128Y368299D01*
X135108Y368296D01*
X135089Y368298D01*
X134987Y368276D01*
X134885Y368259D01*
X134868Y368250D01*
X134848Y368246D01*
X134759Y368193D01*
X134668Y368144D01*
X134654Y368130D01*
X134637Y368120D01*
X134570Y368041D01*
X134499Y367966D01*
X134490Y367948D01*
X134477Y367933D01*
X134438Y367837D01*
X134395Y367743D01*
X134393Y367723D01*
X134385Y367705D01*
X134367Y367538D01*
X134367Y361949D01*
X127936Y361949D01*
X127289Y362122D01*
X126710Y362457D01*
X126237Y362930D01*
X125902Y363509D01*
X125729Y364156D01*
X125729Y366827D01*
X125718Y366898D01*
X125716Y366970D01*
X125698Y367019D01*
X125690Y367070D01*
X125656Y367133D01*
X125631Y367201D01*
X125599Y367241D01*
X125574Y367287D01*
X125522Y367337D01*
X125478Y367393D01*
X125434Y367421D01*
X125396Y367457D01*
X125331Y367487D01*
X125271Y367526D01*
X125220Y367538D01*
X125173Y367560D01*
X125102Y367568D01*
X125032Y367586D01*
X124980Y367582D01*
X124929Y367587D01*
X124858Y367572D01*
X124787Y367567D01*
X124739Y367546D01*
X124688Y367535D01*
X124627Y367498D01*
X124561Y367470D01*
X124505Y367425D01*
X124477Y367409D01*
X124462Y367391D01*
X124430Y367365D01*
X122855Y365790D01*
X103774Y346709D01*
X88646Y346709D01*
X88626Y346706D01*
X88607Y346708D01*
X88505Y346686D01*
X88403Y346670D01*
X88386Y346660D01*
X88366Y346656D01*
X88277Y346603D01*
X88186Y346554D01*
X88172Y346540D01*
X88155Y346530D01*
X88088Y346451D01*
X88016Y346376D01*
X88008Y346358D01*
X87995Y346343D01*
X87956Y346247D01*
X87913Y346153D01*
X87911Y346133D01*
X87903Y346115D01*
X87885Y345948D01*
X87885Y344808D01*
X86992Y343915D01*
X70488Y343915D01*
X69595Y344808D01*
X69595Y353692D01*
X70488Y354585D01*
X86992Y354585D01*
X87885Y353692D01*
X87885Y353060D01*
X87888Y353040D01*
X87886Y353021D01*
X87908Y352919D01*
X87924Y352817D01*
X87934Y352800D01*
X87938Y352780D01*
X87991Y352691D01*
X88040Y352600D01*
X88054Y352586D01*
X88064Y352569D01*
X88143Y352502D01*
X88218Y352430D01*
X88236Y352422D01*
X88251Y352409D01*
X88347Y352370D01*
X88441Y352327D01*
X88461Y352325D01*
X88479Y352317D01*
X88646Y352299D01*
X101143Y352299D01*
X101233Y352313D01*
X101324Y352321D01*
X101354Y352333D01*
X101386Y352338D01*
X101466Y352381D01*
X101550Y352417D01*
X101582Y352443D01*
X101603Y352454D01*
X101625Y352477D01*
X101681Y352522D01*
X108539Y359380D01*
X108581Y359438D01*
X108631Y359490D01*
X108653Y359537D01*
X108683Y359579D01*
X108704Y359648D01*
X108734Y359713D01*
X108740Y359765D01*
X108755Y359815D01*
X108753Y359886D01*
X108761Y359957D01*
X108750Y360008D01*
X108749Y360060D01*
X108724Y360128D01*
X108709Y360198D01*
X108682Y360243D01*
X108664Y360291D01*
X108620Y360347D01*
X108583Y360409D01*
X108543Y360443D01*
X108511Y360483D01*
X108450Y360522D01*
X108396Y360569D01*
X108348Y360588D01*
X108304Y360616D01*
X108234Y360634D01*
X108168Y360661D01*
X108096Y360669D01*
X108065Y360677D01*
X108042Y360675D01*
X108001Y360679D01*
X100275Y360679D01*
X100185Y360665D01*
X100094Y360657D01*
X100065Y360645D01*
X100033Y360640D01*
X99952Y360597D01*
X99868Y360561D01*
X99836Y360535D01*
X99815Y360524D01*
X99793Y360501D01*
X99737Y360456D01*
X97702Y358421D01*
X93306Y358421D01*
X90197Y361530D01*
X90197Y361720D01*
X90182Y361814D01*
X90173Y361909D01*
X90162Y361935D01*
X90158Y361963D01*
X90113Y362047D01*
X90075Y362134D01*
X90056Y362155D01*
X90042Y362180D01*
X89973Y362246D01*
X89909Y362316D01*
X89885Y362330D01*
X89864Y362349D01*
X89778Y362390D01*
X89694Y362436D01*
X89667Y362441D01*
X89641Y362453D01*
X89546Y362464D01*
X89453Y362481D01*
X89425Y362477D01*
X89397Y362480D01*
X89303Y362460D01*
X89209Y362447D01*
X89177Y362432D01*
X89156Y362428D01*
X89128Y362411D01*
X89055Y362379D01*
X88611Y362122D01*
X87964Y361949D01*
X81533Y361949D01*
X81533Y367538D01*
X81530Y367558D01*
X81532Y367577D01*
X81510Y367679D01*
X81493Y367781D01*
X81484Y367798D01*
X81480Y367818D01*
X81427Y367907D01*
X81378Y367998D01*
X81364Y368012D01*
X81354Y368029D01*
X81275Y368096D01*
X81200Y368167D01*
X81182Y368176D01*
X81167Y368189D01*
X81071Y368228D01*
X80977Y368271D01*
X80957Y368273D01*
X80939Y368281D01*
X80772Y368299D01*
X80009Y368299D01*
X80009Y368301D01*
X80772Y368301D01*
X80792Y368304D01*
X80811Y368302D01*
X80913Y368324D01*
X81015Y368341D01*
X81032Y368350D01*
X81052Y368354D01*
X81141Y368407D01*
X81232Y368456D01*
X81246Y368470D01*
X81263Y368480D01*
X81330Y368559D01*
X81401Y368634D01*
X81410Y368652D01*
X81423Y368667D01*
X81462Y368763D01*
X81505Y368857D01*
X81507Y368877D01*
X81515Y368895D01*
X81533Y369062D01*
X81533Y374651D01*
X87964Y374651D01*
X88611Y374478D01*
X89190Y374143D01*
X89663Y373670D01*
X90019Y373054D01*
X90049Y373017D01*
X90072Y372974D01*
X90127Y372922D01*
X90175Y372864D01*
X90215Y372838D01*
X90250Y372805D01*
X90319Y372773D01*
X90383Y372733D01*
X90429Y372722D01*
X90473Y372701D01*
X90548Y372693D01*
X90622Y372675D01*
X90670Y372680D01*
X90717Y372674D01*
X90792Y372690D01*
X90867Y372697D01*
X90911Y372716D01*
X90958Y372727D01*
X91023Y372766D01*
X91092Y372796D01*
X91128Y372828D01*
X91169Y372853D01*
X91218Y372910D01*
X91274Y372961D01*
X91298Y373003D01*
X91329Y373040D01*
X91357Y373110D01*
X91394Y373176D01*
X91403Y373223D01*
X91421Y373268D01*
X91435Y373396D01*
X91439Y373418D01*
X91438Y373425D01*
X91439Y373435D01*
X91439Y380293D01*
X91425Y380383D01*
X91417Y380474D01*
X91405Y380503D01*
X91400Y380535D01*
X91357Y380616D01*
X91321Y380700D01*
X91295Y380732D01*
X91284Y380753D01*
X91261Y380775D01*
X91216Y380831D01*
X89181Y382866D01*
X89181Y387262D01*
X92290Y390371D01*
X96686Y390371D01*
X99795Y387262D01*
X99795Y382866D01*
X97760Y380831D01*
X97707Y380757D01*
X97647Y380687D01*
X97635Y380657D01*
X97616Y380631D01*
X97589Y380544D01*
X97555Y380459D01*
X97551Y380418D01*
X97544Y380396D01*
X97545Y380364D01*
X97537Y380293D01*
X97537Y369515D01*
X97551Y369425D01*
X97559Y369334D01*
X97571Y369305D01*
X97576Y369273D01*
X97619Y369192D01*
X97655Y369108D01*
X97681Y369076D01*
X97692Y369055D01*
X97715Y369033D01*
X97760Y368977D01*
X99737Y367000D01*
X99811Y366947D01*
X99881Y366887D01*
X99911Y366875D01*
X99937Y366856D01*
X100024Y366829D01*
X100109Y366795D01*
X100150Y366791D01*
X100172Y366784D01*
X100204Y366785D01*
X100275Y366777D01*
X107896Y366777D01*
X107986Y366791D01*
X108077Y366799D01*
X108107Y366811D01*
X108139Y366816D01*
X108219Y366859D01*
X108303Y366895D01*
X108335Y366921D01*
X108356Y366932D01*
X108378Y366955D01*
X108434Y367000D01*
X109759Y368324D01*
X109770Y368340D01*
X109786Y368353D01*
X109842Y368440D01*
X109902Y368524D01*
X109908Y368543D01*
X109919Y368560D01*
X109944Y368660D01*
X109974Y368759D01*
X109974Y368779D01*
X109979Y368798D01*
X109971Y368901D01*
X109968Y369005D01*
X109961Y369024D01*
X109960Y369043D01*
X109919Y369138D01*
X109884Y369236D01*
X109871Y369251D01*
X109863Y369270D01*
X109759Y369401D01*
X109501Y369658D01*
X109501Y374054D01*
X112610Y377163D01*
X117006Y377163D01*
X117826Y376343D01*
X117884Y376301D01*
X117936Y376252D01*
X117983Y376230D01*
X118025Y376200D01*
X118094Y376178D01*
X118159Y376148D01*
X118211Y376143D01*
X118261Y376127D01*
X118332Y376129D01*
X118403Y376121D01*
X118454Y376132D01*
X118506Y376134D01*
X118574Y376158D01*
X118644Y376173D01*
X118689Y376200D01*
X118737Y376218D01*
X118793Y376263D01*
X118855Y376300D01*
X118889Y376339D01*
X118929Y376372D01*
X118968Y376432D01*
X119015Y376487D01*
X119034Y376535D01*
X119062Y376579D01*
X119080Y376648D01*
X119107Y376715D01*
X119115Y376786D01*
X119123Y376817D01*
X119121Y376840D01*
X119125Y376881D01*
X119125Y377078D01*
X141082Y399035D01*
X198679Y399035D01*
X198769Y399049D01*
X198860Y399057D01*
X198890Y399069D01*
X198922Y399074D01*
X199003Y399117D01*
X199086Y399153D01*
X199119Y399179D01*
X199139Y399190D01*
X199161Y399213D01*
X199217Y399258D01*
X204833Y404874D01*
X204875Y404932D01*
X204925Y404984D01*
X204947Y405031D01*
X204977Y405073D01*
X204998Y405142D01*
X205028Y405207D01*
X205034Y405259D01*
X205049Y405309D01*
X205047Y405380D01*
X205055Y405451D01*
X205044Y405502D01*
X205043Y405554D01*
X205018Y405622D01*
X205003Y405692D01*
X204976Y405736D01*
X204958Y405785D01*
X204914Y405841D01*
X204877Y405903D01*
X204837Y405937D01*
X204805Y405977D01*
X204744Y406016D01*
X204690Y406063D01*
X204642Y406082D01*
X204598Y406110D01*
X204528Y406128D01*
X204462Y406155D01*
X204390Y406163D01*
X204359Y406171D01*
X204336Y406169D01*
X204295Y406173D01*
X204193Y406173D01*
X204103Y406159D01*
X204012Y406151D01*
X203982Y406139D01*
X203950Y406134D01*
X203870Y406091D01*
X203786Y406055D01*
X203754Y406029D01*
X203733Y406018D01*
X203711Y405995D01*
X203655Y405950D01*
X201310Y403605D01*
X145796Y403605D01*
X145776Y403602D01*
X145757Y403604D01*
X145655Y403582D01*
X145553Y403566D01*
X145536Y403556D01*
X145516Y403552D01*
X145427Y403499D01*
X145336Y403450D01*
X145322Y403436D01*
X145305Y403426D01*
X145238Y403347D01*
X145166Y403272D01*
X145158Y403254D01*
X145145Y403239D01*
X145106Y403143D01*
X145063Y403049D01*
X145061Y403029D01*
X145053Y403011D01*
X145035Y402844D01*
X145035Y401958D01*
X144142Y401065D01*
X127638Y401065D01*
X126745Y401958D01*
X126745Y410842D01*
X127638Y411735D01*
X144142Y411735D01*
X145035Y410842D01*
X145035Y409956D01*
X145038Y409936D01*
X145036Y409917D01*
X145058Y409815D01*
X145074Y409713D01*
X145084Y409696D01*
X145088Y409676D01*
X145141Y409587D01*
X145190Y409496D01*
X145204Y409482D01*
X145214Y409465D01*
X145293Y409398D01*
X145368Y409326D01*
X145386Y409318D01*
X145401Y409305D01*
X145497Y409266D01*
X145591Y409223D01*
X145611Y409221D01*
X145629Y409213D01*
X145796Y409195D01*
X198679Y409195D01*
X198769Y409209D01*
X198860Y409217D01*
X198890Y409229D01*
X198922Y409234D01*
X199002Y409277D01*
X199086Y409313D01*
X199118Y409339D01*
X199139Y409350D01*
X199161Y409373D01*
X199217Y409418D01*
X199702Y409903D01*
X199755Y409977D01*
X199815Y410046D01*
X199827Y410076D01*
X199846Y410102D01*
X199873Y410189D01*
X199907Y410274D01*
X199911Y410315D01*
X199918Y410337D01*
X199917Y410370D01*
X199925Y410441D01*
X199925Y413678D01*
X203034Y416787D01*
X207430Y416787D01*
X210539Y413678D01*
X210539Y412417D01*
X210550Y412346D01*
X210552Y412274D01*
X210570Y412225D01*
X210578Y412174D01*
X210612Y412111D01*
X210637Y412043D01*
X210669Y412003D01*
X210694Y411957D01*
X210745Y411907D01*
X210790Y411851D01*
X210834Y411823D01*
X210872Y411787D01*
X210937Y411757D01*
X210997Y411718D01*
X211048Y411706D01*
X211095Y411684D01*
X211166Y411676D01*
X211236Y411658D01*
X211288Y411662D01*
X211339Y411657D01*
X211410Y411672D01*
X211481Y411677D01*
X211529Y411698D01*
X211580Y411709D01*
X211641Y411746D01*
X211707Y411774D01*
X211763Y411819D01*
X211791Y411835D01*
X211806Y411853D01*
X211838Y411879D01*
X212374Y412415D01*
X212427Y412489D01*
X212487Y412558D01*
X212499Y412588D01*
X212518Y412614D01*
X212545Y412701D01*
X212579Y412786D01*
X212583Y412827D01*
X212590Y412849D01*
X212589Y412882D01*
X212597Y412953D01*
X212597Y416702D01*
X232522Y436627D01*
X330255Y436627D01*
X330345Y436641D01*
X330436Y436649D01*
X330465Y436661D01*
X330497Y436666D01*
X330578Y436709D01*
X330662Y436745D01*
X330694Y436771D01*
X330715Y436782D01*
X330737Y436805D01*
X330793Y436850D01*
X333082Y439139D01*
X337478Y439139D01*
X340587Y436030D01*
X340587Y431634D01*
X337478Y428525D01*
X333082Y428525D01*
X330793Y430814D01*
X330719Y430867D01*
X330649Y430927D01*
X330619Y430939D01*
X330593Y430958D01*
X330506Y430985D01*
X330421Y431019D01*
X330380Y431023D01*
X330358Y431030D01*
X330326Y431029D01*
X330255Y431037D01*
X235153Y431037D01*
X235063Y431023D01*
X234972Y431015D01*
X234942Y431003D01*
X234910Y430998D01*
X234830Y430955D01*
X234746Y430919D01*
X234714Y430893D01*
X234693Y430882D01*
X234671Y430859D01*
X234615Y430814D01*
X222903Y419102D01*
X222861Y419044D01*
X222811Y418992D01*
X222789Y418945D01*
X222759Y418903D01*
X222738Y418834D01*
X222708Y418769D01*
X222702Y418717D01*
X222687Y418667D01*
X222689Y418596D01*
X222681Y418525D01*
X222692Y418474D01*
X222693Y418422D01*
X222718Y418354D01*
X222733Y418284D01*
X222760Y418239D01*
X222778Y418191D01*
X222822Y418135D01*
X222859Y418073D01*
X222899Y418039D01*
X222931Y417999D01*
X222992Y417960D01*
X223046Y417913D01*
X223094Y417894D01*
X223138Y417866D01*
X223208Y417848D01*
X223274Y417821D01*
X223346Y417813D01*
X223377Y417805D01*
X223400Y417807D01*
X223441Y417803D01*
X224702Y417803D01*
X227811Y414694D01*
X227811Y410298D01*
X224702Y407189D01*
X221465Y407189D01*
X221375Y407175D01*
X221284Y407167D01*
X221254Y407155D01*
X221222Y407150D01*
X221142Y407107D01*
X221058Y407071D01*
X221026Y407045D01*
X221005Y407034D01*
X220983Y407011D01*
X220927Y406966D01*
X131745Y317784D01*
X131703Y317726D01*
X131653Y317674D01*
X131631Y317627D01*
X131601Y317585D01*
X131580Y317516D01*
X131550Y317451D01*
X131544Y317399D01*
X131529Y317349D01*
X131531Y317278D01*
X131523Y317207D01*
X131534Y317156D01*
X131535Y317104D01*
X131560Y317036D01*
X131575Y316966D01*
X131602Y316922D01*
X131620Y316873D01*
X131664Y316817D01*
X131701Y316755D01*
X131741Y316721D01*
X131773Y316681D01*
X131834Y316642D01*
X131888Y316595D01*
X131936Y316576D01*
X131980Y316548D01*
X132050Y316530D01*
X132116Y316503D01*
X132188Y316495D01*
X132219Y316487D01*
X132242Y316489D01*
X132283Y316485D01*
X145412Y316485D01*
X146305Y315592D01*
X146305Y315468D01*
X146308Y315448D01*
X146306Y315429D01*
X146328Y315327D01*
X146344Y315225D01*
X146354Y315208D01*
X146358Y315188D01*
X146411Y315099D01*
X146460Y315008D01*
X146474Y314994D01*
X146484Y314977D01*
X146563Y314910D01*
X146638Y314838D01*
X146656Y314830D01*
X146671Y314817D01*
X146767Y314778D01*
X146861Y314735D01*
X146881Y314733D01*
X146899Y314725D01*
X147066Y314707D01*
X172263Y314707D01*
X172353Y314721D01*
X172444Y314729D01*
X172474Y314741D01*
X172506Y314746D01*
X172586Y314789D01*
X172670Y314825D01*
X172702Y314851D01*
X172723Y314862D01*
X172745Y314885D01*
X172801Y314930D01*
X198994Y341123D01*
X271831Y341123D01*
X271921Y341137D01*
X272012Y341145D01*
X272042Y341157D01*
X272074Y341162D01*
X272154Y341205D01*
X272238Y341241D01*
X272270Y341267D01*
X272291Y341278D01*
X272313Y341301D01*
X272369Y341346D01*
X348038Y417015D01*
X348091Y417089D01*
X348151Y417158D01*
X348163Y417188D01*
X348182Y417214D01*
X348209Y417301D01*
X348243Y417386D01*
X348247Y417427D01*
X348254Y417449D01*
X348253Y417482D01*
X348261Y417553D01*
X348261Y420790D01*
X351370Y423899D01*
X355766Y423899D01*
X358875Y420790D01*
X358875Y416394D01*
X355766Y413285D01*
X352529Y413285D01*
X352439Y413271D01*
X352348Y413263D01*
X352318Y413251D01*
X352286Y413246D01*
X352206Y413203D01*
X352122Y413167D01*
X352090Y413141D01*
X352069Y413130D01*
X352047Y413107D01*
X351991Y413062D01*
X274462Y335533D01*
X201625Y335533D01*
X201535Y335519D01*
X201444Y335511D01*
X201414Y335499D01*
X201382Y335494D01*
X201302Y335451D01*
X201218Y335415D01*
X201186Y335389D01*
X201165Y335378D01*
X201143Y335355D01*
X201087Y335310D01*
X174894Y309117D01*
X147066Y309117D01*
X147046Y309114D01*
X147027Y309116D01*
X146925Y309094D01*
X146823Y309078D01*
X146806Y309068D01*
X146786Y309064D01*
X146697Y309011D01*
X146606Y308962D01*
X146592Y308948D01*
X146575Y308938D01*
X146508Y308859D01*
X146436Y308784D01*
X146428Y308766D01*
X146415Y308751D01*
X146376Y308655D01*
X146333Y308561D01*
X146331Y308541D01*
X146323Y308523D01*
X146305Y308356D01*
X146305Y306708D01*
X145412Y305815D01*
X128908Y305815D01*
X128015Y306708D01*
X128015Y312217D01*
X128004Y312288D01*
X128002Y312360D01*
X127984Y312409D01*
X127976Y312460D01*
X127942Y312523D01*
X127917Y312591D01*
X127885Y312631D01*
X127860Y312677D01*
X127808Y312727D01*
X127764Y312783D01*
X127720Y312811D01*
X127682Y312847D01*
X127617Y312877D01*
X127557Y312916D01*
X127506Y312928D01*
X127459Y312950D01*
X127388Y312958D01*
X127318Y312976D01*
X127266Y312972D01*
X127215Y312977D01*
X127144Y312962D01*
X127073Y312957D01*
X127025Y312936D01*
X126974Y312925D01*
X126913Y312888D01*
X126847Y312860D01*
X126791Y312815D01*
X126763Y312799D01*
X126748Y312781D01*
X126716Y312755D01*
X125954Y311993D01*
X125901Y311919D01*
X125841Y311850D01*
X125829Y311820D01*
X125810Y311794D01*
X125783Y311706D01*
X125749Y311622D01*
X125745Y311581D01*
X125738Y311558D01*
X125739Y311526D01*
X125731Y311455D01*
X125731Y295965D01*
X125738Y295917D01*
X125737Y295869D01*
X125758Y295797D01*
X125770Y295722D01*
X125793Y295680D01*
X125807Y295633D01*
X125850Y295571D01*
X125886Y295504D01*
X125920Y295471D01*
X125948Y295432D01*
X126009Y295387D01*
X126064Y295335D01*
X126107Y295315D01*
X126146Y295286D01*
X126218Y295263D01*
X126287Y295231D01*
X126335Y295226D01*
X126380Y295212D01*
X126456Y295213D01*
X126531Y295204D01*
X126578Y295215D01*
X126626Y295215D01*
X126698Y295241D01*
X126772Y295257D01*
X126813Y295281D01*
X126858Y295297D01*
X126918Y295344D01*
X126983Y295383D01*
X127014Y295419D01*
X127052Y295449D01*
X127128Y295553D01*
X127143Y295570D01*
X127145Y295576D01*
X127151Y295584D01*
X127507Y296200D01*
X127980Y296673D01*
X128559Y297008D01*
X129206Y297181D01*
X135637Y297181D01*
X135637Y291592D01*
X135640Y291572D01*
X135638Y291553D01*
X135660Y291451D01*
X135677Y291349D01*
X135686Y291332D01*
X135690Y291312D01*
X135743Y291223D01*
X135792Y291132D01*
X135806Y291118D01*
X135816Y291101D01*
X135895Y291034D01*
X135970Y290963D01*
X135988Y290954D01*
X136003Y290941D01*
X136099Y290902D01*
X136193Y290859D01*
X136213Y290857D01*
X136231Y290849D01*
X136398Y290831D01*
X137161Y290831D01*
X137161Y290829D01*
X136398Y290829D01*
X136378Y290826D01*
X136359Y290828D01*
X136257Y290806D01*
X136155Y290789D01*
X136138Y290780D01*
X136118Y290776D01*
X136029Y290723D01*
X135938Y290674D01*
X135924Y290660D01*
X135907Y290650D01*
X135840Y290571D01*
X135769Y290496D01*
X135760Y290478D01*
X135747Y290463D01*
X135708Y290367D01*
X135665Y290273D01*
X135663Y290253D01*
X135655Y290235D01*
X135637Y290068D01*
X135637Y284479D01*
X129206Y284479D01*
X128559Y284652D01*
X127980Y284987D01*
X127507Y285460D01*
X127151Y286076D01*
X127121Y286113D01*
X127098Y286156D01*
X127044Y286208D01*
X126995Y286266D01*
X126955Y286292D01*
X126920Y286325D01*
X126851Y286357D01*
X126787Y286397D01*
X126741Y286408D01*
X126697Y286429D01*
X126622Y286437D01*
X126548Y286455D01*
X126500Y286450D01*
X126453Y286456D01*
X126378Y286440D01*
X126303Y286433D01*
X126259Y286414D01*
X126212Y286403D01*
X126147Y286364D01*
X126078Y286334D01*
X126042Y286302D01*
X126001Y286277D01*
X125952Y286220D01*
X125896Y286169D01*
X125872Y286127D01*
X125841Y286090D01*
X125813Y286020D01*
X125776Y285954D01*
X125767Y285907D01*
X125749Y285862D01*
X125735Y285734D01*
X125731Y285712D01*
X125732Y285705D01*
X125731Y285695D01*
X125731Y272908D01*
X102758Y249935D01*
X91186Y249935D01*
X91166Y249932D01*
X91147Y249934D01*
X91045Y249912D01*
X90943Y249896D01*
X90926Y249886D01*
X90906Y249882D01*
X90817Y249829D01*
X90726Y249780D01*
X90712Y249766D01*
X90695Y249756D01*
X90628Y249677D01*
X90556Y249602D01*
X90548Y249584D01*
X90535Y249569D01*
X90496Y249473D01*
X90453Y249379D01*
X90451Y249359D01*
X90443Y249341D01*
X90425Y249174D01*
X90425Y248288D01*
X89532Y247395D01*
X73028Y247395D01*
G37*
%LPD*%
%LPC*%
G36*
X14608Y121665D02*
X14608Y121665D01*
X13715Y122558D01*
X13715Y131442D01*
X14608Y132335D01*
X23927Y132335D01*
X24017Y132349D01*
X24108Y132357D01*
X24138Y132369D01*
X24170Y132374D01*
X24251Y132417D01*
X24334Y132453D01*
X24367Y132479D01*
X24387Y132490D01*
X24409Y132513D01*
X24465Y132558D01*
X40303Y148395D01*
X90280Y148395D01*
X90370Y148410D01*
X90461Y148417D01*
X90490Y148430D01*
X90522Y148435D01*
X90603Y148478D01*
X90687Y148514D01*
X90719Y148539D01*
X90740Y148550D01*
X90762Y148574D01*
X90818Y148618D01*
X247680Y305481D01*
X247733Y305555D01*
X247793Y305624D01*
X247805Y305654D01*
X247824Y305680D01*
X247851Y305767D01*
X247885Y305852D01*
X247889Y305893D01*
X247896Y305915D01*
X247895Y305948D01*
X247903Y306019D01*
X247903Y307141D01*
X247889Y307231D01*
X247881Y307322D01*
X247869Y307351D01*
X247864Y307383D01*
X247821Y307464D01*
X247785Y307548D01*
X247759Y307580D01*
X247748Y307601D01*
X247725Y307623D01*
X247680Y307679D01*
X245391Y309968D01*
X245391Y314364D01*
X248500Y317473D01*
X252896Y317473D01*
X256005Y314364D01*
X256005Y309968D01*
X253716Y307679D01*
X253663Y307605D01*
X253603Y307535D01*
X253591Y307505D01*
X253572Y307479D01*
X253545Y307392D01*
X253511Y307307D01*
X253507Y307266D01*
X253500Y307244D01*
X253501Y307212D01*
X253493Y307141D01*
X253493Y303388D01*
X251633Y301528D01*
X243223Y293118D01*
X243181Y293060D01*
X243131Y293008D01*
X243109Y292961D01*
X243079Y292919D01*
X243058Y292850D01*
X243028Y292785D01*
X243022Y292733D01*
X243007Y292683D01*
X243009Y292612D01*
X243001Y292541D01*
X243012Y292490D01*
X243013Y292438D01*
X243038Y292370D01*
X243053Y292300D01*
X243080Y292255D01*
X243098Y292207D01*
X243142Y292151D01*
X243179Y292089D01*
X243219Y292055D01*
X243251Y292015D01*
X243312Y291976D01*
X243366Y291929D01*
X243414Y291910D01*
X243458Y291882D01*
X243528Y291864D01*
X243594Y291837D01*
X243666Y291829D01*
X243697Y291821D01*
X243720Y291823D01*
X243761Y291819D01*
X244514Y291819D01*
X246295Y290038D01*
X246369Y289985D01*
X246439Y289925D01*
X246469Y289913D01*
X246495Y289894D01*
X246582Y289867D01*
X246667Y289833D01*
X246708Y289829D01*
X246730Y289822D01*
X246762Y289823D01*
X246833Y289815D01*
X319122Y289815D01*
X413133Y195804D01*
X413207Y195751D01*
X413276Y195691D01*
X413307Y195679D01*
X413333Y195660D01*
X413420Y195633D01*
X413505Y195599D01*
X413546Y195595D01*
X413568Y195588D01*
X413600Y195589D01*
X413671Y195581D01*
X445571Y195581D01*
X445661Y195595D01*
X445752Y195603D01*
X445781Y195615D01*
X445813Y195620D01*
X445894Y195663D01*
X445978Y195699D01*
X446010Y195725D01*
X446031Y195736D01*
X446053Y195759D01*
X446109Y195804D01*
X447890Y197585D01*
X452286Y197585D01*
X455395Y194476D01*
X455395Y190080D01*
X452286Y186971D01*
X447890Y186971D01*
X446109Y188752D01*
X446035Y188805D01*
X445965Y188865D01*
X445935Y188877D01*
X445909Y188896D01*
X445822Y188923D01*
X445737Y188957D01*
X445696Y188961D01*
X445674Y188968D01*
X445642Y188967D01*
X445571Y188975D01*
X410620Y188975D01*
X316609Y282986D01*
X316535Y283039D01*
X316466Y283099D01*
X316435Y283111D01*
X316409Y283130D01*
X316322Y283157D01*
X316237Y283191D01*
X316196Y283195D01*
X316174Y283202D01*
X316142Y283201D01*
X316071Y283209D01*
X246833Y283209D01*
X246743Y283195D01*
X246652Y283187D01*
X246623Y283175D01*
X246591Y283170D01*
X246510Y283127D01*
X246426Y283091D01*
X246394Y283065D01*
X246373Y283054D01*
X246362Y283043D01*
X246361Y283042D01*
X246349Y283029D01*
X246295Y282986D01*
X244514Y281205D01*
X240118Y281205D01*
X237009Y284314D01*
X237009Y285067D01*
X236998Y285138D01*
X236996Y285210D01*
X236978Y285259D01*
X236970Y285310D01*
X236936Y285373D01*
X236911Y285441D01*
X236879Y285481D01*
X236854Y285527D01*
X236802Y285577D01*
X236758Y285633D01*
X236714Y285661D01*
X236676Y285697D01*
X236611Y285727D01*
X236551Y285766D01*
X236500Y285778D01*
X236453Y285800D01*
X236382Y285808D01*
X236312Y285826D01*
X236260Y285822D01*
X236209Y285827D01*
X236138Y285812D01*
X236067Y285807D01*
X236019Y285786D01*
X235968Y285775D01*
X235907Y285738D01*
X235841Y285710D01*
X235785Y285665D01*
X235757Y285649D01*
X235742Y285631D01*
X235710Y285605D01*
X92910Y142806D01*
X42934Y142806D01*
X42843Y142791D01*
X42753Y142784D01*
X42723Y142771D01*
X42691Y142766D01*
X42610Y142723D01*
X42526Y142688D01*
X42494Y142662D01*
X42473Y142651D01*
X42451Y142628D01*
X42395Y142583D01*
X32168Y132355D01*
X32156Y132339D01*
X32140Y132327D01*
X32084Y132239D01*
X32024Y132156D01*
X32018Y132137D01*
X32007Y132120D01*
X31982Y132019D01*
X31952Y131920D01*
X31952Y131901D01*
X31947Y131881D01*
X31955Y131778D01*
X31958Y131675D01*
X31965Y131656D01*
X31966Y131636D01*
X32005Y131546D01*
X32005Y122558D01*
X31112Y121665D01*
X14608Y121665D01*
G37*
%LPD*%
%LPC*%
G36*
X567897Y18875D02*
X567897Y18875D01*
X566125Y20647D01*
X566125Y29492D01*
X566122Y29512D01*
X566124Y29531D01*
X566102Y29633D01*
X566086Y29735D01*
X566076Y29752D01*
X566072Y29772D01*
X566019Y29861D01*
X565970Y29952D01*
X565956Y29966D01*
X565946Y29983D01*
X565867Y30050D01*
X565792Y30122D01*
X565774Y30130D01*
X565759Y30143D01*
X565663Y30182D01*
X565569Y30225D01*
X565549Y30227D01*
X565531Y30235D01*
X565364Y30253D01*
X563412Y30253D01*
X563392Y30250D01*
X563373Y30252D01*
X563271Y30230D01*
X563169Y30214D01*
X563152Y30204D01*
X563132Y30200D01*
X563043Y30147D01*
X562952Y30098D01*
X562938Y30084D01*
X562921Y30074D01*
X562854Y29995D01*
X562782Y29920D01*
X562774Y29902D01*
X562761Y29887D01*
X562722Y29791D01*
X562679Y29697D01*
X562677Y29677D01*
X562669Y29659D01*
X562651Y29492D01*
X562651Y26923D01*
X556633Y26923D01*
X556633Y32941D01*
X559142Y32941D01*
X559647Y32805D01*
X559766Y32793D01*
X559883Y32780D01*
X559888Y32781D01*
X559892Y32781D01*
X560007Y32807D01*
X560124Y32833D01*
X560127Y32835D01*
X560131Y32836D01*
X560233Y32898D01*
X560335Y32959D01*
X560338Y32962D01*
X560341Y32964D01*
X560417Y33055D01*
X560495Y33146D01*
X560496Y33150D01*
X560499Y33153D01*
X560542Y33262D01*
X560587Y33374D01*
X560587Y33379D01*
X560589Y33382D01*
X560589Y33396D01*
X560605Y33541D01*
X560605Y36604D01*
X560602Y36624D01*
X560604Y36643D01*
X560582Y36745D01*
X560566Y36847D01*
X560556Y36864D01*
X560552Y36884D01*
X560499Y36973D01*
X560450Y37064D01*
X560436Y37078D01*
X560426Y37095D01*
X560347Y37162D01*
X560272Y37234D01*
X560254Y37242D01*
X560239Y37255D01*
X560143Y37294D01*
X560049Y37337D01*
X560029Y37339D01*
X560011Y37347D01*
X559844Y37365D01*
X557618Y37365D01*
X554509Y40474D01*
X554509Y43352D01*
X554495Y43442D01*
X554487Y43533D01*
X554475Y43563D01*
X554470Y43595D01*
X554427Y43675D01*
X554391Y43759D01*
X554365Y43791D01*
X554354Y43812D01*
X554331Y43834D01*
X554286Y43890D01*
X542774Y55402D01*
X542700Y55455D01*
X542631Y55515D01*
X542601Y55527D01*
X542574Y55546D01*
X542487Y55573D01*
X542403Y55607D01*
X542362Y55611D01*
X542339Y55618D01*
X542307Y55617D01*
X542236Y55625D01*
X510485Y55625D01*
X510395Y55611D01*
X510304Y55603D01*
X510275Y55591D01*
X510243Y55586D01*
X510162Y55543D01*
X510078Y55507D01*
X510046Y55481D01*
X510025Y55470D01*
X510003Y55447D01*
X509947Y55402D01*
X507912Y53367D01*
X503516Y53367D01*
X500407Y56476D01*
X500407Y59354D01*
X500393Y59444D01*
X500385Y59535D01*
X500373Y59565D01*
X500368Y59597D01*
X500325Y59677D01*
X500289Y59761D01*
X500263Y59793D01*
X500252Y59814D01*
X500229Y59836D01*
X500184Y59892D01*
X485878Y74198D01*
X485804Y74251D01*
X485735Y74311D01*
X485705Y74323D01*
X485678Y74342D01*
X485591Y74369D01*
X485507Y74403D01*
X485466Y74407D01*
X485443Y74414D01*
X485411Y74413D01*
X485340Y74421D01*
X364185Y74421D01*
X364114Y74410D01*
X364042Y74408D01*
X363993Y74390D01*
X363942Y74382D01*
X363879Y74348D01*
X363811Y74323D01*
X363771Y74291D01*
X363725Y74266D01*
X363675Y74214D01*
X363619Y74170D01*
X363591Y74126D01*
X363555Y74088D01*
X363525Y74023D01*
X363486Y73963D01*
X363474Y73912D01*
X363452Y73865D01*
X363444Y73794D01*
X363426Y73724D01*
X363430Y73672D01*
X363425Y73621D01*
X363440Y73550D01*
X363445Y73479D01*
X363466Y73431D01*
X363477Y73380D01*
X363514Y73319D01*
X363542Y73253D01*
X363587Y73197D01*
X363603Y73169D01*
X363621Y73154D01*
X363647Y73122D01*
X372311Y64458D01*
X372385Y64405D01*
X372454Y64345D01*
X372484Y64333D01*
X372510Y64314D01*
X372597Y64287D01*
X372682Y64253D01*
X372723Y64249D01*
X372745Y64242D01*
X372778Y64243D01*
X372849Y64235D01*
X376086Y64235D01*
X379195Y61126D01*
X379195Y56730D01*
X376086Y53621D01*
X371690Y53621D01*
X368581Y56730D01*
X368581Y59967D01*
X368567Y60057D01*
X368559Y60148D01*
X368547Y60178D01*
X368542Y60210D01*
X368499Y60290D01*
X368463Y60374D01*
X368437Y60406D01*
X368426Y60427D01*
X368403Y60449D01*
X368358Y60505D01*
X358729Y70134D01*
X358655Y70187D01*
X358586Y70247D01*
X358556Y70259D01*
X358530Y70278D01*
X358443Y70305D01*
X358358Y70339D01*
X358317Y70343D01*
X358295Y70350D01*
X358262Y70349D01*
X358191Y70357D01*
X330426Y70357D01*
X330406Y70354D01*
X330387Y70356D01*
X330285Y70334D01*
X330183Y70318D01*
X330166Y70308D01*
X330146Y70304D01*
X330057Y70251D01*
X329966Y70202D01*
X329952Y70188D01*
X329935Y70178D01*
X329868Y70099D01*
X329796Y70024D01*
X329788Y70006D01*
X329775Y69991D01*
X329736Y69895D01*
X329693Y69801D01*
X329691Y69781D01*
X329683Y69763D01*
X329665Y69596D01*
X329665Y67144D01*
X326556Y64035D01*
X322160Y64035D01*
X319051Y67144D01*
X319051Y71540D01*
X320633Y73122D01*
X320675Y73180D01*
X320724Y73232D01*
X320746Y73279D01*
X320776Y73321D01*
X320798Y73390D01*
X320828Y73455D01*
X320833Y73507D01*
X320849Y73557D01*
X320847Y73628D01*
X320855Y73699D01*
X320844Y73750D01*
X320842Y73802D01*
X320818Y73870D01*
X320803Y73940D01*
X320776Y73985D01*
X320758Y74033D01*
X320713Y74089D01*
X320676Y74151D01*
X320637Y74185D01*
X320604Y74225D01*
X320544Y74264D01*
X320489Y74311D01*
X320441Y74330D01*
X320397Y74358D01*
X320328Y74376D01*
X320261Y74403D01*
X320190Y74411D01*
X320159Y74419D01*
X320136Y74417D01*
X320095Y74421D01*
X296109Y74421D01*
X296019Y74407D01*
X295928Y74399D01*
X295899Y74387D01*
X295867Y74382D01*
X295786Y74339D01*
X295702Y74303D01*
X295670Y74277D01*
X295649Y74266D01*
X295627Y74243D01*
X295571Y74198D01*
X293536Y72163D01*
X289140Y72163D01*
X286031Y75272D01*
X286031Y79668D01*
X289140Y82777D01*
X293536Y82777D01*
X295571Y80742D01*
X295645Y80689D01*
X295715Y80629D01*
X295745Y80617D01*
X295771Y80598D01*
X295858Y80571D01*
X295943Y80537D01*
X295984Y80533D01*
X296006Y80526D01*
X296038Y80527D01*
X296109Y80519D01*
X326191Y80519D01*
X326261Y80530D01*
X326333Y80532D01*
X326382Y80550D01*
X326433Y80558D01*
X326497Y80592D01*
X326564Y80617D01*
X326605Y80649D01*
X326651Y80674D01*
X326700Y80726D01*
X326756Y80770D01*
X326784Y80814D01*
X326820Y80852D01*
X326850Y80917D01*
X326889Y80977D01*
X326902Y81028D01*
X326924Y81075D01*
X326932Y81146D01*
X326949Y81216D01*
X326945Y81268D01*
X326951Y81319D01*
X326936Y81390D01*
X326930Y81461D01*
X326910Y81509D01*
X326899Y81560D01*
X326862Y81621D01*
X326834Y81687D01*
X326789Y81743D01*
X326772Y81771D01*
X326755Y81786D01*
X326729Y81818D01*
X323623Y84924D01*
X323623Y89320D01*
X325912Y91609D01*
X325958Y91673D01*
X325979Y91695D01*
X325984Y91704D01*
X326025Y91753D01*
X326037Y91783D01*
X326056Y91809D01*
X326083Y91896D01*
X326117Y91981D01*
X326121Y92022D01*
X326128Y92044D01*
X326127Y92076D01*
X326135Y92147D01*
X326135Y100980D01*
X329750Y104595D01*
X329803Y104669D01*
X329863Y104738D01*
X329875Y104768D01*
X329894Y104794D01*
X329921Y104881D01*
X329955Y104966D01*
X329959Y105007D01*
X329966Y105029D01*
X329965Y105062D01*
X329973Y105133D01*
X329973Y109640D01*
X333082Y112749D01*
X337478Y112749D01*
X340587Y109640D01*
X340587Y105244D01*
X337478Y102135D01*
X335511Y102135D01*
X335421Y102121D01*
X335330Y102113D01*
X335300Y102101D01*
X335268Y102096D01*
X335188Y102053D01*
X335104Y102017D01*
X335072Y101991D01*
X335051Y101980D01*
X335029Y101957D01*
X334973Y101912D01*
X331948Y98887D01*
X331895Y98813D01*
X331835Y98744D01*
X331823Y98714D01*
X331804Y98688D01*
X331777Y98601D01*
X331743Y98516D01*
X331739Y98475D01*
X331732Y98453D01*
X331733Y98420D01*
X331725Y98349D01*
X331725Y92147D01*
X331739Y92057D01*
X331747Y91966D01*
X331759Y91937D01*
X331764Y91905D01*
X331807Y91824D01*
X331843Y91740D01*
X331869Y91708D01*
X331880Y91687D01*
X331903Y91665D01*
X331926Y91636D01*
X331928Y91632D01*
X331931Y91630D01*
X331948Y91609D01*
X333853Y89704D01*
X333869Y89693D01*
X333881Y89677D01*
X333969Y89621D01*
X334052Y89561D01*
X334071Y89555D01*
X334088Y89544D01*
X334189Y89519D01*
X334288Y89488D01*
X334307Y89489D01*
X334327Y89484D01*
X334430Y89492D01*
X334533Y89495D01*
X334552Y89501D01*
X334572Y89503D01*
X334667Y89543D01*
X334764Y89579D01*
X334780Y89592D01*
X334798Y89599D01*
X334929Y89704D01*
X338162Y92937D01*
X341399Y92937D01*
X341489Y92951D01*
X341580Y92959D01*
X341610Y92971D01*
X341642Y92976D01*
X341722Y93019D01*
X341806Y93055D01*
X341838Y93081D01*
X341859Y93092D01*
X341881Y93115D01*
X341937Y93160D01*
X346232Y97455D01*
X346285Y97529D01*
X346345Y97598D01*
X346357Y97628D01*
X346376Y97654D01*
X346403Y97741D01*
X346437Y97826D01*
X346441Y97867D01*
X346448Y97889D01*
X346447Y97922D01*
X346455Y97993D01*
X346455Y102925D01*
X346441Y103015D01*
X346433Y103106D01*
X346421Y103135D01*
X346416Y103167D01*
X346373Y103248D01*
X346337Y103332D01*
X346311Y103364D01*
X346300Y103385D01*
X346277Y103407D01*
X346232Y103463D01*
X343943Y105752D01*
X343943Y110148D01*
X347052Y113257D01*
X351448Y113257D01*
X354557Y110148D01*
X354557Y105752D01*
X352268Y103463D01*
X352215Y103389D01*
X352155Y103319D01*
X352143Y103289D01*
X352124Y103263D01*
X352097Y103176D01*
X352063Y103091D01*
X352059Y103050D01*
X352052Y103028D01*
X352053Y102996D01*
X352045Y102925D01*
X352045Y95362D01*
X345890Y89207D01*
X345837Y89133D01*
X345777Y89064D01*
X345765Y89034D01*
X345746Y89008D01*
X345719Y88921D01*
X345685Y88836D01*
X345681Y88795D01*
X345674Y88773D01*
X345675Y88740D01*
X345667Y88669D01*
X345667Y85432D01*
X342558Y82323D01*
X338162Y82323D01*
X335437Y85048D01*
X335421Y85059D01*
X335409Y85075D01*
X335321Y85131D01*
X335238Y85191D01*
X335219Y85197D01*
X335202Y85208D01*
X335101Y85233D01*
X335002Y85264D01*
X334983Y85263D01*
X334963Y85268D01*
X334860Y85260D01*
X334757Y85257D01*
X334738Y85251D01*
X334718Y85249D01*
X334623Y85209D01*
X334526Y85173D01*
X334510Y85160D01*
X334492Y85153D01*
X334361Y85048D01*
X331131Y81818D01*
X331089Y81760D01*
X331040Y81708D01*
X331018Y81661D01*
X330988Y81619D01*
X330966Y81550D01*
X330936Y81485D01*
X330931Y81433D01*
X330915Y81383D01*
X330917Y81312D01*
X330909Y81241D01*
X330920Y81190D01*
X330922Y81138D01*
X330946Y81070D01*
X330961Y81000D01*
X330988Y80955D01*
X331006Y80907D01*
X331051Y80851D01*
X331088Y80789D01*
X331127Y80755D01*
X331160Y80715D01*
X331220Y80676D01*
X331275Y80629D01*
X331323Y80610D01*
X331367Y80582D01*
X331436Y80564D01*
X331503Y80537D01*
X331574Y80529D01*
X331605Y80521D01*
X331628Y80523D01*
X331669Y80519D01*
X488181Y80519D01*
X504496Y64204D01*
X504570Y64151D01*
X504639Y64091D01*
X504669Y64079D01*
X504696Y64060D01*
X504783Y64033D01*
X504867Y63999D01*
X504908Y63995D01*
X504931Y63988D01*
X504963Y63989D01*
X505034Y63981D01*
X507912Y63981D01*
X509947Y61946D01*
X510021Y61893D01*
X510091Y61833D01*
X510121Y61821D01*
X510147Y61802D01*
X510234Y61775D01*
X510319Y61741D01*
X510360Y61737D01*
X510382Y61730D01*
X510414Y61731D01*
X510485Y61723D01*
X545077Y61723D01*
X558598Y48202D01*
X558672Y48149D01*
X558741Y48089D01*
X558771Y48077D01*
X558798Y48058D01*
X558885Y48031D01*
X558969Y47997D01*
X559010Y47993D01*
X559033Y47986D01*
X559065Y47987D01*
X559136Y47979D01*
X562014Y47979D01*
X565123Y44870D01*
X565123Y41628D01*
X565126Y41608D01*
X565124Y41589D01*
X565146Y41487D01*
X565162Y41385D01*
X565172Y41368D01*
X565176Y41348D01*
X565229Y41259D01*
X565278Y41168D01*
X565292Y41154D01*
X565302Y41137D01*
X565381Y41070D01*
X565456Y40998D01*
X565474Y40990D01*
X565489Y40977D01*
X565585Y40938D01*
X565679Y40895D01*
X565699Y40893D01*
X565717Y40885D01*
X565884Y40867D01*
X568110Y40867D01*
X571219Y37758D01*
X571219Y34521D01*
X571233Y34431D01*
X571241Y34340D01*
X571253Y34310D01*
X571258Y34278D01*
X571301Y34198D01*
X571337Y34114D01*
X571363Y34082D01*
X571374Y34061D01*
X571397Y34039D01*
X571442Y33983D01*
X573277Y32148D01*
X573351Y32095D01*
X573420Y32035D01*
X573450Y32023D01*
X573476Y32004D01*
X573563Y31977D01*
X573648Y31943D01*
X573689Y31939D01*
X573711Y31932D01*
X573744Y31933D01*
X573815Y31925D01*
X577403Y31925D01*
X579175Y30153D01*
X579175Y20647D01*
X577403Y18875D01*
X567897Y18875D01*
G37*
%LPD*%
%LPC*%
G36*
X848955Y70669D02*
X848955Y70669D01*
X843016Y73130D01*
X838470Y77676D01*
X838070Y78639D01*
X838046Y78679D01*
X838030Y78722D01*
X837982Y78782D01*
X837941Y78849D01*
X837905Y78878D01*
X837877Y78914D01*
X837811Y78956D01*
X837751Y79005D01*
X837708Y79022D01*
X837670Y79047D01*
X837594Y79066D01*
X837522Y79094D01*
X837476Y79095D01*
X837431Y79107D01*
X837354Y79101D01*
X837276Y79104D01*
X837232Y79091D01*
X837186Y79088D01*
X837115Y79057D01*
X837040Y79035D01*
X837002Y79009D01*
X836960Y78991D01*
X836853Y78906D01*
X836838Y78895D01*
X836835Y78891D01*
X836829Y78886D01*
X834221Y76278D01*
X829646Y74383D01*
X824694Y74383D01*
X820119Y76278D01*
X816618Y79779D01*
X815373Y82785D01*
X815335Y82846D01*
X815306Y82911D01*
X815271Y82950D01*
X815244Y82994D01*
X815188Y83040D01*
X815140Y83092D01*
X815094Y83118D01*
X815054Y83151D01*
X814987Y83176D01*
X814924Y83211D01*
X814873Y83220D01*
X814825Y83239D01*
X814753Y83242D01*
X814682Y83255D01*
X814631Y83247D01*
X814579Y83249D01*
X814510Y83229D01*
X814439Y83219D01*
X814393Y83195D01*
X814343Y83181D01*
X814284Y83140D01*
X814220Y83107D01*
X814183Y83070D01*
X814141Y83041D01*
X814098Y82983D01*
X814048Y82932D01*
X814013Y82869D01*
X813994Y82843D01*
X813987Y82821D01*
X813967Y82785D01*
X812722Y79779D01*
X809221Y76278D01*
X804646Y74383D01*
X799694Y74383D01*
X795119Y76278D01*
X791618Y79779D01*
X789723Y84354D01*
X789723Y89306D01*
X791618Y93881D01*
X795119Y97382D01*
X799694Y99277D01*
X804646Y99277D01*
X809221Y97382D01*
X812722Y93881D01*
X813967Y90875D01*
X814005Y90814D01*
X814034Y90749D01*
X814069Y90710D01*
X814096Y90666D01*
X814152Y90620D01*
X814200Y90568D01*
X814246Y90542D01*
X814286Y90509D01*
X814353Y90484D01*
X814416Y90449D01*
X814467Y90440D01*
X814515Y90421D01*
X814587Y90418D01*
X814658Y90405D01*
X814709Y90413D01*
X814761Y90411D01*
X814830Y90431D01*
X814901Y90441D01*
X814947Y90465D01*
X814997Y90479D01*
X815056Y90520D01*
X815120Y90553D01*
X815157Y90590D01*
X815199Y90619D01*
X815242Y90677D01*
X815292Y90728D01*
X815327Y90791D01*
X815346Y90817D01*
X815353Y90839D01*
X815373Y90875D01*
X816618Y93881D01*
X820119Y97382D01*
X824694Y99277D01*
X829646Y99277D01*
X834221Y97382D01*
X836829Y94774D01*
X836866Y94747D01*
X836897Y94713D01*
X836965Y94675D01*
X837029Y94630D01*
X837072Y94617D01*
X837113Y94594D01*
X837189Y94581D01*
X837264Y94558D01*
X837309Y94559D01*
X837355Y94551D01*
X837432Y94562D01*
X837509Y94564D01*
X837553Y94580D01*
X837598Y94586D01*
X837667Y94622D01*
X837741Y94648D01*
X837776Y94677D01*
X837817Y94698D01*
X837872Y94754D01*
X837933Y94802D01*
X837957Y94841D01*
X837990Y94874D01*
X838055Y94993D01*
X838066Y95009D01*
X838067Y95014D01*
X838070Y95021D01*
X838470Y95984D01*
X843016Y100530D01*
X848955Y102991D01*
X855385Y102991D01*
X861324Y100530D01*
X865870Y95984D01*
X866270Y95021D01*
X866294Y94981D01*
X866310Y94938D01*
X866358Y94878D01*
X866399Y94811D01*
X866435Y94782D01*
X866463Y94746D01*
X866529Y94704D01*
X866589Y94655D01*
X866632Y94638D01*
X866670Y94613D01*
X866746Y94594D01*
X866818Y94566D01*
X866864Y94565D01*
X866909Y94553D01*
X866986Y94559D01*
X867064Y94556D01*
X867108Y94569D01*
X867154Y94572D01*
X867225Y94603D01*
X867300Y94625D01*
X867338Y94651D01*
X867380Y94669D01*
X867487Y94754D01*
X867502Y94765D01*
X867505Y94769D01*
X867511Y94774D01*
X870119Y97382D01*
X874694Y99277D01*
X879646Y99277D01*
X884221Y97382D01*
X887722Y93881D01*
X888967Y90875D01*
X889005Y90814D01*
X889034Y90749D01*
X889069Y90710D01*
X889096Y90666D01*
X889152Y90620D01*
X889200Y90568D01*
X889246Y90542D01*
X889286Y90509D01*
X889353Y90484D01*
X889416Y90449D01*
X889467Y90440D01*
X889515Y90421D01*
X889587Y90418D01*
X889658Y90405D01*
X889709Y90413D01*
X889761Y90411D01*
X889830Y90431D01*
X889901Y90441D01*
X889947Y90465D01*
X889997Y90479D01*
X890056Y90520D01*
X890120Y90553D01*
X890157Y90590D01*
X890199Y90619D01*
X890242Y90677D01*
X890292Y90728D01*
X890327Y90791D01*
X890346Y90817D01*
X890353Y90839D01*
X890373Y90875D01*
X891618Y93881D01*
X895119Y97382D01*
X899694Y99277D01*
X904646Y99277D01*
X909221Y97382D01*
X912722Y93881D01*
X914617Y89306D01*
X914617Y84354D01*
X912722Y79779D01*
X909221Y76278D01*
X904646Y74383D01*
X899694Y74383D01*
X895119Y76278D01*
X891618Y79779D01*
X890373Y82785D01*
X890335Y82846D01*
X890306Y82911D01*
X890271Y82950D01*
X890244Y82994D01*
X890188Y83040D01*
X890140Y83092D01*
X890094Y83118D01*
X890054Y83151D01*
X889987Y83176D01*
X889924Y83211D01*
X889873Y83220D01*
X889825Y83239D01*
X889753Y83242D01*
X889682Y83255D01*
X889631Y83247D01*
X889579Y83249D01*
X889510Y83229D01*
X889439Y83219D01*
X889393Y83195D01*
X889343Y83181D01*
X889284Y83140D01*
X889220Y83107D01*
X889183Y83070D01*
X889141Y83041D01*
X889098Y82983D01*
X889048Y82932D01*
X889013Y82869D01*
X888994Y82843D01*
X888987Y82821D01*
X888967Y82785D01*
X887722Y79779D01*
X884221Y76278D01*
X879646Y74383D01*
X874694Y74383D01*
X870119Y76278D01*
X867511Y78886D01*
X867474Y78913D01*
X867443Y78947D01*
X867375Y78985D01*
X867311Y79030D01*
X867268Y79043D01*
X867227Y79066D01*
X867151Y79079D01*
X867076Y79102D01*
X867031Y79101D01*
X866985Y79109D01*
X866908Y79098D01*
X866831Y79096D01*
X866787Y79080D01*
X866742Y79074D01*
X866673Y79038D01*
X866599Y79012D01*
X866564Y78983D01*
X866523Y78962D01*
X866468Y78906D01*
X866407Y78858D01*
X866383Y78819D01*
X866350Y78786D01*
X866285Y78667D01*
X866274Y78651D01*
X866273Y78646D01*
X866270Y78639D01*
X865870Y77676D01*
X861324Y73130D01*
X855385Y70669D01*
X848955Y70669D01*
G37*
%LPD*%
%LPC*%
G36*
X87306Y447175D02*
X87306Y447175D01*
X83621Y448701D01*
X80801Y451521D01*
X79275Y455206D01*
X79275Y459194D01*
X80801Y462879D01*
X83621Y465699D01*
X87306Y467225D01*
X91294Y467225D01*
X94979Y465699D01*
X95452Y465225D01*
X95468Y465213D01*
X95481Y465198D01*
X95568Y465142D01*
X95652Y465081D01*
X95671Y465076D01*
X95688Y465065D01*
X95788Y465040D01*
X95887Y465009D01*
X95907Y465010D01*
X95926Y465005D01*
X96029Y465013D01*
X96133Y465015D01*
X96152Y465022D01*
X96171Y465024D01*
X96266Y465064D01*
X96364Y465100D01*
X96379Y465112D01*
X96398Y465120D01*
X96529Y465225D01*
X107554Y476251D01*
X219598Y476251D01*
X221458Y474391D01*
X222705Y473144D01*
X222779Y473091D01*
X222848Y473031D01*
X222878Y473019D01*
X222904Y473000D01*
X222991Y472973D01*
X223076Y472939D01*
X223117Y472935D01*
X223139Y472928D01*
X223172Y472929D01*
X223243Y472921D01*
X226480Y472921D01*
X229589Y469812D01*
X229589Y465416D01*
X226480Y462307D01*
X222084Y462307D01*
X218975Y465416D01*
X218975Y468653D01*
X218961Y468743D01*
X218953Y468834D01*
X218941Y468864D01*
X218936Y468896D01*
X218893Y468976D01*
X218857Y469060D01*
X218831Y469093D01*
X218820Y469113D01*
X218797Y469135D01*
X218752Y469191D01*
X217505Y470438D01*
X217431Y470491D01*
X217362Y470551D01*
X217332Y470563D01*
X217306Y470582D01*
X217218Y470609D01*
X217134Y470643D01*
X217093Y470647D01*
X217071Y470654D01*
X217038Y470653D01*
X216967Y470661D01*
X110185Y470661D01*
X110095Y470647D01*
X110004Y470639D01*
X109974Y470627D01*
X109942Y470622D01*
X109862Y470579D01*
X109778Y470543D01*
X109746Y470517D01*
X109725Y470506D01*
X109703Y470483D01*
X109647Y470438D01*
X99414Y460206D01*
X99346Y460111D01*
X99276Y460017D01*
X99274Y460011D01*
X99271Y460006D01*
X99236Y459895D01*
X99200Y459783D01*
X99200Y459777D01*
X99198Y459771D01*
X99201Y459654D01*
X99203Y459537D01*
X99205Y459530D01*
X99205Y459525D01*
X99211Y459508D01*
X99249Y459376D01*
X99325Y459194D01*
X99325Y455206D01*
X97799Y451521D01*
X94979Y448701D01*
X91294Y447175D01*
X87306Y447175D01*
G37*
%LPD*%
%LPC*%
G36*
X350354Y307875D02*
X350354Y307875D01*
X347245Y310984D01*
X347245Y315380D01*
X350354Y318489D01*
X353591Y318489D01*
X353681Y318503D01*
X353772Y318511D01*
X353802Y318523D01*
X353834Y318528D01*
X353914Y318571D01*
X353998Y318607D01*
X354030Y318633D01*
X354051Y318644D01*
X354073Y318667D01*
X354129Y318712D01*
X359014Y323597D01*
X386131Y323597D01*
X386221Y323611D01*
X386312Y323619D01*
X386342Y323631D01*
X386374Y323636D01*
X386454Y323679D01*
X386538Y323715D01*
X386570Y323741D01*
X386591Y323752D01*
X386613Y323775D01*
X386669Y323820D01*
X413116Y350267D01*
X468939Y350267D01*
X469029Y350281D01*
X469120Y350289D01*
X469149Y350301D01*
X469181Y350306D01*
X469262Y350349D01*
X469346Y350385D01*
X469378Y350411D01*
X469399Y350422D01*
X469421Y350445D01*
X469477Y350490D01*
X470496Y351509D01*
X474892Y351509D01*
X478001Y348400D01*
X478001Y344004D01*
X474892Y340895D01*
X470496Y340895D01*
X467373Y344019D01*
X467364Y344057D01*
X467348Y344159D01*
X467338Y344176D01*
X467334Y344196D01*
X467281Y344285D01*
X467232Y344376D01*
X467218Y344390D01*
X467208Y344407D01*
X467129Y344474D01*
X467054Y344546D01*
X467036Y344554D01*
X467021Y344567D01*
X466925Y344606D01*
X466831Y344649D01*
X466811Y344651D01*
X466793Y344659D01*
X466626Y344677D01*
X415747Y344677D01*
X415657Y344663D01*
X415566Y344655D01*
X415536Y344643D01*
X415504Y344638D01*
X415424Y344595D01*
X415340Y344559D01*
X415308Y344533D01*
X415287Y344522D01*
X415265Y344499D01*
X415209Y344454D01*
X388762Y318007D01*
X361645Y318007D01*
X361555Y317993D01*
X361464Y317985D01*
X361434Y317973D01*
X361402Y317968D01*
X361322Y317925D01*
X361238Y317889D01*
X361206Y317863D01*
X361185Y317852D01*
X361163Y317829D01*
X361107Y317784D01*
X358082Y314759D01*
X358029Y314685D01*
X357969Y314616D01*
X357957Y314586D01*
X357938Y314560D01*
X357911Y314473D01*
X357877Y314388D01*
X357873Y314347D01*
X357866Y314325D01*
X357867Y314292D01*
X357859Y314221D01*
X357859Y310984D01*
X354750Y307875D01*
X350354Y307875D01*
G37*
%LPD*%
%LPC*%
G36*
X314684Y27909D02*
X314684Y27909D01*
X309387Y30103D01*
X305333Y34157D01*
X303139Y39454D01*
X303139Y45186D01*
X305333Y50483D01*
X309387Y54537D01*
X314684Y56731D01*
X320416Y56731D01*
X325713Y54537D01*
X329767Y50483D01*
X331961Y45186D01*
X331961Y39454D01*
X329767Y34157D01*
X325713Y30103D01*
X320416Y27909D01*
X314684Y27909D01*
G37*
%LPD*%
%LPC*%
G36*
X352684Y27909D02*
X352684Y27909D01*
X347387Y30103D01*
X343333Y34157D01*
X341139Y39454D01*
X341139Y45186D01*
X343333Y50483D01*
X347387Y54537D01*
X352684Y56731D01*
X358416Y56731D01*
X363713Y54537D01*
X367767Y50483D01*
X369961Y45186D01*
X369961Y39454D01*
X367767Y34157D01*
X363713Y30103D01*
X358416Y27909D01*
X352684Y27909D01*
G37*
%LPD*%
%LPC*%
G36*
X76809Y419675D02*
X76809Y419675D01*
X72205Y421582D01*
X68682Y425105D01*
X66775Y429709D01*
X66775Y434691D01*
X68682Y439295D01*
X72205Y442818D01*
X76809Y444725D01*
X81791Y444725D01*
X86395Y442818D01*
X89918Y439295D01*
X91825Y434691D01*
X91825Y429709D01*
X89918Y425105D01*
X86395Y421582D01*
X81791Y419675D01*
X76809Y419675D01*
G37*
%LPD*%
%LPC*%
G36*
X851509Y419675D02*
X851509Y419675D01*
X846905Y421582D01*
X843382Y425105D01*
X841475Y429709D01*
X841475Y434691D01*
X843382Y439295D01*
X846905Y442818D01*
X851509Y444725D01*
X856491Y444725D01*
X861095Y442818D01*
X864618Y439295D01*
X866525Y434691D01*
X866525Y429709D01*
X864618Y425105D01*
X861095Y421582D01*
X856491Y419675D01*
X851509Y419675D01*
G37*
%LPD*%
%LPC*%
G36*
X921509Y419675D02*
X921509Y419675D01*
X916905Y421582D01*
X913382Y425105D01*
X911475Y429709D01*
X911475Y434691D01*
X913382Y439295D01*
X916905Y442818D01*
X921509Y444725D01*
X926491Y444725D01*
X931095Y442818D01*
X934618Y439295D01*
X936525Y434691D01*
X936525Y429709D01*
X934618Y425105D01*
X931095Y421582D01*
X926491Y419675D01*
X921509Y419675D01*
G37*
%LPD*%
%LPC*%
G36*
X146809Y419675D02*
X146809Y419675D01*
X142205Y421582D01*
X138682Y425105D01*
X136775Y429709D01*
X136775Y434691D01*
X138682Y439295D01*
X142205Y442818D01*
X146809Y444725D01*
X151791Y444725D01*
X156395Y442818D01*
X159918Y439295D01*
X161825Y434691D01*
X161825Y429709D01*
X159918Y425105D01*
X156395Y421582D01*
X151791Y419675D01*
X146809Y419675D01*
G37*
%LPD*%
%LPC*%
G36*
X277202Y223293D02*
X277202Y223293D01*
X274093Y226402D01*
X274093Y230798D01*
X276382Y233087D01*
X276435Y233161D01*
X276495Y233231D01*
X276507Y233261D01*
X276526Y233287D01*
X276553Y233374D01*
X276587Y233459D01*
X276591Y233500D01*
X276598Y233522D01*
X276597Y233554D01*
X276605Y233625D01*
X276605Y242458D01*
X290942Y256795D01*
X299775Y256795D01*
X299865Y256809D01*
X299956Y256817D01*
X299985Y256829D01*
X300017Y256834D01*
X300098Y256877D01*
X300182Y256913D01*
X300214Y256939D01*
X300235Y256950D01*
X300257Y256973D01*
X300313Y257018D01*
X302602Y259307D01*
X306998Y259307D01*
X310107Y256198D01*
X310107Y251802D01*
X306998Y248693D01*
X302602Y248693D01*
X300313Y250982D01*
X300239Y251035D01*
X300169Y251095D01*
X300139Y251107D01*
X300113Y251126D01*
X300026Y251153D01*
X299941Y251187D01*
X299900Y251191D01*
X299878Y251198D01*
X299846Y251197D01*
X299775Y251205D01*
X293573Y251205D01*
X293483Y251191D01*
X293392Y251183D01*
X293362Y251171D01*
X293330Y251166D01*
X293250Y251123D01*
X293166Y251087D01*
X293134Y251061D01*
X293113Y251050D01*
X293091Y251027D01*
X293035Y250982D01*
X282418Y240365D01*
X282365Y240291D01*
X282305Y240222D01*
X282293Y240192D01*
X282274Y240166D01*
X282247Y240079D01*
X282213Y239994D01*
X282209Y239953D01*
X282202Y239931D01*
X282203Y239898D01*
X282195Y239827D01*
X282195Y233625D01*
X282209Y233535D01*
X282217Y233444D01*
X282229Y233415D01*
X282234Y233383D01*
X282277Y233302D01*
X282313Y233218D01*
X282339Y233186D01*
X282350Y233165D01*
X282373Y233143D01*
X282418Y233087D01*
X284707Y230798D01*
X284707Y226402D01*
X281598Y223293D01*
X277202Y223293D01*
G37*
%LPD*%
%LPC*%
G36*
X421728Y148109D02*
X421728Y148109D01*
X418619Y151218D01*
X418619Y155614D01*
X421728Y158723D01*
X426124Y158723D01*
X428413Y156434D01*
X428487Y156381D01*
X428557Y156321D01*
X428587Y156309D01*
X428613Y156290D01*
X428700Y156263D01*
X428785Y156229D01*
X428826Y156225D01*
X428848Y156218D01*
X428880Y156219D01*
X428951Y156211D01*
X454180Y156211D01*
X454200Y156214D01*
X454219Y156212D01*
X454321Y156234D01*
X454423Y156250D01*
X454440Y156260D01*
X454460Y156264D01*
X454549Y156317D01*
X454640Y156366D01*
X454654Y156380D01*
X454671Y156390D01*
X454738Y156469D01*
X454810Y156544D01*
X454818Y156562D01*
X454831Y156577D01*
X454870Y156673D01*
X454913Y156767D01*
X454915Y156787D01*
X454923Y156805D01*
X454941Y156972D01*
X454941Y158662D01*
X458050Y161771D01*
X462446Y161771D01*
X465555Y158662D01*
X465555Y154266D01*
X462446Y151157D01*
X459209Y151157D01*
X459119Y151143D01*
X459028Y151135D01*
X458998Y151123D01*
X458966Y151118D01*
X458886Y151075D01*
X458802Y151039D01*
X458769Y151013D01*
X458749Y151002D01*
X458727Y150979D01*
X458671Y150934D01*
X458358Y150621D01*
X428951Y150621D01*
X428861Y150607D01*
X428770Y150599D01*
X428741Y150587D01*
X428709Y150582D01*
X428628Y150539D01*
X428544Y150503D01*
X428512Y150477D01*
X428491Y150466D01*
X428469Y150443D01*
X428413Y150398D01*
X426124Y148109D01*
X421728Y148109D01*
G37*
%LPD*%
%LPC*%
G36*
X862006Y447175D02*
X862006Y447175D01*
X858321Y448701D01*
X855501Y451521D01*
X853975Y455206D01*
X853975Y459194D01*
X855501Y462879D01*
X858321Y465699D01*
X862006Y467225D01*
X865994Y467225D01*
X869679Y465699D01*
X872499Y462879D01*
X874025Y459194D01*
X874025Y455206D01*
X872499Y451521D01*
X869679Y448701D01*
X865994Y447175D01*
X862006Y447175D01*
G37*
%LPD*%
%LPC*%
G36*
X557872Y297461D02*
X557872Y297461D01*
X554763Y300570D01*
X554763Y304966D01*
X557052Y307255D01*
X557105Y307329D01*
X557165Y307399D01*
X557177Y307429D01*
X557196Y307455D01*
X557223Y307542D01*
X557257Y307627D01*
X557261Y307668D01*
X557268Y307690D01*
X557267Y307722D01*
X557275Y307793D01*
X557275Y327548D01*
X558912Y329185D01*
X563173Y329185D01*
X563263Y329199D01*
X563354Y329207D01*
X563383Y329219D01*
X563415Y329224D01*
X563496Y329267D01*
X563580Y329303D01*
X563612Y329329D01*
X563633Y329340D01*
X563655Y329363D01*
X563711Y329408D01*
X566000Y331697D01*
X570396Y331697D01*
X573505Y328588D01*
X573505Y324192D01*
X570396Y321083D01*
X566000Y321083D01*
X564164Y322919D01*
X564106Y322961D01*
X564054Y323010D01*
X564007Y323032D01*
X563965Y323062D01*
X563896Y323084D01*
X563831Y323114D01*
X563779Y323119D01*
X563729Y323135D01*
X563658Y323133D01*
X563587Y323141D01*
X563536Y323130D01*
X563484Y323128D01*
X563416Y323104D01*
X563346Y323089D01*
X563301Y323062D01*
X563253Y323044D01*
X563197Y322999D01*
X563135Y322962D01*
X563101Y322923D01*
X563061Y322890D01*
X563022Y322830D01*
X562975Y322775D01*
X562956Y322727D01*
X562928Y322683D01*
X562910Y322614D01*
X562883Y322547D01*
X562875Y322476D01*
X562867Y322445D01*
X562869Y322422D01*
X562865Y322381D01*
X562865Y307793D01*
X562879Y307703D01*
X562887Y307612D01*
X562899Y307583D01*
X562904Y307551D01*
X562947Y307470D01*
X562983Y307386D01*
X563009Y307354D01*
X563020Y307333D01*
X563043Y307311D01*
X563088Y307255D01*
X565377Y304966D01*
X565377Y300570D01*
X562268Y297461D01*
X557872Y297461D01*
G37*
%LPD*%
%LPC*%
G36*
X944756Y242663D02*
X944756Y242663D01*
X943863Y243556D01*
X943863Y259044D01*
X944756Y259937D01*
X960244Y259937D01*
X961137Y259044D01*
X961137Y243556D01*
X960244Y242663D01*
X944756Y242663D01*
G37*
%LPD*%
%LPC*%
G36*
X127638Y120395D02*
X127638Y120395D01*
X126745Y121288D01*
X126745Y130172D01*
X127638Y131065D01*
X130865Y131065D01*
X130935Y131076D01*
X131007Y131078D01*
X131056Y131096D01*
X131107Y131104D01*
X131171Y131138D01*
X131238Y131163D01*
X131279Y131195D01*
X131325Y131220D01*
X131374Y131272D01*
X131430Y131316D01*
X131458Y131360D01*
X131494Y131398D01*
X131524Y131463D01*
X131563Y131523D01*
X131576Y131574D01*
X131598Y131621D01*
X131606Y131692D01*
X131623Y131762D01*
X131619Y131814D01*
X131625Y131865D01*
X131610Y131936D01*
X131604Y132007D01*
X131584Y132055D01*
X131573Y132106D01*
X131536Y132167D01*
X131508Y132233D01*
X131463Y132289D01*
X131446Y132317D01*
X131429Y132332D01*
X131403Y132364D01*
X130837Y132930D01*
X130837Y137326D01*
X133946Y140435D01*
X138342Y140435D01*
X141451Y137326D01*
X141451Y132930D01*
X140885Y132364D01*
X140843Y132306D01*
X140794Y132254D01*
X140772Y132207D01*
X140742Y132165D01*
X140720Y132096D01*
X140690Y132031D01*
X140685Y131979D01*
X140669Y131929D01*
X140671Y131858D01*
X140663Y131787D01*
X140674Y131736D01*
X140676Y131684D01*
X140700Y131616D01*
X140715Y131546D01*
X140742Y131501D01*
X140760Y131453D01*
X140805Y131397D01*
X140842Y131335D01*
X140881Y131301D01*
X140914Y131261D01*
X140974Y131222D01*
X141029Y131175D01*
X141077Y131156D01*
X141121Y131128D01*
X141190Y131110D01*
X141257Y131083D01*
X141328Y131075D01*
X141359Y131067D01*
X141382Y131069D01*
X141423Y131065D01*
X144142Y131065D01*
X145035Y130172D01*
X145035Y121288D01*
X144142Y120395D01*
X127638Y120395D01*
G37*
%LPD*%
%LPC*%
G36*
X950782Y222663D02*
X950782Y222663D01*
X947608Y223978D01*
X945178Y226408D01*
X943863Y229582D01*
X943863Y233018D01*
X945178Y236192D01*
X947608Y238622D01*
X950782Y239937D01*
X954218Y239937D01*
X957392Y238622D01*
X959822Y236192D01*
X961137Y233018D01*
X961137Y229582D01*
X959822Y226408D01*
X957392Y223978D01*
X954218Y222663D01*
X950782Y222663D01*
G37*
%LPD*%
%LPC*%
G36*
X538314Y100357D02*
X538314Y100357D01*
X535205Y103466D01*
X535205Y107862D01*
X537494Y110151D01*
X537547Y110225D01*
X537607Y110295D01*
X537619Y110325D01*
X537638Y110351D01*
X537665Y110438D01*
X537699Y110523D01*
X537703Y110564D01*
X537710Y110586D01*
X537709Y110618D01*
X537717Y110689D01*
X537717Y114863D01*
X537703Y114953D01*
X537695Y115044D01*
X537683Y115073D01*
X537678Y115105D01*
X537635Y115186D01*
X537599Y115270D01*
X537573Y115302D01*
X537562Y115323D01*
X537539Y115345D01*
X537494Y115401D01*
X535205Y117690D01*
X535205Y122086D01*
X538314Y125195D01*
X542710Y125195D01*
X545819Y122086D01*
X545819Y117690D01*
X543530Y115401D01*
X543477Y115327D01*
X543417Y115257D01*
X543405Y115227D01*
X543386Y115201D01*
X543359Y115114D01*
X543325Y115029D01*
X543321Y114988D01*
X543314Y114966D01*
X543315Y114934D01*
X543307Y114863D01*
X543307Y110689D01*
X543321Y110599D01*
X543329Y110508D01*
X543341Y110479D01*
X543346Y110447D01*
X543389Y110366D01*
X543425Y110282D01*
X543451Y110250D01*
X543462Y110229D01*
X543485Y110207D01*
X543530Y110151D01*
X545819Y107862D01*
X545819Y103466D01*
X542710Y100357D01*
X538314Y100357D01*
G37*
%LPD*%
%LPC*%
G36*
X71758Y401065D02*
X71758Y401065D01*
X70865Y401958D01*
X70865Y410842D01*
X71758Y411735D01*
X88262Y411735D01*
X89155Y410842D01*
X89155Y401958D01*
X88262Y401065D01*
X71758Y401065D01*
G37*
%LPD*%
%LPC*%
G36*
X184788Y305815D02*
X184788Y305815D01*
X183895Y306708D01*
X183895Y315592D01*
X184788Y316485D01*
X201292Y316485D01*
X202185Y315592D01*
X202185Y306708D01*
X201292Y305815D01*
X184788Y305815D01*
G37*
%LPD*%
%LPC*%
G36*
X70488Y121665D02*
X70488Y121665D01*
X69595Y122558D01*
X69595Y131442D01*
X70488Y132335D01*
X86992Y132335D01*
X87885Y131442D01*
X87885Y122558D01*
X86992Y121665D01*
X70488Y121665D01*
G37*
%LPD*%
%LPC*%
G36*
X903608Y397255D02*
X903608Y397255D01*
X902715Y398148D01*
X902715Y407032D01*
X903608Y407925D01*
X920112Y407925D01*
X921005Y407032D01*
X921005Y398148D01*
X920112Y397255D01*
X903608Y397255D01*
G37*
%LPD*%
%LPC*%
G36*
X14608Y343915D02*
X14608Y343915D01*
X13715Y344808D01*
X13715Y353692D01*
X14608Y354585D01*
X31112Y354585D01*
X32005Y353692D01*
X32005Y344808D01*
X31112Y343915D01*
X14608Y343915D01*
G37*
%LPD*%
%LPC*%
G36*
X909958Y158495D02*
X909958Y158495D01*
X909065Y159388D01*
X909065Y168272D01*
X909958Y169165D01*
X926462Y169165D01*
X927355Y168272D01*
X927355Y159388D01*
X926462Y158495D01*
X909958Y158495D01*
G37*
%LPD*%
%LPC*%
G36*
X183518Y120395D02*
X183518Y120395D01*
X182625Y121288D01*
X182625Y130172D01*
X183518Y131065D01*
X200022Y131065D01*
X200915Y130172D01*
X200915Y121288D01*
X200022Y120395D01*
X183518Y120395D01*
G37*
%LPD*%
%LPC*%
G36*
X128908Y247395D02*
X128908Y247395D01*
X128015Y248288D01*
X128015Y257172D01*
X128908Y258065D01*
X145412Y258065D01*
X146305Y257172D01*
X146305Y248288D01*
X145412Y247395D01*
X128908Y247395D01*
G37*
%LPD*%
%LPC*%
G36*
X854078Y281685D02*
X854078Y281685D01*
X853185Y282578D01*
X853185Y291462D01*
X854078Y292355D01*
X870582Y292355D01*
X871475Y291462D01*
X871475Y282578D01*
X870582Y281685D01*
X854078Y281685D01*
G37*
%LPD*%
%LPC*%
G36*
X853693Y38353D02*
X853693Y38353D01*
X853693Y50219D01*
X855322Y49961D01*
X857338Y49306D01*
X859226Y48344D01*
X860940Y47099D01*
X862439Y45600D01*
X863684Y43886D01*
X864646Y41998D01*
X865301Y39982D01*
X865559Y38353D01*
X853693Y38353D01*
G37*
%LPD*%
%LPC*%
G36*
X838781Y38353D02*
X838781Y38353D01*
X839039Y39982D01*
X839694Y41998D01*
X840656Y43886D01*
X841901Y45600D01*
X843400Y47099D01*
X845114Y48344D01*
X847002Y49306D01*
X849018Y49961D01*
X850647Y50219D01*
X850647Y38353D01*
X838781Y38353D01*
G37*
%LPD*%
%LPC*%
G36*
X853693Y35307D02*
X853693Y35307D01*
X865559Y35307D01*
X865301Y33678D01*
X864646Y31662D01*
X863684Y29774D01*
X862439Y28060D01*
X860940Y26561D01*
X859226Y25316D01*
X857338Y24354D01*
X855322Y23699D01*
X853693Y23441D01*
X853693Y35307D01*
G37*
%LPD*%
%LPC*%
G36*
X849018Y23699D02*
X849018Y23699D01*
X847002Y24354D01*
X845114Y25316D01*
X843400Y26561D01*
X841901Y28060D01*
X840656Y29774D01*
X839694Y31662D01*
X839039Y33678D01*
X838781Y35307D01*
X850647Y35307D01*
X850647Y23441D01*
X849018Y23699D01*
G37*
%LPD*%
%LPC*%
G36*
X650619Y187809D02*
X650619Y187809D01*
X650619Y191351D01*
X672161Y191351D01*
X672161Y190016D01*
X671988Y189369D01*
X671653Y188790D01*
X671180Y188317D01*
X670601Y187982D01*
X669955Y187809D01*
X650619Y187809D01*
G37*
%LPD*%
%LPC*%
G36*
X629286Y187809D02*
X629286Y187809D01*
X628639Y187982D01*
X628060Y188317D01*
X627587Y188790D01*
X627253Y189369D01*
X627079Y190016D01*
X627079Y191351D01*
X648621Y191351D01*
X648621Y187809D01*
X629286Y187809D01*
G37*
%LPD*%
%LPC*%
G36*
X140823Y458723D02*
X140823Y458723D01*
X140823Y468137D01*
X141885Y467969D01*
X143538Y467432D01*
X145087Y466643D01*
X146493Y465621D01*
X147721Y464393D01*
X148743Y462987D01*
X149532Y461438D01*
X150069Y459785D01*
X150237Y458723D01*
X140823Y458723D01*
G37*
%LPD*%
%LPC*%
G36*
X915523Y458723D02*
X915523Y458723D01*
X915523Y468137D01*
X916585Y467969D01*
X918238Y467432D01*
X919787Y466643D01*
X921193Y465621D01*
X922421Y464393D01*
X923443Y462987D01*
X924232Y461438D01*
X924769Y459785D01*
X924937Y458723D01*
X915523Y458723D01*
G37*
%LPD*%
%LPC*%
G36*
X128363Y458723D02*
X128363Y458723D01*
X128531Y459785D01*
X129068Y461438D01*
X129857Y462987D01*
X130879Y464393D01*
X132107Y465621D01*
X133513Y466643D01*
X135062Y467432D01*
X136715Y467969D01*
X137777Y468137D01*
X137777Y458723D01*
X128363Y458723D01*
G37*
%LPD*%
%LPC*%
G36*
X903063Y458723D02*
X903063Y458723D01*
X903231Y459785D01*
X903768Y461438D01*
X904557Y462987D01*
X905579Y464393D01*
X906807Y465621D01*
X908213Y466643D01*
X909762Y467432D01*
X911415Y467969D01*
X912477Y468137D01*
X912477Y458723D01*
X903063Y458723D01*
G37*
%LPD*%
%LPC*%
G36*
X915523Y455677D02*
X915523Y455677D01*
X924937Y455677D01*
X924769Y454615D01*
X924232Y452962D01*
X923443Y451413D01*
X922421Y450007D01*
X921193Y448779D01*
X919787Y447757D01*
X918238Y446968D01*
X916585Y446431D01*
X915523Y446263D01*
X915523Y455677D01*
G37*
%LPD*%
%LPC*%
G36*
X140823Y455677D02*
X140823Y455677D01*
X150237Y455677D01*
X150069Y454615D01*
X149532Y452962D01*
X148743Y451413D01*
X147721Y450007D01*
X146493Y448779D01*
X145087Y447757D01*
X143538Y446968D01*
X141885Y446431D01*
X140823Y446263D01*
X140823Y455677D01*
G37*
%LPD*%
%LPC*%
G36*
X911415Y446431D02*
X911415Y446431D01*
X909762Y446968D01*
X908213Y447757D01*
X906807Y448779D01*
X905579Y450007D01*
X904557Y451413D01*
X903768Y452962D01*
X903231Y454615D01*
X903063Y455677D01*
X912477Y455677D01*
X912477Y446263D01*
X911415Y446431D01*
G37*
%LPD*%
%LPC*%
G36*
X136715Y446431D02*
X136715Y446431D01*
X135062Y446968D01*
X133513Y447757D01*
X132107Y448779D01*
X130879Y450007D01*
X129857Y451413D01*
X129068Y452962D01*
X128531Y454615D01*
X128363Y455677D01*
X137777Y455677D01*
X137777Y446263D01*
X136715Y446431D01*
G37*
%LPD*%
%LPC*%
G36*
X919733Y127253D02*
X919733Y127253D01*
X919733Y132081D01*
X926164Y132081D01*
X926811Y131908D01*
X927390Y131573D01*
X927863Y131100D01*
X928198Y130521D01*
X928371Y129874D01*
X928371Y127253D01*
X919733Y127253D01*
G37*
%LPD*%
%LPC*%
G36*
X138683Y350773D02*
X138683Y350773D01*
X138683Y355601D01*
X145114Y355601D01*
X145761Y355428D01*
X146340Y355093D01*
X146813Y354620D01*
X147148Y354041D01*
X147321Y353394D01*
X147321Y350773D01*
X138683Y350773D01*
G37*
%LPD*%
%LPC*%
G36*
X137413Y165353D02*
X137413Y165353D01*
X137413Y170181D01*
X143844Y170181D01*
X144491Y170008D01*
X145070Y169673D01*
X145543Y169200D01*
X145878Y168621D01*
X146051Y167974D01*
X146051Y165353D01*
X137413Y165353D01*
G37*
%LPD*%
%LPC*%
G36*
X137413Y369823D02*
X137413Y369823D01*
X137413Y374651D01*
X143844Y374651D01*
X144491Y374478D01*
X145070Y374143D01*
X145543Y373670D01*
X145878Y373091D01*
X146051Y372444D01*
X146051Y369823D01*
X137413Y369823D01*
G37*
%LPD*%
%LPC*%
G36*
X193293Y165353D02*
X193293Y165353D01*
X193293Y170181D01*
X199724Y170181D01*
X200371Y170008D01*
X200950Y169673D01*
X201423Y169200D01*
X201758Y168621D01*
X201931Y167974D01*
X201931Y165353D01*
X193293Y165353D01*
G37*
%LPD*%
%LPC*%
G36*
X969263Y366013D02*
X969263Y366013D01*
X969263Y370841D01*
X975694Y370841D01*
X976341Y370668D01*
X976920Y370333D01*
X977393Y369860D01*
X977728Y369281D01*
X977901Y368634D01*
X977901Y366013D01*
X969263Y366013D01*
G37*
%LPD*%
%LPC*%
G36*
X82803Y292353D02*
X82803Y292353D01*
X82803Y297181D01*
X89234Y297181D01*
X89881Y297008D01*
X90460Y296673D01*
X90933Y296200D01*
X91268Y295621D01*
X91441Y294974D01*
X91441Y292353D01*
X82803Y292353D01*
G37*
%LPD*%
%LPC*%
G36*
X913383Y366013D02*
X913383Y366013D01*
X913383Y370841D01*
X919814Y370841D01*
X920461Y370668D01*
X921040Y370333D01*
X921513Y369860D01*
X921848Y369281D01*
X922021Y368634D01*
X922021Y366013D01*
X913383Y366013D01*
G37*
%LPD*%
%LPC*%
G36*
X138683Y292353D02*
X138683Y292353D01*
X138683Y297181D01*
X145114Y297181D01*
X145761Y297008D01*
X146340Y296673D01*
X146813Y296200D01*
X147148Y295621D01*
X147321Y294974D01*
X147321Y292353D01*
X138683Y292353D01*
G37*
%LPD*%
%LPC*%
G36*
X863853Y250443D02*
X863853Y250443D01*
X863853Y255271D01*
X870284Y255271D01*
X870931Y255098D01*
X871510Y254763D01*
X871983Y254290D01*
X872318Y253711D01*
X872491Y253064D01*
X872491Y250443D01*
X863853Y250443D01*
G37*
%LPD*%
%LPC*%
G36*
X80263Y166623D02*
X80263Y166623D01*
X80263Y171451D01*
X86694Y171451D01*
X87341Y171278D01*
X87920Y170943D01*
X88393Y170470D01*
X88728Y169891D01*
X88901Y169244D01*
X88901Y166623D01*
X80263Y166623D01*
G37*
%LPD*%
%LPC*%
G36*
X919733Y250443D02*
X919733Y250443D01*
X919733Y255271D01*
X926164Y255271D01*
X926811Y255098D01*
X927390Y254763D01*
X927863Y254290D01*
X928198Y253711D01*
X928371Y253064D01*
X928371Y250443D01*
X919733Y250443D01*
G37*
%LPD*%
%LPC*%
G36*
X24383Y166623D02*
X24383Y166623D01*
X24383Y171451D01*
X30814Y171451D01*
X31461Y171278D01*
X32040Y170943D01*
X32513Y170470D01*
X32848Y169891D01*
X33021Y169244D01*
X33021Y166623D01*
X24383Y166623D01*
G37*
%LPD*%
%LPC*%
G36*
X80263Y312673D02*
X80263Y312673D01*
X80263Y317501D01*
X86694Y317501D01*
X87341Y317328D01*
X87920Y316993D01*
X88393Y316520D01*
X88728Y315941D01*
X88901Y315294D01*
X88901Y312673D01*
X80263Y312673D01*
G37*
%LPD*%
%LPC*%
G36*
X24383Y312673D02*
X24383Y312673D01*
X24383Y317501D01*
X30814Y317501D01*
X31461Y317328D01*
X32040Y316993D01*
X32513Y316520D01*
X32848Y315941D01*
X33021Y315294D01*
X33021Y312673D01*
X24383Y312673D01*
G37*
%LPD*%
%LPC*%
G36*
X863853Y127253D02*
X863853Y127253D01*
X863853Y132081D01*
X870284Y132081D01*
X870931Y131908D01*
X871510Y131573D01*
X871983Y131100D01*
X872318Y130521D01*
X872491Y129874D01*
X872491Y127253D01*
X863853Y127253D01*
G37*
%LPD*%
%LPC*%
G36*
X194563Y350773D02*
X194563Y350773D01*
X194563Y355601D01*
X200994Y355601D01*
X201641Y355428D01*
X202220Y355093D01*
X202693Y354620D01*
X203028Y354041D01*
X203201Y353394D01*
X203201Y350773D01*
X194563Y350773D01*
G37*
%LPD*%
%LPC*%
G36*
X852169Y127253D02*
X852169Y127253D01*
X852169Y129874D01*
X852342Y130521D01*
X852677Y131100D01*
X853150Y131573D01*
X853729Y131908D01*
X854376Y132081D01*
X860807Y132081D01*
X860807Y127253D01*
X852169Y127253D01*
G37*
%LPD*%
%LPC*%
G36*
X68579Y312673D02*
X68579Y312673D01*
X68579Y315294D01*
X68752Y315941D01*
X69087Y316520D01*
X69560Y316993D01*
X70139Y317328D01*
X70786Y317501D01*
X77217Y317501D01*
X77217Y312673D01*
X68579Y312673D01*
G37*
%LPD*%
%LPC*%
G36*
X69849Y369823D02*
X69849Y369823D01*
X69849Y372444D01*
X70022Y373091D01*
X70357Y373670D01*
X70830Y374143D01*
X71409Y374478D01*
X72056Y374651D01*
X78487Y374651D01*
X78487Y369823D01*
X69849Y369823D01*
G37*
%LPD*%
%LPC*%
G36*
X957579Y366013D02*
X957579Y366013D01*
X957579Y368634D01*
X957752Y369281D01*
X958087Y369860D01*
X958560Y370333D01*
X959139Y370668D01*
X959786Y370841D01*
X966217Y370841D01*
X966217Y366013D01*
X957579Y366013D01*
G37*
%LPD*%
%LPC*%
G36*
X901699Y366013D02*
X901699Y366013D01*
X901699Y368634D01*
X901872Y369281D01*
X902207Y369860D01*
X902680Y370333D01*
X903259Y370668D01*
X903906Y370841D01*
X910337Y370841D01*
X910337Y366013D01*
X901699Y366013D01*
G37*
%LPD*%
%LPC*%
G36*
X182879Y350773D02*
X182879Y350773D01*
X182879Y353394D01*
X183052Y354041D01*
X183387Y354620D01*
X183860Y355093D01*
X184439Y355428D01*
X185086Y355601D01*
X191517Y355601D01*
X191517Y350773D01*
X182879Y350773D01*
G37*
%LPD*%
%LPC*%
G36*
X908049Y250443D02*
X908049Y250443D01*
X908049Y253064D01*
X908222Y253711D01*
X908557Y254290D01*
X909030Y254763D01*
X909609Y255098D01*
X910256Y255271D01*
X916687Y255271D01*
X916687Y250443D01*
X908049Y250443D01*
G37*
%LPD*%
%LPC*%
G36*
X71119Y292353D02*
X71119Y292353D01*
X71119Y294974D01*
X71292Y295621D01*
X71627Y296200D01*
X72100Y296673D01*
X72679Y297008D01*
X73326Y297181D01*
X79757Y297181D01*
X79757Y292353D01*
X71119Y292353D01*
G37*
%LPD*%
%LPC*%
G36*
X68579Y166623D02*
X68579Y166623D01*
X68579Y169244D01*
X68752Y169891D01*
X69087Y170470D01*
X69560Y170943D01*
X70139Y171278D01*
X70786Y171451D01*
X77217Y171451D01*
X77217Y166623D01*
X68579Y166623D01*
G37*
%LPD*%
%LPC*%
G36*
X852169Y250443D02*
X852169Y250443D01*
X852169Y253064D01*
X852342Y253711D01*
X852677Y254290D01*
X853150Y254763D01*
X853729Y255098D01*
X854376Y255271D01*
X860807Y255271D01*
X860807Y250443D01*
X852169Y250443D01*
G37*
%LPD*%
%LPC*%
G36*
X181609Y165353D02*
X181609Y165353D01*
X181609Y167974D01*
X181782Y168621D01*
X182117Y169200D01*
X182590Y169673D01*
X183169Y170008D01*
X183816Y170181D01*
X190247Y170181D01*
X190247Y165353D01*
X181609Y165353D01*
G37*
%LPD*%
%LPC*%
G36*
X125729Y165353D02*
X125729Y165353D01*
X125729Y167974D01*
X125902Y168621D01*
X126237Y169200D01*
X126710Y169673D01*
X127289Y170008D01*
X127936Y170181D01*
X134367Y170181D01*
X134367Y165353D01*
X125729Y165353D01*
G37*
%LPD*%
%LPC*%
G36*
X908049Y127253D02*
X908049Y127253D01*
X908049Y129874D01*
X908222Y130521D01*
X908557Y131100D01*
X909030Y131573D01*
X909609Y131908D01*
X910256Y132081D01*
X916687Y132081D01*
X916687Y127253D01*
X908049Y127253D01*
G37*
%LPD*%
%LPC*%
G36*
X126999Y350773D02*
X126999Y350773D01*
X126999Y353394D01*
X127172Y354041D01*
X127507Y354620D01*
X127980Y355093D01*
X128559Y355428D01*
X129206Y355601D01*
X135637Y355601D01*
X135637Y350773D01*
X126999Y350773D01*
G37*
%LPD*%
%LPC*%
G36*
X969263Y358139D02*
X969263Y358139D01*
X969263Y362967D01*
X977901Y362967D01*
X977901Y360345D01*
X977728Y359699D01*
X977393Y359120D01*
X976920Y358647D01*
X976341Y358312D01*
X975694Y358139D01*
X969263Y358139D01*
G37*
%LPD*%
%LPC*%
G36*
X913383Y358139D02*
X913383Y358139D01*
X913383Y362967D01*
X922021Y362967D01*
X922021Y360345D01*
X921848Y359699D01*
X921513Y359120D01*
X921040Y358647D01*
X920461Y358312D01*
X919814Y358139D01*
X913383Y358139D01*
G37*
%LPD*%
%LPC*%
G36*
X24383Y158749D02*
X24383Y158749D01*
X24383Y163577D01*
X33021Y163577D01*
X33021Y160955D01*
X32848Y160309D01*
X32513Y159730D01*
X32040Y159257D01*
X31461Y158922D01*
X30814Y158749D01*
X24383Y158749D01*
G37*
%LPD*%
%LPC*%
G36*
X24383Y304799D02*
X24383Y304799D01*
X24383Y309627D01*
X33021Y309627D01*
X33021Y307005D01*
X32848Y306359D01*
X32513Y305780D01*
X32040Y305307D01*
X31461Y304972D01*
X30814Y304799D01*
X24383Y304799D01*
G37*
%LPD*%
%LPC*%
G36*
X138683Y342899D02*
X138683Y342899D01*
X138683Y347727D01*
X147321Y347727D01*
X147321Y345105D01*
X147148Y344459D01*
X146813Y343880D01*
X146340Y343407D01*
X145761Y343072D01*
X145114Y342899D01*
X138683Y342899D01*
G37*
%LPD*%
%LPC*%
G36*
X137413Y361949D02*
X137413Y361949D01*
X137413Y366777D01*
X146051Y366777D01*
X146051Y364155D01*
X145878Y363509D01*
X145543Y362930D01*
X145070Y362457D01*
X144491Y362122D01*
X143844Y361949D01*
X137413Y361949D01*
G37*
%LPD*%
%LPC*%
G36*
X863853Y119379D02*
X863853Y119379D01*
X863853Y124207D01*
X872491Y124207D01*
X872491Y121585D01*
X872318Y120939D01*
X871983Y120360D01*
X871510Y119887D01*
X870931Y119552D01*
X870284Y119379D01*
X863853Y119379D01*
G37*
%LPD*%
%LPC*%
G36*
X919733Y242569D02*
X919733Y242569D01*
X919733Y247397D01*
X928371Y247397D01*
X928371Y244775D01*
X928198Y244129D01*
X927863Y243550D01*
X927390Y243077D01*
X926811Y242742D01*
X926164Y242569D01*
X919733Y242569D01*
G37*
%LPD*%
%LPC*%
G36*
X80263Y304799D02*
X80263Y304799D01*
X80263Y309627D01*
X88901Y309627D01*
X88901Y307005D01*
X88728Y306359D01*
X88393Y305780D01*
X87920Y305307D01*
X87341Y304972D01*
X86694Y304799D01*
X80263Y304799D01*
G37*
%LPD*%
%LPC*%
G36*
X80263Y158749D02*
X80263Y158749D01*
X80263Y163577D01*
X88901Y163577D01*
X88901Y160955D01*
X88728Y160309D01*
X88393Y159730D01*
X87920Y159257D01*
X87341Y158922D01*
X86694Y158749D01*
X80263Y158749D01*
G37*
%LPD*%
%LPC*%
G36*
X137413Y157479D02*
X137413Y157479D01*
X137413Y162307D01*
X146051Y162307D01*
X146051Y159685D01*
X145878Y159039D01*
X145543Y158460D01*
X145070Y157987D01*
X144491Y157652D01*
X143844Y157479D01*
X137413Y157479D01*
G37*
%LPD*%
%LPC*%
G36*
X82803Y284479D02*
X82803Y284479D01*
X82803Y289307D01*
X91441Y289307D01*
X91441Y286685D01*
X91268Y286039D01*
X90933Y285460D01*
X90460Y284987D01*
X89881Y284652D01*
X89234Y284479D01*
X82803Y284479D01*
G37*
%LPD*%
%LPC*%
G36*
X138683Y284479D02*
X138683Y284479D01*
X138683Y289307D01*
X147321Y289307D01*
X147321Y286685D01*
X147148Y286039D01*
X146813Y285460D01*
X146340Y284987D01*
X145761Y284652D01*
X145114Y284479D01*
X138683Y284479D01*
G37*
%LPD*%
%LPC*%
G36*
X193293Y157479D02*
X193293Y157479D01*
X193293Y162307D01*
X201931Y162307D01*
X201931Y159685D01*
X201758Y159039D01*
X201423Y158460D01*
X200950Y157987D01*
X200371Y157652D01*
X199724Y157479D01*
X193293Y157479D01*
G37*
%LPD*%
%LPC*%
G36*
X919733Y119379D02*
X919733Y119379D01*
X919733Y124207D01*
X928371Y124207D01*
X928371Y121585D01*
X928198Y120939D01*
X927863Y120360D01*
X927390Y119887D01*
X926811Y119552D01*
X926164Y119379D01*
X919733Y119379D01*
G37*
%LPD*%
%LPC*%
G36*
X863853Y242569D02*
X863853Y242569D01*
X863853Y247397D01*
X872491Y247397D01*
X872491Y244775D01*
X872318Y244129D01*
X871983Y243550D01*
X871510Y243077D01*
X870931Y242742D01*
X870284Y242569D01*
X863853Y242569D01*
G37*
%LPD*%
%LPC*%
G36*
X194563Y342899D02*
X194563Y342899D01*
X194563Y347727D01*
X203201Y347727D01*
X203201Y345105D01*
X203028Y344459D01*
X202693Y343880D01*
X202220Y343407D01*
X201641Y343072D01*
X200994Y342899D01*
X194563Y342899D01*
G37*
%LPD*%
%LPC*%
G36*
X903906Y358139D02*
X903906Y358139D01*
X903259Y358312D01*
X902680Y358647D01*
X902207Y359120D01*
X901872Y359699D01*
X901699Y360345D01*
X901699Y362967D01*
X910337Y362967D01*
X910337Y358139D01*
X903906Y358139D01*
G37*
%LPD*%
%LPC*%
G36*
X959786Y358139D02*
X959786Y358139D01*
X959139Y358312D01*
X958560Y358647D01*
X958087Y359120D01*
X957752Y359699D01*
X957579Y360345D01*
X957579Y362967D01*
X966217Y362967D01*
X966217Y358139D01*
X959786Y358139D01*
G37*
%LPD*%
%LPC*%
G36*
X183816Y157479D02*
X183816Y157479D01*
X183169Y157652D01*
X182590Y157987D01*
X182117Y158460D01*
X181782Y159039D01*
X181609Y159686D01*
X181609Y162307D01*
X190247Y162307D01*
X190247Y157479D01*
X183816Y157479D01*
G37*
%LPD*%
%LPC*%
G36*
X854376Y242569D02*
X854376Y242569D01*
X853729Y242742D01*
X853150Y243077D01*
X852677Y243550D01*
X852342Y244129D01*
X852169Y244776D01*
X852169Y247397D01*
X860807Y247397D01*
X860807Y242569D01*
X854376Y242569D01*
G37*
%LPD*%
%LPC*%
G36*
X127936Y157479D02*
X127936Y157479D01*
X127289Y157652D01*
X126710Y157987D01*
X126237Y158460D01*
X125902Y159039D01*
X125729Y159686D01*
X125729Y162307D01*
X134367Y162307D01*
X134367Y157479D01*
X127936Y157479D01*
G37*
%LPD*%
%LPC*%
G36*
X73326Y284479D02*
X73326Y284479D01*
X72679Y284652D01*
X72100Y284987D01*
X71627Y285460D01*
X71292Y286039D01*
X71119Y286686D01*
X71119Y289307D01*
X79757Y289307D01*
X79757Y284479D01*
X73326Y284479D01*
G37*
%LPD*%
%LPC*%
G36*
X910256Y119379D02*
X910256Y119379D01*
X909609Y119552D01*
X909030Y119887D01*
X908557Y120360D01*
X908222Y120939D01*
X908049Y121586D01*
X908049Y124207D01*
X916687Y124207D01*
X916687Y119379D01*
X910256Y119379D01*
G37*
%LPD*%
%LPC*%
G36*
X70786Y158749D02*
X70786Y158749D01*
X70139Y158922D01*
X69560Y159257D01*
X69087Y159730D01*
X68752Y160309D01*
X68579Y160956D01*
X68579Y163577D01*
X77217Y163577D01*
X77217Y158749D01*
X70786Y158749D01*
G37*
%LPD*%
%LPC*%
G36*
X854376Y119379D02*
X854376Y119379D01*
X853729Y119552D01*
X853150Y119887D01*
X852677Y120360D01*
X852342Y120939D01*
X852169Y121586D01*
X852169Y124207D01*
X860807Y124207D01*
X860807Y119379D01*
X854376Y119379D01*
G37*
%LPD*%
%LPC*%
G36*
X185086Y342899D02*
X185086Y342899D01*
X184439Y343072D01*
X183860Y343407D01*
X183387Y343880D01*
X183052Y344459D01*
X182879Y345106D01*
X182879Y347727D01*
X191517Y347727D01*
X191517Y342899D01*
X185086Y342899D01*
G37*
%LPD*%
%LPC*%
G36*
X72056Y361949D02*
X72056Y361949D01*
X71409Y362122D01*
X70830Y362457D01*
X70357Y362930D01*
X70022Y363509D01*
X69849Y364156D01*
X69849Y366777D01*
X78487Y366777D01*
X78487Y361949D01*
X72056Y361949D01*
G37*
%LPD*%
%LPC*%
G36*
X129206Y342899D02*
X129206Y342899D01*
X128559Y343072D01*
X127980Y343407D01*
X127507Y343880D01*
X127172Y344459D01*
X126999Y345106D01*
X126999Y347727D01*
X135637Y347727D01*
X135637Y342899D01*
X129206Y342899D01*
G37*
%LPD*%
%LPC*%
G36*
X910256Y242569D02*
X910256Y242569D01*
X909609Y242742D01*
X909030Y243077D01*
X908557Y243550D01*
X908222Y244129D01*
X908049Y244776D01*
X908049Y247397D01*
X916687Y247397D01*
X916687Y242569D01*
X910256Y242569D01*
G37*
%LPD*%
%LPC*%
G36*
X70786Y304799D02*
X70786Y304799D01*
X70139Y304972D01*
X69560Y305307D01*
X69087Y305780D01*
X68752Y306359D01*
X68579Y307006D01*
X68579Y309627D01*
X77217Y309627D01*
X77217Y304799D01*
X70786Y304799D01*
G37*
%LPD*%
%LPC*%
G36*
X547569Y26923D02*
X547569Y26923D01*
X547569Y29432D01*
X547845Y30460D01*
X548377Y31381D01*
X549129Y32133D01*
X550050Y32665D01*
X551078Y32941D01*
X553587Y32941D01*
X553587Y26923D01*
X547569Y26923D01*
G37*
%LPD*%
%LPC*%
G36*
X556633Y17859D02*
X556633Y17859D01*
X556633Y23877D01*
X562651Y23877D01*
X562651Y21368D01*
X562375Y20340D01*
X561843Y19419D01*
X561091Y18667D01*
X560170Y18135D01*
X559142Y17859D01*
X556633Y17859D01*
G37*
%LPD*%
%LPC*%
G36*
X551078Y17859D02*
X551078Y17859D01*
X550050Y18135D01*
X549129Y18667D01*
X548377Y19419D01*
X547845Y20340D01*
X547569Y21368D01*
X547569Y23877D01*
X553587Y23877D01*
X553587Y17859D01*
X551078Y17859D01*
G37*
%LPD*%
%LPC*%
G36*
X852169Y36829D02*
X852169Y36829D01*
X852169Y36831D01*
X852171Y36831D01*
X852171Y36829D01*
X852169Y36829D01*
G37*
%LPD*%
%LPC*%
G36*
X139299Y457199D02*
X139299Y457199D01*
X139299Y457201D01*
X139301Y457201D01*
X139301Y457199D01*
X139299Y457199D01*
G37*
%LPD*%
%LPC*%
G36*
X913999Y457199D02*
X913999Y457199D01*
X913999Y457201D01*
X914001Y457201D01*
X914001Y457199D01*
X913999Y457199D01*
G37*
%LPD*%
%LPC*%
G36*
X78739Y165099D02*
X78739Y165099D01*
X78739Y165101D01*
X78741Y165101D01*
X78741Y165099D01*
X78739Y165099D01*
G37*
%LPD*%
%LPC*%
G36*
X81279Y290829D02*
X81279Y290829D01*
X81279Y290831D01*
X81281Y290831D01*
X81281Y290829D01*
X81279Y290829D01*
G37*
%LPD*%
%LPC*%
G36*
X967739Y364489D02*
X967739Y364489D01*
X967739Y364491D01*
X967741Y364491D01*
X967741Y364489D01*
X967739Y364489D01*
G37*
%LPD*%
%LPC*%
G36*
X862329Y125729D02*
X862329Y125729D01*
X862329Y125731D01*
X862331Y125731D01*
X862331Y125729D01*
X862329Y125729D01*
G37*
%LPD*%
%LPC*%
G36*
X918209Y125729D02*
X918209Y125729D01*
X918209Y125731D01*
X918211Y125731D01*
X918211Y125729D01*
X918209Y125729D01*
G37*
%LPD*%
%LPC*%
G36*
X918209Y248919D02*
X918209Y248919D01*
X918209Y248921D01*
X918211Y248921D01*
X918211Y248919D01*
X918209Y248919D01*
G37*
%LPD*%
%LPC*%
G36*
X137159Y349249D02*
X137159Y349249D01*
X137159Y349251D01*
X137161Y349251D01*
X137161Y349249D01*
X137159Y349249D01*
G37*
%LPD*%
%LPC*%
G36*
X78739Y311149D02*
X78739Y311149D01*
X78739Y311151D01*
X78741Y311151D01*
X78741Y311149D01*
X78739Y311149D01*
G37*
%LPD*%
%LPC*%
G36*
X193039Y349249D02*
X193039Y349249D01*
X193039Y349251D01*
X193041Y349251D01*
X193041Y349249D01*
X193039Y349249D01*
G37*
%LPD*%
%LPC*%
G36*
X911859Y364489D02*
X911859Y364489D01*
X911859Y364491D01*
X911861Y364491D01*
X911861Y364489D01*
X911859Y364489D01*
G37*
%LPD*%
%LPC*%
G36*
X191769Y163829D02*
X191769Y163829D01*
X191769Y163831D01*
X191771Y163831D01*
X191771Y163829D01*
X191769Y163829D01*
G37*
%LPD*%
%LPC*%
G36*
X555109Y25399D02*
X555109Y25399D01*
X555109Y25401D01*
X555111Y25401D01*
X555111Y25399D01*
X555109Y25399D01*
G37*
%LPD*%
%LPC*%
G36*
X135889Y163829D02*
X135889Y163829D01*
X135889Y163831D01*
X135891Y163831D01*
X135891Y163829D01*
X135889Y163829D01*
G37*
%LPD*%
%LPC*%
G36*
X862329Y248919D02*
X862329Y248919D01*
X862329Y248921D01*
X862331Y248921D01*
X862331Y248919D01*
X862329Y248919D01*
G37*
%LPD*%
D10*
X649620Y256350D03*
X649620Y264350D03*
X649620Y248350D03*
X649620Y240350D03*
X649620Y232350D03*
X649620Y224350D03*
X649620Y216350D03*
X649620Y208350D03*
X649620Y272350D03*
X649620Y280350D03*
X649620Y288350D03*
X649620Y296350D03*
X649620Y304350D03*
X649620Y312350D03*
X649620Y200350D03*
X649620Y192350D03*
X649620Y320350D03*
X649620Y328350D03*
D11*
X135890Y368300D03*
X80010Y368300D03*
X135890Y406400D03*
X80010Y406400D03*
X81280Y290830D03*
X137160Y290830D03*
X81280Y252730D03*
X137160Y252730D03*
X78740Y311150D03*
X22860Y311150D03*
X78740Y349250D03*
X22860Y349250D03*
X137160Y349250D03*
X193040Y349250D03*
X137160Y311150D03*
X193040Y311150D03*
X135890Y163830D03*
X191770Y163830D03*
X135890Y125730D03*
X191770Y125730D03*
X22860Y165100D03*
X78740Y165100D03*
X22860Y127000D03*
X78740Y127000D03*
X918210Y248920D03*
X862330Y248920D03*
X918210Y287020D03*
X862330Y287020D03*
X967740Y364490D03*
X911860Y364490D03*
X967740Y402590D03*
X911860Y402590D03*
X862330Y163830D03*
X918210Y163830D03*
X862330Y125730D03*
X918210Y125730D03*
D12*
X30480Y30480D03*
X30480Y468630D03*
X969010Y468630D03*
X969010Y30480D03*
D13*
X852170Y36830D03*
X877170Y86830D03*
X902170Y86830D03*
X827170Y86830D03*
X802170Y86830D03*
D14*
X79300Y432200D03*
X149300Y432200D03*
D15*
X89300Y457200D03*
X139300Y457200D03*
D14*
X854000Y432200D03*
X924000Y432200D03*
D15*
X864000Y457200D03*
X914000Y457200D03*
D16*
X558610Y28900D02*
X558610Y21900D01*
X551610Y21900D01*
X551610Y28900D01*
X558610Y28900D01*
X558610Y24750D02*
X551610Y24750D01*
X551610Y27600D02*
X558610Y27600D01*
X576150Y28900D02*
X576150Y21900D01*
X569150Y21900D01*
X569150Y28900D01*
X576150Y28900D01*
X576150Y24750D02*
X569150Y24750D01*
X569150Y27600D02*
X576150Y27600D01*
D17*
X952500Y251300D03*
D18*
X952500Y231300D03*
D19*
X320548Y187960D02*
X307086Y201422D01*
X293624Y201422D01*
X293624Y240792D01*
X396240Y351536D02*
X396240Y365760D01*
X672592Y264160D02*
X682752Y274320D01*
X699516Y291084D01*
X672592Y264160D02*
X650240Y264160D01*
X649620Y264350D01*
X650240Y263144D02*
X650240Y257048D01*
X649620Y256350D01*
X650240Y263144D02*
X649620Y264350D01*
X621792Y389636D02*
X611632Y399796D01*
X566166Y399796D01*
X565404Y399034D01*
X682752Y274320D02*
X705612Y251460D01*
X450850Y366776D02*
X397256Y366776D01*
X396240Y365760D01*
D20*
X320548Y187960D03*
X293624Y240792D03*
X396240Y365760D03*
X396240Y351536D03*
X699516Y291084D03*
X565404Y399034D03*
X621792Y389636D03*
X705612Y251460D03*
X450850Y366776D03*
D19*
X341376Y166624D02*
X341376Y146304D01*
X341376Y166624D02*
X321056Y186944D01*
X320548Y187960D01*
D20*
X341376Y146304D03*
D21*
X408940Y248920D02*
X467360Y307340D01*
X408940Y248920D02*
X396240Y248920D01*
X629920Y200152D02*
X649224Y200152D01*
X629920Y200152D02*
X628904Y201168D01*
X595376Y201168D01*
X489204Y307340D01*
X467360Y307340D01*
X649224Y200152D02*
X649620Y200350D01*
D20*
X396240Y248920D03*
X467360Y307340D03*
D21*
X650240Y372872D02*
X692912Y372872D01*
X650240Y372872D02*
X608584Y331216D01*
X608584Y267462D01*
X627126Y248920D01*
X649224Y248920D01*
X649620Y248350D01*
D20*
X692912Y372872D03*
X693420Y229870D03*
X165100Y292100D03*
X259080Y213360D03*
X318770Y208280D03*
X292100Y393700D03*
X508000Y139700D03*
X558800Y355600D03*
X889000Y317500D03*
X698500Y127000D03*
X872490Y196850D03*
X125730Y335280D03*
X438150Y218440D03*
X165100Y254000D03*
X292100Y330200D03*
X558800Y152400D03*
X353060Y210820D03*
D21*
X387604Y320802D02*
X414274Y347472D01*
X471424Y347472D02*
X472694Y346202D01*
X471424Y347472D02*
X414274Y347472D01*
X387604Y320802D02*
X360172Y320802D01*
X352552Y313182D01*
D20*
X472694Y346202D03*
X352552Y313182D03*
D21*
X136144Y135128D02*
X136144Y125984D01*
X135890Y125730D01*
D20*
X136144Y135128D03*
X304800Y254000D03*
D21*
X292100Y254000D01*
X279400Y241300D01*
X279400Y228600D01*
D20*
X279400Y228600D03*
D21*
X285496Y191008D02*
X330200Y146304D01*
D20*
X285496Y191008D03*
X330200Y146304D03*
D21*
X451358Y331216D02*
X508762Y331216D01*
X451358Y331216D02*
X443992Y323850D01*
X508762Y331216D02*
X613410Y226568D01*
X626872Y226568D01*
X628904Y224536D01*
X649224Y224536D01*
X649620Y224350D01*
D20*
X443992Y323850D03*
D21*
X623824Y219456D02*
X626872Y216408D01*
X649224Y216408D01*
X649620Y216350D01*
D20*
X623824Y219456D03*
X506984Y183896D03*
D21*
X326136Y140208D02*
X300736Y140208D01*
X326136Y140208D02*
X327152Y139192D01*
X462280Y139192D01*
X506984Y183896D01*
D20*
X300736Y140208D03*
D21*
X432816Y323596D02*
X432816Y330454D01*
X432816Y323596D02*
X439674Y316738D01*
X447548Y316738D01*
X457962Y327152D01*
X505968Y327152D01*
X624840Y208280D01*
X649224Y208280D01*
X649620Y208350D01*
D20*
X432816Y330454D03*
D21*
X442976Y237744D02*
X496824Y183896D01*
X442976Y237744D02*
X391160Y237744D01*
X331724Y297180D01*
X331724Y323596D01*
X358648Y350520D01*
X359664Y350520D02*
X394208Y385064D01*
X359664Y350520D02*
X358648Y350520D01*
D20*
X496824Y183896D03*
X358648Y350520D03*
X394208Y385064D03*
D21*
X572008Y289560D02*
X572008Y285157D01*
X624501Y232664D01*
X649224Y232664D01*
X649620Y232350D01*
D20*
X572008Y289560D03*
D21*
X859536Y336296D02*
X860552Y337312D01*
X859536Y336296D02*
X626872Y336296D01*
X622808Y332232D01*
X622808Y329184D01*
D20*
X860552Y337312D03*
X622808Y329184D03*
D21*
X457200Y153416D02*
X423926Y153416D01*
X457200Y153416D02*
X460248Y156464D01*
X495300Y279146D02*
X482600Y291846D01*
X495300Y279146D02*
X495300Y261112D01*
X491490Y352298D02*
X491490Y360680D01*
X491490Y352298D02*
X487680Y348488D01*
X491490Y360680D02*
X473710Y378460D01*
X398780Y378460D01*
X396240Y375920D01*
D20*
X423926Y153416D03*
X460248Y156464D03*
X495300Y261112D03*
X482600Y291846D03*
X487680Y348488D03*
X396240Y375920D03*
D21*
X853440Y340360D02*
X860552Y347472D01*
X853440Y340360D02*
X623824Y340360D01*
X615696Y332232D01*
X615696Y316992D01*
D20*
X860552Y347472D03*
X615696Y316992D03*
D21*
X623824Y281432D02*
X624840Y280416D01*
X649224Y280416D01*
X649620Y280350D01*
X650240Y279400D02*
X650240Y273304D01*
X649620Y272350D01*
X650240Y279400D02*
X649620Y280350D01*
X650240Y281432D02*
X650240Y287528D01*
X649620Y288350D01*
X650240Y281432D02*
X649620Y280350D01*
X649224Y289560D02*
X649224Y295656D01*
X649620Y296350D01*
X649224Y289560D02*
X649620Y288350D01*
D20*
X623824Y281432D03*
X340360Y87630D03*
D21*
X349250Y96520D01*
X349250Y107950D01*
D20*
X349250Y107950D03*
D21*
X335280Y107442D02*
X335280Y106172D01*
X328930Y99822D01*
X328930Y87122D01*
D20*
X335280Y107442D03*
X328930Y87122D03*
D21*
X328168Y73152D02*
X359664Y73152D01*
X328168Y73152D02*
X324358Y69342D01*
X359664Y73152D02*
X373888Y58928D01*
D20*
X324358Y69342D03*
X373888Y58928D03*
D22*
X411988Y192278D02*
X317754Y286512D01*
X242316Y286512D01*
D20*
X450088Y192278D03*
X242316Y286512D03*
D22*
X411988Y192278D02*
X450088Y192278D01*
D21*
X200152Y406400D02*
X135890Y406400D01*
X200152Y406400D02*
X205232Y411480D01*
D20*
X205232Y411480D03*
D21*
X122936Y274066D02*
X101600Y252730D01*
X81280Y252730D01*
X122936Y274066D02*
X122936Y312928D01*
X222504Y412496D01*
D20*
X222504Y412496D03*
D21*
X102616Y349504D02*
X79248Y349504D01*
X102616Y349504D02*
X121920Y368808D01*
X121920Y375920D01*
X142240Y396240D01*
X200152Y396240D01*
X215392Y411480D01*
X215392Y415544D01*
X233680Y433832D01*
X335280Y433832D01*
X79248Y349504D02*
X78740Y349250D01*
D20*
X335280Y433832D03*
D21*
X173736Y311912D02*
X137160Y311912D01*
X173736Y311912D02*
X200152Y338328D01*
X273304Y338328D01*
X353568Y418592D01*
X137160Y311912D02*
X137160Y311150D01*
D20*
X353568Y418592D03*
D21*
X91753Y145601D02*
X41461Y145601D01*
X22860Y127000D01*
X91753Y145601D02*
X250698Y304546D01*
X250698Y312166D01*
D20*
X250698Y312166D03*
D21*
X918464Y299720D02*
X918464Y287528D01*
X918464Y299720D02*
X835660Y382524D01*
X411226Y382524D01*
X397510Y396240D01*
X390144Y396240D01*
X378968Y385064D01*
X378968Y383032D01*
X374904Y378968D01*
X368808Y378968D01*
X361696Y386080D01*
X918210Y287020D02*
X918464Y287528D01*
D20*
X361696Y386080D03*
D21*
X931672Y403352D02*
X967232Y403352D01*
X931672Y403352D02*
X922528Y412496D01*
X398272Y412496D01*
X371856Y386080D01*
X967232Y403352D02*
X967740Y402590D01*
D20*
X371856Y386080D03*
D21*
X862584Y226568D02*
X862584Y164592D01*
X862584Y226568D02*
X837184Y251968D01*
X837184Y325120D01*
X833120Y329184D01*
X685038Y329184D01*
X675640Y319786D01*
X862584Y164592D02*
X862330Y163830D01*
D20*
X675640Y319786D03*
D21*
X830072Y322072D02*
X830072Y306832D01*
X682498Y159258D01*
X568452Y159258D01*
X485902Y241808D01*
X393192Y241808D01*
X389128Y245872D01*
X389128Y264160D01*
D20*
X830072Y322072D03*
X389128Y264160D03*
D21*
X900176Y290576D02*
X900176Y305816D01*
D20*
X900176Y305816D03*
X900176Y290576D03*
D21*
X224282Y467614D02*
X218440Y473456D01*
X108712Y473456D01*
X92456Y457200D01*
X89300Y457200D01*
X475996Y357124D02*
X478536Y359664D01*
X475996Y357124D02*
X411988Y357124D01*
X396748Y341884D01*
X364236Y341884D01*
X351536Y329184D01*
D20*
X224282Y467614D03*
X478536Y359664D03*
X351536Y329184D03*
D21*
X560070Y326390D02*
X560070Y302768D01*
X560070Y326390D02*
X568198Y326390D01*
D20*
X560070Y302768D03*
X568198Y326390D03*
D21*
X536448Y254000D02*
X468376Y254000D01*
X536448Y254000D02*
X607568Y182880D01*
X680720Y182880D01*
D20*
X468376Y254000D03*
X680720Y182880D03*
D21*
X516128Y290576D02*
X516128Y299212D01*
X516128Y290576D02*
X565912Y240792D01*
D20*
X516128Y299212D03*
X565912Y240792D03*
D21*
X540512Y119888D02*
X540512Y105664D01*
D20*
X540512Y105664D03*
X540512Y119888D03*
D21*
X572008Y29464D02*
X572008Y25400D01*
X572008Y29464D02*
X565912Y35560D01*
X572008Y25400D02*
X572650Y25400D01*
D20*
X565912Y35560D03*
D19*
X94488Y364744D02*
X94488Y385064D01*
X94488Y364744D02*
X95504Y363728D01*
X505714Y58674D02*
X543814Y58674D01*
X559816Y42672D01*
X486918Y77470D02*
X291338Y77470D01*
X486918Y77470D02*
X505714Y58674D01*
D20*
X94488Y385064D03*
X95504Y363728D03*
X114808Y371856D03*
X505714Y58674D03*
X559816Y42672D03*
X291338Y77470D03*
D19*
X114808Y369062D02*
X114808Y371856D01*
X109474Y363728D02*
X95504Y363728D01*
X109474Y363728D02*
X114808Y369062D01*
M02*
