G04 EAGLE Gerber RS-274X export*
G75*
%MOMM*%
%FSLAX34Y34*%
%LPD*%
%IN*%
%IPPOS*%
%AMOC8*
5,1,8,0,0,1.08239X$1,22.5*%
G01*
%ADD10C,0.254000*%


D10*
X0Y30000D02*
X114Y27385D01*
X456Y24791D01*
X1022Y22235D01*
X1809Y19739D01*
X2811Y17321D01*
X4019Y15000D01*
X5425Y12793D01*
X7019Y10716D01*
X8787Y8787D01*
X10716Y7019D01*
X12793Y5425D01*
X15000Y4019D01*
X17321Y2811D01*
X19739Y1809D01*
X22235Y1022D01*
X24791Y456D01*
X27385Y114D01*
X30000Y0D01*
X970000Y0D01*
X972615Y114D01*
X975210Y455D01*
X977765Y1021D01*
X980262Y1808D01*
X982680Y2809D01*
X985001Y4018D01*
X987209Y5424D01*
X989286Y7017D01*
X991216Y8785D01*
X992984Y10714D01*
X994578Y12790D01*
X995984Y14998D01*
X997193Y17319D01*
X998195Y19737D01*
X998983Y22233D01*
X999549Y24788D01*
X999891Y27383D01*
X1000000Y29410D01*
X1000000Y470590D01*
X999861Y473178D01*
X999498Y475744D01*
X998911Y478268D01*
X998108Y480732D01*
X997092Y483116D01*
X995873Y485403D01*
X994459Y487575D01*
X992861Y489615D01*
X991091Y491508D01*
X989163Y493240D01*
X987091Y494797D01*
X984892Y496168D01*
X982582Y497342D01*
X980178Y498309D01*
X977698Y499064D01*
X975163Y499600D01*
X972590Y499913D01*
X970000Y500000D01*
X30000Y500000D01*
X27385Y499886D01*
X24791Y499544D01*
X22235Y498978D01*
X19739Y498191D01*
X17321Y497189D01*
X15000Y495981D01*
X12793Y494575D01*
X10716Y492981D01*
X8787Y491213D01*
X7019Y489284D01*
X5425Y487207D01*
X4019Y485000D01*
X2811Y482679D01*
X1809Y480261D01*
X1022Y477765D01*
X456Y475209D01*
X114Y472615D01*
X0Y470000D01*
X0Y30000D01*
X474640Y21885D02*
X474563Y22470D01*
X474410Y23040D01*
X474185Y23585D01*
X473890Y24095D01*
X473531Y24563D01*
X473113Y24981D01*
X472645Y25340D01*
X472135Y25635D01*
X471590Y25860D01*
X471020Y26013D01*
X470435Y26090D01*
X469845Y26090D01*
X469260Y26013D01*
X468690Y25860D01*
X468145Y25635D01*
X467635Y25340D01*
X467167Y24981D01*
X466749Y24563D01*
X466390Y24095D01*
X466095Y23585D01*
X465870Y23040D01*
X465717Y22470D01*
X465640Y21885D01*
X465640Y21295D01*
X465717Y20710D01*
X465870Y20140D01*
X466095Y19595D01*
X466390Y19085D01*
X466749Y18617D01*
X467167Y18199D01*
X467635Y17840D01*
X468145Y17545D01*
X468690Y17320D01*
X469260Y17167D01*
X469845Y17090D01*
X470435Y17090D01*
X471020Y17167D01*
X471590Y17320D01*
X472135Y17545D01*
X472645Y17840D01*
X473113Y18199D01*
X473531Y18617D01*
X473890Y19085D01*
X474185Y19595D01*
X474410Y20140D01*
X474563Y20710D01*
X474640Y21295D01*
X474640Y21885D01*
X504640Y21885D02*
X504563Y22470D01*
X504410Y23040D01*
X504185Y23585D01*
X503890Y24095D01*
X503531Y24563D01*
X503113Y24981D01*
X502645Y25340D01*
X502135Y25635D01*
X501590Y25860D01*
X501020Y26013D01*
X500435Y26090D01*
X499845Y26090D01*
X499260Y26013D01*
X498690Y25860D01*
X498145Y25635D01*
X497635Y25340D01*
X497167Y24981D01*
X496749Y24563D01*
X496390Y24095D01*
X496095Y23585D01*
X495870Y23040D01*
X495717Y22470D01*
X495640Y21885D01*
X495640Y21295D01*
X495717Y20710D01*
X495870Y20140D01*
X496095Y19595D01*
X496390Y19085D01*
X496749Y18617D01*
X497167Y18199D01*
X497635Y17840D01*
X498145Y17545D01*
X498690Y17320D01*
X499260Y17167D01*
X499845Y17090D01*
X500435Y17090D01*
X501020Y17167D01*
X501590Y17320D01*
X502135Y17545D01*
X502645Y17840D01*
X503113Y18199D01*
X503531Y18617D01*
X503890Y19085D01*
X504185Y19595D01*
X504410Y20140D01*
X504563Y20710D01*
X504640Y21295D01*
X504640Y21885D01*
X901833Y42830D02*
X901163Y42755D01*
X900506Y42605D01*
X899870Y42382D01*
X899263Y42090D01*
X898693Y41731D01*
X898166Y41311D01*
X897689Y40834D01*
X897269Y40308D01*
X896910Y39737D01*
X896618Y39130D01*
X896395Y38494D01*
X896245Y37837D01*
X896170Y37167D01*
X896170Y36493D01*
X896245Y35823D01*
X896395Y35166D01*
X896618Y34530D01*
X896910Y33923D01*
X897269Y33353D01*
X897689Y32826D01*
X898166Y32349D01*
X898693Y31929D01*
X899263Y31570D01*
X899870Y31278D01*
X900506Y31055D01*
X901163Y30905D01*
X901833Y30830D01*
X902507Y30830D01*
X903177Y30905D01*
X903834Y31055D01*
X904470Y31278D01*
X905077Y31570D01*
X905648Y31929D01*
X906174Y32349D01*
X906651Y32826D01*
X907071Y33353D01*
X907430Y33923D01*
X907722Y34530D01*
X907945Y35166D01*
X908095Y35823D01*
X908170Y36493D01*
X908170Y37167D01*
X908095Y37837D01*
X907945Y38494D01*
X907722Y39130D01*
X907430Y39737D01*
X907071Y40308D01*
X906651Y40834D01*
X906174Y41311D01*
X905648Y41731D01*
X905077Y42090D01*
X904470Y42382D01*
X903834Y42605D01*
X903177Y42755D01*
X902507Y42830D01*
X901833Y42830D01*
X901833Y17830D02*
X901163Y17755D01*
X900506Y17605D01*
X899870Y17382D01*
X899263Y17090D01*
X898693Y16731D01*
X898166Y16311D01*
X897689Y15834D01*
X897269Y15308D01*
X896910Y14737D01*
X896618Y14130D01*
X896395Y13494D01*
X896245Y12837D01*
X896170Y12167D01*
X896170Y11493D01*
X896245Y10823D01*
X896395Y10166D01*
X896618Y9530D01*
X896910Y8923D01*
X897269Y8353D01*
X897689Y7826D01*
X898166Y7349D01*
X898693Y6929D01*
X899263Y6570D01*
X899870Y6278D01*
X900506Y6055D01*
X901163Y5905D01*
X901833Y5830D01*
X902507Y5830D01*
X903177Y5905D01*
X903834Y6055D01*
X904470Y6278D01*
X905077Y6570D01*
X905648Y6929D01*
X906174Y7349D01*
X906651Y7826D01*
X907071Y8353D01*
X907430Y8923D01*
X907722Y9530D01*
X907945Y10166D01*
X908095Y10823D01*
X908170Y11493D01*
X908170Y12167D01*
X908095Y12837D01*
X907945Y13494D01*
X907722Y14130D01*
X907430Y14737D01*
X907071Y15308D01*
X906651Y15834D01*
X906174Y16311D01*
X905648Y16731D01*
X905077Y17090D01*
X904470Y17382D01*
X903834Y17605D01*
X903177Y17755D01*
X902507Y17830D01*
X901833Y17830D01*
X801833Y17830D02*
X801163Y17755D01*
X800506Y17605D01*
X799870Y17382D01*
X799263Y17090D01*
X798693Y16731D01*
X798166Y16311D01*
X797689Y15834D01*
X797269Y15308D01*
X796910Y14737D01*
X796618Y14130D01*
X796395Y13494D01*
X796245Y12837D01*
X796170Y12167D01*
X796170Y11493D01*
X796245Y10823D01*
X796395Y10166D01*
X796618Y9530D01*
X796910Y8923D01*
X797269Y8353D01*
X797689Y7826D01*
X798166Y7349D01*
X798693Y6929D01*
X799263Y6570D01*
X799870Y6278D01*
X800506Y6055D01*
X801163Y5905D01*
X801833Y5830D01*
X802507Y5830D01*
X803177Y5905D01*
X803834Y6055D01*
X804470Y6278D01*
X805077Y6570D01*
X805648Y6929D01*
X806174Y7349D01*
X806651Y7826D01*
X807071Y8353D01*
X807430Y8923D01*
X807722Y9530D01*
X807945Y10166D01*
X808095Y10823D01*
X808170Y11493D01*
X808170Y12167D01*
X808095Y12837D01*
X807945Y13494D01*
X807722Y14130D01*
X807430Y14737D01*
X807071Y15308D01*
X806651Y15834D01*
X806174Y16311D01*
X805648Y16731D01*
X805077Y17090D01*
X804470Y17382D01*
X803834Y17605D01*
X803177Y17755D01*
X802507Y17830D01*
X801833Y17830D01*
X801833Y42830D02*
X801163Y42755D01*
X800506Y42605D01*
X799870Y42382D01*
X799263Y42090D01*
X798693Y41731D01*
X798166Y41311D01*
X797689Y40834D01*
X797269Y40308D01*
X796910Y39737D01*
X796618Y39130D01*
X796395Y38494D01*
X796245Y37837D01*
X796170Y37167D01*
X796170Y36493D01*
X796245Y35823D01*
X796395Y35166D01*
X796618Y34530D01*
X796910Y33923D01*
X797269Y33353D01*
X797689Y32826D01*
X798166Y32349D01*
X798693Y31929D01*
X799263Y31570D01*
X799870Y31278D01*
X800506Y31055D01*
X801163Y30905D01*
X801833Y30830D01*
X802507Y30830D01*
X803177Y30905D01*
X803834Y31055D01*
X804470Y31278D01*
X805077Y31570D01*
X805648Y31929D01*
X806174Y32349D01*
X806651Y32826D01*
X807071Y33353D01*
X807430Y33923D01*
X807722Y34530D01*
X807945Y35166D01*
X808095Y35823D01*
X808170Y36493D01*
X808170Y37167D01*
X808095Y37837D01*
X807945Y38494D01*
X807722Y39130D01*
X807430Y39737D01*
X807071Y40308D01*
X806651Y40834D01*
X806174Y41311D01*
X805648Y41731D01*
X805077Y42090D01*
X804470Y42382D01*
X803834Y42605D01*
X803177Y42755D01*
X802507Y42830D01*
X801833Y42830D01*
X851833Y92830D02*
X851163Y92755D01*
X850506Y92605D01*
X849870Y92382D01*
X849263Y92090D01*
X848693Y91731D01*
X848166Y91311D01*
X847689Y90834D01*
X847269Y90308D01*
X846910Y89737D01*
X846618Y89130D01*
X846395Y88494D01*
X846245Y87837D01*
X846170Y87167D01*
X846170Y86493D01*
X846245Y85823D01*
X846395Y85166D01*
X846618Y84530D01*
X846910Y83923D01*
X847269Y83353D01*
X847689Y82826D01*
X848166Y82349D01*
X848693Y81929D01*
X849263Y81570D01*
X849870Y81278D01*
X850506Y81055D01*
X851163Y80905D01*
X851833Y80830D01*
X852507Y80830D01*
X853177Y80905D01*
X853834Y81055D01*
X854470Y81278D01*
X855077Y81570D01*
X855648Y81929D01*
X856174Y82349D01*
X856651Y82826D01*
X857071Y83353D01*
X857430Y83923D01*
X857722Y84530D01*
X857945Y85166D01*
X858095Y85823D01*
X858170Y86493D01*
X858170Y87167D01*
X858095Y87837D01*
X857945Y88494D01*
X857722Y89130D01*
X857430Y89737D01*
X857071Y90308D01*
X856651Y90834D01*
X856174Y91311D01*
X855648Y91731D01*
X855077Y92090D01*
X854470Y92382D01*
X853834Y92605D01*
X853177Y92755D01*
X852507Y92830D01*
X851833Y92830D01*
X355271Y46570D02*
X354719Y46497D01*
X354181Y46353D01*
X353666Y46140D01*
X353184Y45861D01*
X352742Y45522D01*
X352348Y45128D01*
X352009Y44686D01*
X351730Y44204D01*
X351517Y43689D01*
X351373Y43151D01*
X351300Y42599D01*
X351300Y42041D01*
X351373Y41489D01*
X351517Y40951D01*
X351730Y40436D01*
X352009Y39954D01*
X352348Y39512D01*
X352742Y39118D01*
X353184Y38779D01*
X353666Y38500D01*
X354181Y38287D01*
X354719Y38143D01*
X355271Y38070D01*
X355829Y38070D01*
X356381Y38143D01*
X356919Y38287D01*
X357434Y38500D01*
X357916Y38779D01*
X358358Y39118D01*
X358752Y39512D01*
X359091Y39954D01*
X359370Y40436D01*
X359583Y40951D01*
X359727Y41489D01*
X359800Y42041D01*
X359800Y42599D01*
X359727Y43151D01*
X359583Y43689D01*
X359370Y44204D01*
X359091Y44686D01*
X358752Y45128D01*
X358358Y45522D01*
X357916Y45861D01*
X357434Y46140D01*
X356919Y46353D01*
X356381Y46497D01*
X355829Y46570D01*
X355271Y46570D01*
X317271Y46570D02*
X316719Y46497D01*
X316181Y46353D01*
X315666Y46140D01*
X315184Y45861D01*
X314742Y45522D01*
X314348Y45128D01*
X314009Y44686D01*
X313730Y44204D01*
X313517Y43689D01*
X313373Y43151D01*
X313300Y42599D01*
X313300Y42041D01*
X313373Y41489D01*
X313517Y40951D01*
X313730Y40436D01*
X314009Y39954D01*
X314348Y39512D01*
X314742Y39118D01*
X315184Y38779D01*
X315666Y38500D01*
X316181Y38287D01*
X316719Y38143D01*
X317271Y38070D01*
X317829Y38070D01*
X318381Y38143D01*
X318919Y38287D01*
X319434Y38500D01*
X319916Y38779D01*
X320358Y39118D01*
X320752Y39512D01*
X321091Y39954D01*
X321370Y40436D01*
X321583Y40951D01*
X321727Y41489D01*
X321800Y42041D01*
X321800Y42599D01*
X321727Y43151D01*
X321583Y43689D01*
X321370Y44204D01*
X321091Y44686D01*
X320752Y45128D01*
X320358Y45522D01*
X319916Y45861D01*
X319434Y46140D01*
X318919Y46353D01*
X318381Y46497D01*
X317829Y46570D01*
X317271Y46570D01*
M02*
