G04 EAGLE Gerber RS-274X export*
G75*
%MOMM*%
%FSLAX34Y34*%
%LPD*%
%INSolderpaste Bottom*%
%IPPOS*%
%AMOC8*
5,1,8,0,0,1.08239X$1,22.5*%
G01*
%ADD10R,2.533469X2.531044*%
%ADD11R,2.000000X0.900000*%
%ADD12R,1.200000X0.800000*%
%ADD13R,0.800000X1.200000*%
%ADD14R,1.270000X1.470000*%
%ADD15R,4.600000X1.000000*%
%ADD16R,3.400000X1.600000*%
%ADD17R,0.900000X0.800000*%
%ADD18R,0.700000X1.500000*%
%ADD19R,1.000000X0.600000*%
%ADD20R,1.000000X0.800000*%
%ADD21R,0.800000X0.900000*%
%ADD22R,0.500000X0.750000*%
%ADD23R,1.200000X1.800000*%
%ADD24R,1.200000X2.200000*%
%ADD25R,1.600000X1.500000*%
%ADD26R,1.200000X0.600000*%
%ADD27R,0.550000X1.200000*%
%ADD28R,0.900000X1.000000*%
%ADD29R,1.750000X0.400000*%
%ADD30R,1.200000X2.500000*%
%ADD31R,0.660400X2.032000*%
%ADD32R,1.270000X0.419100*%
%ADD33C,0.275000*%
%ADD34R,1.100000X1.900000*%
%ADD35R,0.400000X1.450000*%
%ADD36R,1.800000X1.500000*%
%ADD37R,1.500000X0.700000*%
%ADD38R,1.200000X2.000000*%
%ADD39R,0.600000X1.350000*%
%ADD40R,0.700000X0.900000*%


D10*
X513817Y342515D03*
D11*
X588100Y420420D03*
X588100Y407720D03*
X588100Y395020D03*
X588100Y382320D03*
X588100Y369620D03*
X588100Y356920D03*
X588100Y344220D03*
X588100Y331520D03*
X588100Y318820D03*
X588100Y306120D03*
X588100Y293420D03*
X588100Y280720D03*
X588100Y268020D03*
X588100Y255320D03*
X588100Y242620D03*
X588100Y229920D03*
X588100Y217220D03*
X588100Y204520D03*
X588100Y191820D03*
X411900Y191820D03*
X411900Y204520D03*
X411900Y217220D03*
X411900Y229920D03*
X411900Y242620D03*
X411900Y255320D03*
X411900Y268020D03*
X411900Y280720D03*
X411900Y293420D03*
X411900Y306120D03*
X411900Y318820D03*
X411900Y331520D03*
X411900Y344220D03*
X411900Y356920D03*
X411900Y369620D03*
X411900Y382320D03*
X411900Y395020D03*
X411900Y407720D03*
X411900Y420420D03*
D12*
X635000Y440800D03*
X635000Y422800D03*
X660400Y440800D03*
X660400Y422800D03*
X736600Y346600D03*
X736600Y364600D03*
D13*
X85200Y406400D03*
X67200Y406400D03*
D12*
X43180Y380890D03*
X43180Y398890D03*
X215900Y288400D03*
X215900Y270400D03*
X215900Y250300D03*
X215900Y232300D03*
D14*
X224700Y317500D03*
X181700Y317500D03*
D15*
X37930Y252890D03*
X37930Y272890D03*
D16*
X89930Y228890D03*
X89930Y296890D03*
D17*
X104300Y371500D03*
X104300Y390500D03*
X125300Y381000D03*
D12*
X685800Y422800D03*
X685800Y440800D03*
X320040Y290940D03*
X320040Y272940D03*
D13*
X271670Y110490D03*
X289670Y110490D03*
X271670Y138430D03*
X289670Y138430D03*
X271670Y166370D03*
X289670Y166370D03*
D12*
X190500Y288400D03*
X190500Y270400D03*
X190500Y250300D03*
X190500Y232300D03*
X425450Y29100D03*
X425450Y47100D03*
D13*
X123300Y355600D03*
X105300Y355600D03*
D12*
X635000Y288400D03*
X635000Y270400D03*
X635000Y308500D03*
X635000Y326500D03*
X320040Y231030D03*
X320040Y249030D03*
D18*
X462640Y39090D03*
X477640Y39090D03*
X507640Y39090D03*
D19*
X448640Y11590D03*
D20*
X448640Y32590D03*
D19*
X521640Y11590D03*
D20*
X521640Y32590D03*
D21*
X663600Y289400D03*
X682600Y289400D03*
X673100Y268400D03*
X346100Y246220D03*
X365100Y246220D03*
X355600Y225220D03*
X365100Y269400D03*
X346100Y269400D03*
X355600Y290400D03*
D22*
X233050Y180050D03*
X222050Y180050D03*
X211050Y180050D03*
X200050Y180050D03*
X189050Y180050D03*
X178050Y180050D03*
X167050Y180050D03*
X156050Y180050D03*
X145050Y180050D03*
D23*
X245050Y169800D03*
D24*
X245050Y76800D03*
D25*
X101800Y172300D03*
D24*
X90050Y76800D03*
D26*
X368360Y179070D03*
X368360Y166370D03*
X368360Y153670D03*
X368360Y140970D03*
X368360Y128270D03*
X368360Y115570D03*
X368360Y102870D03*
X368360Y90170D03*
X312360Y90170D03*
X312360Y102870D03*
X312360Y115570D03*
X312360Y128270D03*
X312360Y140970D03*
X312360Y153670D03*
X312360Y166370D03*
X312360Y179070D03*
D27*
X85700Y355299D03*
X76200Y355299D03*
X66700Y355299D03*
X66700Y381301D03*
X85700Y381301D03*
D28*
X665300Y363600D03*
X665300Y347600D03*
X706300Y347600D03*
X706300Y363600D03*
D13*
X198010Y400050D03*
X216010Y400050D03*
X198010Y425450D03*
X216010Y425450D03*
X386190Y450850D03*
X368190Y450850D03*
X386190Y425450D03*
X368190Y425450D03*
X198010Y349250D03*
X216010Y349250D03*
X198010Y374650D03*
X216010Y374650D03*
X386190Y400050D03*
X368190Y400050D03*
X386190Y374650D03*
X368190Y374650D03*
X386190Y349250D03*
X368190Y349250D03*
X386190Y323850D03*
X368190Y323850D03*
D29*
X845830Y330310D03*
X845830Y336810D03*
X845830Y343310D03*
X845830Y349810D03*
X845830Y356310D03*
X845830Y362810D03*
X845830Y369310D03*
X845830Y375810D03*
X904230Y375810D03*
X904230Y369310D03*
X904230Y362810D03*
X904230Y356310D03*
X904230Y349810D03*
X904230Y343310D03*
X904230Y336810D03*
X904230Y330310D03*
D30*
X930920Y175260D03*
X963920Y175260D03*
X748040Y177800D03*
X781040Y177800D03*
X784870Y320040D03*
X817870Y320040D03*
X965190Y318770D03*
X932190Y318770D03*
D12*
X910590Y280560D03*
X910590Y298560D03*
X838200Y280560D03*
X838200Y298560D03*
D13*
X956420Y88900D03*
X938420Y88900D03*
X753000Y91440D03*
X771000Y91440D03*
X938420Y114300D03*
X956420Y114300D03*
X753000Y116840D03*
X771000Y116840D03*
X956420Y139700D03*
X938420Y139700D03*
X771000Y142240D03*
X753000Y142240D03*
D12*
X886460Y298560D03*
X886460Y280560D03*
X861060Y298560D03*
X861060Y280560D03*
D13*
X802530Y345440D03*
X820530Y345440D03*
X802530Y370840D03*
X820530Y370840D03*
X947530Y345440D03*
X929530Y345440D03*
X802530Y396240D03*
X820530Y396240D03*
X947530Y396240D03*
X929530Y396240D03*
X947530Y370840D03*
X929530Y370840D03*
X905620Y396240D03*
X887620Y396240D03*
X844440Y396240D03*
X862440Y396240D03*
X198010Y450850D03*
X216010Y450850D03*
D12*
X635000Y364600D03*
X635000Y346600D03*
X711200Y440800D03*
X711200Y422800D03*
D31*
X894080Y158496D03*
X894080Y219964D03*
X881380Y158496D03*
X868680Y158496D03*
X881380Y219964D03*
X868680Y219964D03*
X855980Y158496D03*
X855980Y219964D03*
X843280Y158496D03*
X843280Y219964D03*
X830580Y158496D03*
X817880Y158496D03*
X830580Y219964D03*
X817880Y219964D03*
X805180Y158496D03*
X805180Y219964D03*
D32*
X241300Y336550D03*
X241300Y349250D03*
X241300Y361950D03*
X241300Y374650D03*
X241300Y387350D03*
X241300Y400050D03*
X241300Y412750D03*
X241300Y425450D03*
X342900Y425450D03*
X342900Y412750D03*
X342900Y400050D03*
X342900Y387350D03*
X342900Y374650D03*
X342900Y361950D03*
X342900Y349250D03*
X342900Y336550D03*
D33*
X485815Y127715D02*
X495465Y127715D01*
X495465Y124965D01*
X485815Y124965D01*
X485815Y127715D01*
X485815Y127577D02*
X495465Y127577D01*
X495465Y118215D02*
X485815Y118215D01*
X495465Y118215D02*
X495465Y115465D01*
X485815Y115465D01*
X485815Y118215D01*
X485815Y118077D02*
X495465Y118077D01*
X495465Y108715D02*
X485815Y108715D01*
X495465Y108715D02*
X495465Y105965D01*
X485815Y105965D01*
X485815Y108715D01*
X485815Y108577D02*
X495465Y108577D01*
X471765Y105965D02*
X462115Y105965D01*
X462115Y108715D01*
X471765Y108715D01*
X471765Y105965D01*
X471765Y108577D02*
X462115Y108577D01*
X462115Y124965D02*
X471765Y124965D01*
X462115Y124965D02*
X462115Y127715D01*
X471765Y127715D01*
X471765Y124965D01*
X471765Y127577D02*
X462115Y127577D01*
D13*
X444390Y91440D03*
X462390Y91440D03*
D12*
X444500Y109110D03*
X444500Y127110D03*
X539750Y29100D03*
X539750Y47100D03*
D34*
X394900Y90720D03*
X417900Y127720D03*
X417900Y90720D03*
X394900Y127720D03*
D13*
X174100Y203200D03*
X156100Y203200D03*
D35*
X336550Y47570D03*
X343050Y47570D03*
X349550Y47570D03*
X330050Y47570D03*
X323550Y47570D03*
D36*
X373390Y20320D03*
D37*
X336550Y20320D03*
D36*
X299710Y20320D03*
D13*
X753000Y218440D03*
X771000Y218440D03*
D38*
X688400Y16590D03*
X632400Y16590D03*
D39*
X675400Y53340D03*
X665400Y53340D03*
X655400Y53340D03*
X645400Y53340D03*
D13*
X512970Y91440D03*
X530970Y91440D03*
X512970Y113030D03*
X530970Y113030D03*
D12*
X910590Y261730D03*
X910590Y243730D03*
X886460Y261730D03*
X886460Y243730D03*
X863600Y261730D03*
X863600Y243730D03*
X838200Y261730D03*
X838200Y243730D03*
X815340Y261730D03*
X815340Y243730D03*
D13*
X803800Y135890D03*
X821800Y135890D03*
X868790Y135890D03*
X850790Y135890D03*
X882540Y135890D03*
X900540Y135890D03*
D40*
X285900Y180340D03*
X272900Y180340D03*
X287020Y152400D03*
X274020Y152400D03*
X287020Y124460D03*
X274020Y124460D03*
M02*
