G04 EAGLE Gerber RS-274X export*
G75*
%MOMM*%
%FSLAX34Y34*%
%LPD*%
%INSolderpaste Top*%
%IPPOS*%
%AMOC8*
5,1,8,0,0,1.08239X$1,22.5*%
G01*
%ADD10R,4.000000X0.400000*%
%ADD11R,1.524000X0.762000*%
%ADD12C,0.300000*%


D10*
X649620Y256350D03*
X649620Y264350D03*
X649620Y248350D03*
X649620Y240350D03*
X649620Y232350D03*
X649620Y224350D03*
X649620Y216350D03*
X649620Y208350D03*
X649620Y272350D03*
X649620Y280350D03*
X649620Y288350D03*
X649620Y296350D03*
X649620Y304350D03*
X649620Y312350D03*
X649620Y200350D03*
X649620Y192350D03*
X649620Y320350D03*
X649620Y328350D03*
D11*
X135890Y368300D03*
X80010Y368300D03*
X135890Y406400D03*
X80010Y406400D03*
X81280Y290830D03*
X137160Y290830D03*
X81280Y252730D03*
X137160Y252730D03*
X78740Y311150D03*
X22860Y311150D03*
X78740Y349250D03*
X22860Y349250D03*
X137160Y349250D03*
X193040Y349250D03*
X137160Y311150D03*
X193040Y311150D03*
X135890Y163830D03*
X191770Y163830D03*
X135890Y125730D03*
X191770Y125730D03*
X22860Y165100D03*
X78740Y165100D03*
X22860Y127000D03*
X78740Y127000D03*
X918210Y248920D03*
X862330Y248920D03*
X918210Y287020D03*
X862330Y287020D03*
X967740Y364490D03*
X911860Y364490D03*
X967740Y402590D03*
X911860Y402590D03*
X862330Y163830D03*
X918210Y163830D03*
X862330Y125730D03*
X918210Y125730D03*
D12*
X558610Y28900D02*
X558610Y21900D01*
X551610Y21900D01*
X551610Y28900D01*
X558610Y28900D01*
X558610Y24750D02*
X551610Y24750D01*
X551610Y27600D02*
X558610Y27600D01*
X576150Y28900D02*
X576150Y21900D01*
X569150Y21900D01*
X569150Y28900D01*
X576150Y28900D01*
X576150Y24750D02*
X569150Y24750D01*
X569150Y27600D02*
X576150Y27600D01*
M02*
