G04 EAGLE Gerber RS-274X export*
G75*
%MOMM*%
%FSLAX34Y34*%
%LPD*%
%INSoldermask Bottom*%
%IPPOS*%
%AMOC8*
5,1,8,0,0,1.08239X$1,22.5*%
G01*
%ADD10R,2.203200X1.103200*%
%ADD11R,4.203200X4.203200*%
%ADD12R,1.403200X1.003200*%
%ADD13R,1.003200X1.403200*%
%ADD14R,1.473200X1.673200*%
%ADD15R,4.803200X1.203200*%
%ADD16R,3.603200X1.803200*%
%ADD17R,1.103200X1.003200*%
%ADD18R,0.903200X1.703200*%
%ADD19R,1.203200X0.803200*%
%ADD20R,1.203200X1.003200*%
%ADD21C,1.103200*%
%ADD22R,1.003200X1.103200*%
%ADD23R,0.703200X0.953200*%
%ADD24R,1.403200X2.003200*%
%ADD25R,1.403200X2.403200*%
%ADD26R,1.803200X1.703200*%
%ADD27R,1.403200X0.803200*%
%ADD28R,0.753200X1.403200*%
%ADD29R,0.838200X1.473200*%
%ADD30R,1.103200X1.203200*%
%ADD31R,1.953200X0.603200*%
%ADD32R,1.403200X2.703200*%
%ADD33C,4.219200*%
%ADD34C,2.387600*%
%ADD35C,1.403200*%
%ADD36C,0.889000*%
%ADD37C,1.270000*%
%ADD38R,0.863600X2.235200*%
%ADD39R,1.473200X0.622300*%
%ADD40C,0.474516*%
%ADD41C,0.965200*%
%ADD42R,1.303200X2.103200*%
%ADD43R,0.603200X1.653200*%
%ADD44C,1.053200*%
%ADD45R,2.000000X1.700000*%
%ADD46R,2.700000X1.700000*%
%ADD47R,1.403200X2.203200*%
%ADD48R,0.803200X1.553200*%
%ADD49R,1.625600X1.625600*%
%ADD50C,1.625600*%
%ADD51R,0.903200X1.103200*%
%ADD52C,0.959600*%

G36*
X281370Y207657D02*
X281370Y207657D01*
X281436Y207659D01*
X281479Y207677D01*
X281526Y207685D01*
X281583Y207719D01*
X281643Y207744D01*
X281678Y207775D01*
X281719Y207800D01*
X281761Y207851D01*
X281809Y207895D01*
X281831Y207937D01*
X281860Y207974D01*
X281881Y208036D01*
X281912Y208095D01*
X281920Y208149D01*
X281932Y208186D01*
X281931Y208226D01*
X281939Y208280D01*
X281939Y210820D01*
X281928Y210885D01*
X281926Y210951D01*
X281908Y210994D01*
X281900Y211041D01*
X281866Y211098D01*
X281841Y211158D01*
X281810Y211193D01*
X281785Y211234D01*
X281734Y211276D01*
X281690Y211324D01*
X281648Y211346D01*
X281611Y211375D01*
X281549Y211396D01*
X281490Y211427D01*
X281436Y211435D01*
X281399Y211447D01*
X281359Y211446D01*
X281305Y211454D01*
X277495Y211454D01*
X277430Y211443D01*
X277364Y211441D01*
X277321Y211423D01*
X277274Y211415D01*
X277217Y211381D01*
X277157Y211356D01*
X277122Y211325D01*
X277081Y211300D01*
X277040Y211249D01*
X276991Y211205D01*
X276969Y211163D01*
X276940Y211126D01*
X276919Y211064D01*
X276888Y211005D01*
X276880Y210951D01*
X276868Y210914D01*
X276868Y210911D01*
X276869Y210874D01*
X276861Y210820D01*
X276861Y208280D01*
X276872Y208215D01*
X276874Y208149D01*
X276892Y208106D01*
X276900Y208059D01*
X276934Y208002D01*
X276959Y207942D01*
X276990Y207907D01*
X277015Y207866D01*
X277066Y207825D01*
X277110Y207776D01*
X277152Y207754D01*
X277189Y207725D01*
X277251Y207704D01*
X277310Y207673D01*
X277364Y207665D01*
X277401Y207653D01*
X277441Y207654D01*
X277495Y207646D01*
X281305Y207646D01*
X281370Y207657D01*
G37*
D10*
X588100Y420420D03*
X588100Y407720D03*
X588100Y395020D03*
X588100Y382320D03*
X588100Y369620D03*
X588100Y356920D03*
X588100Y344220D03*
X588100Y331520D03*
X588100Y318820D03*
X588100Y306120D03*
X588100Y293420D03*
X588100Y280720D03*
X588100Y268020D03*
X588100Y255320D03*
X588100Y242620D03*
X588100Y229920D03*
X588100Y217220D03*
X588100Y204520D03*
X588100Y191820D03*
X411900Y191820D03*
X411900Y204520D03*
X411900Y217220D03*
X411900Y229920D03*
X411900Y242620D03*
X411900Y255320D03*
X411900Y268020D03*
X411900Y280720D03*
X411900Y293420D03*
X411900Y306120D03*
X411900Y318820D03*
X411900Y331520D03*
X411900Y344220D03*
X411900Y356920D03*
X411900Y369620D03*
X411900Y382320D03*
X411900Y395020D03*
X411900Y407720D03*
X411900Y420420D03*
D11*
X513800Y342520D03*
D12*
X635000Y440800D03*
X635000Y422800D03*
X660400Y440800D03*
X660400Y422800D03*
X736600Y346600D03*
X736600Y364600D03*
D13*
X85200Y406400D03*
X67200Y406400D03*
D12*
X43180Y380890D03*
X43180Y398890D03*
X215900Y288400D03*
X215900Y270400D03*
X215900Y250300D03*
X215900Y232300D03*
D14*
X224700Y317500D03*
X181700Y317500D03*
D15*
X37930Y252890D03*
X37930Y272890D03*
D16*
X89930Y228890D03*
X89930Y296890D03*
D17*
X104300Y371500D03*
X104300Y390500D03*
X125300Y381000D03*
D12*
X685800Y422800D03*
X685800Y440800D03*
X320040Y290940D03*
X320040Y272940D03*
D13*
X271670Y110490D03*
X289670Y110490D03*
X271670Y138430D03*
X289670Y138430D03*
X271670Y166370D03*
X289670Y166370D03*
D12*
X190500Y288400D03*
X190500Y270400D03*
X190500Y250300D03*
X190500Y232300D03*
X425450Y29100D03*
X425450Y47100D03*
D13*
X123300Y355600D03*
X105300Y355600D03*
D12*
X635000Y288400D03*
X635000Y270400D03*
X635000Y308500D03*
X635000Y326500D03*
X320040Y231030D03*
X320040Y249030D03*
D18*
X462640Y39090D03*
X477640Y39090D03*
X507640Y39090D03*
D19*
X448640Y11590D03*
D20*
X448640Y32590D03*
D19*
X521640Y11590D03*
D20*
X521640Y32590D03*
D21*
X470140Y21590D03*
X500140Y21590D03*
D22*
X663600Y289400D03*
X682600Y289400D03*
X673100Y268400D03*
X346100Y246220D03*
X365100Y246220D03*
X355600Y225220D03*
X365100Y269400D03*
X346100Y269400D03*
X355600Y290400D03*
D23*
X233050Y180050D03*
X222050Y180050D03*
X211050Y180050D03*
X200050Y180050D03*
X189050Y180050D03*
X178050Y180050D03*
X167050Y180050D03*
X156050Y180050D03*
X145050Y180050D03*
D24*
X245050Y169800D03*
D25*
X245050Y76800D03*
D26*
X101800Y172300D03*
D25*
X90050Y76800D03*
D27*
X368360Y179070D03*
X368360Y166370D03*
X368360Y153670D03*
X368360Y140970D03*
X368360Y128270D03*
X368360Y115570D03*
X368360Y102870D03*
X368360Y90170D03*
X312360Y90170D03*
X312360Y102870D03*
X312360Y115570D03*
X312360Y128270D03*
X312360Y140970D03*
X312360Y153670D03*
X312360Y166370D03*
X312360Y179070D03*
D28*
X85700Y355299D03*
X76200Y355299D03*
X66700Y355299D03*
X66700Y381301D03*
X85700Y381301D03*
D29*
X274320Y209550D03*
X284480Y209550D03*
D30*
X665300Y363600D03*
X665300Y347600D03*
X706300Y347600D03*
X706300Y363600D03*
D13*
X198010Y400050D03*
X216010Y400050D03*
X198010Y425450D03*
X216010Y425450D03*
X386190Y450850D03*
X368190Y450850D03*
X386190Y425450D03*
X368190Y425450D03*
X198010Y349250D03*
X216010Y349250D03*
X198010Y374650D03*
X216010Y374650D03*
X386190Y400050D03*
X368190Y400050D03*
X386190Y374650D03*
X368190Y374650D03*
X386190Y349250D03*
X368190Y349250D03*
X386190Y323850D03*
X368190Y323850D03*
D31*
X845830Y330310D03*
X845830Y336810D03*
X845830Y343310D03*
X845830Y349810D03*
X845830Y356310D03*
X845830Y362810D03*
X845830Y369310D03*
X845830Y375810D03*
X904230Y375810D03*
X904230Y369310D03*
X904230Y362810D03*
X904230Y356310D03*
X904230Y349810D03*
X904230Y343310D03*
X904230Y336810D03*
X904230Y330310D03*
D32*
X930920Y175260D03*
X963920Y175260D03*
X748040Y177800D03*
X781040Y177800D03*
X784870Y320040D03*
X817870Y320040D03*
X965190Y318770D03*
X932190Y318770D03*
D12*
X910590Y280560D03*
X910590Y298560D03*
X838200Y280560D03*
X838200Y298560D03*
D13*
X956420Y88900D03*
X938420Y88900D03*
X753000Y91440D03*
X771000Y91440D03*
X938420Y114300D03*
X956420Y114300D03*
X753000Y116840D03*
X771000Y116840D03*
X956420Y139700D03*
X938420Y139700D03*
X771000Y142240D03*
X753000Y142240D03*
D12*
X886460Y298560D03*
X886460Y280560D03*
X861060Y298560D03*
X861060Y280560D03*
D13*
X802530Y345440D03*
X820530Y345440D03*
X802530Y370840D03*
X820530Y370840D03*
X947530Y345440D03*
X929530Y345440D03*
X802530Y396240D03*
X820530Y396240D03*
X947530Y396240D03*
X929530Y396240D03*
X947530Y370840D03*
X929530Y370840D03*
X905620Y396240D03*
X887620Y396240D03*
X844440Y396240D03*
X862440Y396240D03*
D33*
X30480Y30480D03*
X30480Y468630D03*
X969010Y468630D03*
X969010Y30480D03*
D34*
X852170Y36830D03*
X877170Y86830D03*
X902170Y86830D03*
X827170Y86830D03*
X802170Y86830D03*
D35*
X902170Y36830D03*
X902170Y11830D03*
X802170Y11830D03*
X802170Y36830D03*
X852170Y86830D03*
D36*
X139300Y457200D03*
X89300Y457200D03*
D37*
X79300Y432200D03*
X149300Y432200D03*
D36*
X914000Y457200D03*
X864000Y457200D03*
D37*
X854000Y432200D03*
X924000Y432200D03*
D13*
X198010Y450850D03*
X216010Y450850D03*
D12*
X635000Y364600D03*
X635000Y346600D03*
X711200Y440800D03*
X711200Y422800D03*
D38*
X894080Y158496D03*
X894080Y219964D03*
X881380Y158496D03*
X868680Y158496D03*
X881380Y219964D03*
X868680Y219964D03*
X855980Y158496D03*
X855980Y219964D03*
X843280Y158496D03*
X843280Y219964D03*
X830580Y158496D03*
X817880Y158496D03*
X830580Y219964D03*
X817880Y219964D03*
X805180Y158496D03*
X805180Y219964D03*
D39*
X241300Y336550D03*
X241300Y349250D03*
X241300Y361950D03*
X241300Y374650D03*
X241300Y387350D03*
X241300Y400050D03*
X241300Y412750D03*
X241300Y425450D03*
X342900Y425450D03*
X342900Y412750D03*
X342900Y400050D03*
X342900Y387350D03*
X342900Y374650D03*
X342900Y361950D03*
X342900Y349250D03*
X342900Y336550D03*
D40*
X485796Y127734D02*
X495484Y127734D01*
X495484Y124946D01*
X485796Y124946D01*
X485796Y127734D01*
X485796Y118234D02*
X495484Y118234D01*
X495484Y115446D01*
X485796Y115446D01*
X485796Y118234D01*
X485796Y108734D02*
X495484Y108734D01*
X495484Y105946D01*
X485796Y105946D01*
X485796Y108734D01*
X471784Y105946D02*
X462096Y105946D01*
X462096Y108734D01*
X471784Y108734D01*
X471784Y105946D01*
X471784Y124946D02*
X462096Y124946D01*
X462096Y127734D01*
X471784Y127734D01*
X471784Y124946D01*
D13*
X444390Y91440D03*
X462390Y91440D03*
D12*
X444500Y109110D03*
X444500Y127110D03*
D41*
X453390Y66040D03*
X38100Y339090D03*
X165100Y381000D03*
X279400Y88900D03*
D12*
X539750Y29100D03*
X539750Y47100D03*
D42*
X394900Y90720D03*
X417900Y127720D03*
X417900Y90720D03*
X394900Y127720D03*
D13*
X174100Y203200D03*
X156100Y203200D03*
D43*
X336550Y47570D03*
X343050Y47570D03*
X349550Y47570D03*
X330050Y47570D03*
X323550Y47570D03*
D44*
X355550Y42320D03*
X317550Y42320D03*
D45*
X373390Y20320D03*
X299710Y20320D03*
D46*
X336550Y20320D03*
D13*
X753000Y218440D03*
X771000Y218440D03*
D47*
X688400Y16590D03*
X632400Y16590D03*
D48*
X675400Y53340D03*
X665400Y53340D03*
X655400Y53340D03*
X645400Y53340D03*
D13*
X512970Y91440D03*
X530970Y91440D03*
X512970Y113030D03*
X530970Y113030D03*
D12*
X910590Y261730D03*
X910590Y243730D03*
X886460Y261730D03*
X886460Y243730D03*
X863600Y261730D03*
X863600Y243730D03*
X838200Y261730D03*
X838200Y243730D03*
X815340Y261730D03*
X815340Y243730D03*
D49*
X952500Y251300D03*
D50*
X952500Y231300D03*
D13*
X803800Y135890D03*
X821800Y135890D03*
X868790Y135890D03*
X850790Y135890D03*
X882540Y135890D03*
X900540Y135890D03*
D51*
X285900Y180340D03*
X272900Y180340D03*
X287020Y152400D03*
X274020Y152400D03*
X287020Y124460D03*
X274020Y124460D03*
D52*
X320548Y187960D03*
X293624Y240792D03*
X396240Y365760D03*
X396240Y351536D03*
X699516Y291084D03*
X565404Y399034D03*
X621792Y389636D03*
X705612Y251460D03*
X450850Y366776D03*
X341376Y146304D03*
X396240Y248920D03*
X467360Y307340D03*
X692912Y372872D03*
X693420Y229870D03*
X165100Y292100D03*
X259080Y213360D03*
X318770Y208280D03*
X292100Y393700D03*
X508000Y139700D03*
X558800Y355600D03*
X889000Y317500D03*
X698500Y127000D03*
X872490Y196850D03*
X125730Y335280D03*
X438150Y218440D03*
X165100Y254000D03*
X292100Y330200D03*
X558800Y152400D03*
X353060Y210820D03*
X381000Y304800D03*
X472694Y346202D03*
X352552Y313182D03*
X136144Y135128D03*
X304800Y254000D03*
X279400Y228600D03*
X285496Y191008D03*
X330200Y146304D03*
X443992Y323850D03*
X623824Y219456D03*
X506984Y183896D03*
X300736Y140208D03*
X432816Y330454D03*
X496824Y183896D03*
X358648Y350520D03*
X394208Y385064D03*
X572008Y289560D03*
X860552Y337312D03*
X622808Y329184D03*
X423926Y153416D03*
X460248Y156464D03*
X495300Y261112D03*
X482600Y291846D03*
X487680Y348488D03*
X396240Y375920D03*
X860552Y347472D03*
X615696Y316992D03*
X623824Y281432D03*
X324104Y263144D03*
X351536Y235712D03*
X340360Y87630D03*
X349250Y107950D03*
X335280Y107442D03*
X328930Y87122D03*
X324358Y69342D03*
X373888Y58928D03*
X450088Y192278D03*
X242316Y286512D03*
X205232Y411480D03*
X222504Y412496D03*
X335280Y433832D03*
X353568Y418592D03*
X250698Y312166D03*
X361696Y386080D03*
X371856Y386080D03*
X675640Y319786D03*
X830072Y322072D03*
X389128Y264160D03*
X900176Y305816D03*
X900176Y290576D03*
X224282Y467614D03*
X478536Y359664D03*
X351536Y329184D03*
X560070Y302768D03*
X568198Y326390D03*
X468376Y254000D03*
X680720Y182880D03*
X516128Y299212D03*
X565912Y240792D03*
X540512Y105664D03*
X540512Y119888D03*
X565912Y35560D03*
X94488Y385064D03*
X95504Y363728D03*
X114808Y371856D03*
X505714Y58674D03*
X559816Y42672D03*
X291338Y77470D03*
M02*
