G04 EAGLE Gerber RS-274X export*
G75*
%MOMM*%
%FSLAX34Y34*%
%LPD*%
%INSoldermask Top*%
%IPPOS*%
%AMOC8*
5,1,8,0,0,1.08239X$1,22.5*%
G01*
%ADD10C,1.103200*%
%ADD11R,4.203200X0.603200*%
%ADD12R,1.727200X0.965200*%
%ADD13C,4.219200*%
%ADD14C,2.387600*%
%ADD15C,1.403200*%
%ADD16C,2.286000*%
%ADD17C,1.778000*%
%ADD18C,0.505344*%
%ADD19C,1.053200*%
%ADD20R,1.625600X1.625600*%
%ADD21C,1.625600*%
%ADD22C,0.959600*%


D10*
X470140Y21590D03*
X500140Y21590D03*
D11*
X649620Y256350D03*
X649620Y264350D03*
X649620Y248350D03*
X649620Y240350D03*
X649620Y232350D03*
X649620Y224350D03*
X649620Y216350D03*
X649620Y208350D03*
X649620Y272350D03*
X649620Y280350D03*
X649620Y288350D03*
X649620Y296350D03*
X649620Y304350D03*
X649620Y312350D03*
X649620Y200350D03*
X649620Y192350D03*
X649620Y320350D03*
X649620Y328350D03*
D12*
X135890Y368300D03*
X80010Y368300D03*
X135890Y406400D03*
X80010Y406400D03*
X81280Y290830D03*
X137160Y290830D03*
X81280Y252730D03*
X137160Y252730D03*
X78740Y311150D03*
X22860Y311150D03*
X78740Y349250D03*
X22860Y349250D03*
X137160Y349250D03*
X193040Y349250D03*
X137160Y311150D03*
X193040Y311150D03*
X135890Y163830D03*
X191770Y163830D03*
X135890Y125730D03*
X191770Y125730D03*
X22860Y165100D03*
X78740Y165100D03*
X22860Y127000D03*
X78740Y127000D03*
X918210Y248920D03*
X862330Y248920D03*
X918210Y287020D03*
X862330Y287020D03*
X967740Y364490D03*
X911860Y364490D03*
X967740Y402590D03*
X911860Y402590D03*
X862330Y163830D03*
X918210Y163830D03*
X862330Y125730D03*
X918210Y125730D03*
D13*
X30480Y30480D03*
X30480Y468630D03*
X969010Y468630D03*
X969010Y30480D03*
D14*
X852170Y36830D03*
X877170Y86830D03*
X902170Y86830D03*
X827170Y86830D03*
X802170Y86830D03*
D15*
X902170Y36830D03*
X902170Y11830D03*
X802170Y11830D03*
X802170Y36830D03*
X852170Y86830D03*
D16*
X79300Y432200D03*
D17*
X139300Y457200D03*
X89300Y457200D03*
D16*
X149300Y432200D03*
X854000Y432200D03*
D17*
X914000Y457200D03*
X864000Y457200D03*
D16*
X924000Y432200D03*
D18*
X558600Y28890D02*
X558600Y21910D01*
X551620Y21910D01*
X551620Y28890D01*
X558600Y28890D01*
X558600Y26710D02*
X551620Y26710D01*
X576140Y28890D02*
X576140Y21910D01*
X569160Y21910D01*
X569160Y28890D01*
X576140Y28890D01*
X576140Y26710D02*
X569160Y26710D01*
D19*
X355550Y42320D03*
X317550Y42320D03*
D20*
X952500Y251300D03*
D21*
X952500Y231300D03*
D22*
X320548Y187960D03*
X293624Y240792D03*
X396240Y365760D03*
X396240Y351536D03*
X699516Y291084D03*
X565404Y399034D03*
X621792Y389636D03*
X705612Y251460D03*
X450850Y366776D03*
X341376Y146304D03*
X396240Y248920D03*
X467360Y307340D03*
X692912Y372872D03*
X693420Y229870D03*
X165100Y292100D03*
X259080Y213360D03*
X318770Y208280D03*
X292100Y393700D03*
X508000Y139700D03*
X558800Y355600D03*
X889000Y317500D03*
X698500Y127000D03*
X872490Y196850D03*
X125730Y335280D03*
X438150Y218440D03*
X165100Y254000D03*
X292100Y330200D03*
X558800Y152400D03*
X353060Y210820D03*
X381000Y304800D03*
X472694Y346202D03*
X352552Y313182D03*
X136144Y135128D03*
X304800Y254000D03*
X279400Y228600D03*
X285496Y191008D03*
X330200Y146304D03*
X443992Y323850D03*
X623824Y219456D03*
X506984Y183896D03*
X300736Y140208D03*
X432816Y330454D03*
X496824Y183896D03*
X358648Y350520D03*
X394208Y385064D03*
X572008Y289560D03*
X860552Y337312D03*
X622808Y329184D03*
X423926Y153416D03*
X460248Y156464D03*
X495300Y261112D03*
X482600Y291846D03*
X487680Y348488D03*
X396240Y375920D03*
X860552Y347472D03*
X615696Y316992D03*
X623824Y281432D03*
X324104Y263144D03*
X351536Y235712D03*
X340360Y87630D03*
X349250Y107950D03*
X335280Y107442D03*
X328930Y87122D03*
X324358Y69342D03*
X373888Y58928D03*
X450088Y192278D03*
X242316Y286512D03*
X205232Y411480D03*
X222504Y412496D03*
X335280Y433832D03*
X353568Y418592D03*
X250698Y312166D03*
X361696Y386080D03*
X371856Y386080D03*
X675640Y319786D03*
X830072Y322072D03*
X389128Y264160D03*
X900176Y305816D03*
X900176Y290576D03*
X224282Y467614D03*
X478536Y359664D03*
X351536Y329184D03*
X560070Y302768D03*
X568198Y326390D03*
X468376Y254000D03*
X680720Y182880D03*
X516128Y299212D03*
X565912Y240792D03*
X540512Y105664D03*
X540512Y119888D03*
X565912Y35560D03*
X94488Y385064D03*
X95504Y363728D03*
X114808Y371856D03*
X505714Y58674D03*
X559816Y42672D03*
X291338Y77470D03*
M02*
