M48
;GenerationSoftware,Autodesk,EAGLE,9.4.2*%
;CreationDate,2019-09-26T07:57:59Z*%
FMAT,2
ICI,OFF
METRIC,TZ,000.000
T8C0.350
T7C0.800
T6C0.850
T5C0.900
T4C0.914
T3C1.200
T2C1.300
T1C3.000
%
G90
M71
T1
X96901Y3048
X3048Y3048
X3048Y46863
X96901Y46863
T2
X85217Y3683
X87717Y8683
X90217Y8683
X82717Y8683
X80217Y8683
T3
X90217Y3683
X90217Y1183
X80217Y1183
X80217Y3683
X85217Y8683
X7930Y43220
X14930Y43220
X85400Y43220
X92400Y43220
T4
X95250Y23130
X95250Y25130
T5
X47014Y2159
X50014Y2159
T6
X35555Y4232
X31755Y4232
T7
X8930Y45720
X13930Y45720
X86400Y45720
X91400Y45720
T8
X35306Y21082
X38100Y30480
X47269Y34620
X35255Y31318
X13614Y13513
X30480Y25400
X27940Y22860
X28550Y19101
X33020Y14630
X44399Y32385
X62382Y21946
X50698Y18390
X30074Y14021
X43282Y33045
X49682Y18390
X35865Y35052
X39421Y38506
X57201Y28956
X86055Y33731
X62281Y32918
X42393Y15342
X46025Y15646
X49530Y26111
X48260Y29185
X48768Y34849
X39624Y37592
X86055Y34747
X61570Y31699
X62382Y28143
X32410Y26314
X35154Y23571
X34036Y8763
X34925Y10795
X33528Y10744
X25908Y21336
X32436Y6934
X37389Y5893
X45009Y19228
X24232Y28651
X20523Y41148
X22250Y41250
X33528Y43383
X35357Y41859
X25070Y31217
X36170Y38608
X37186Y38608
X67564Y31979
X83007Y32207
X38913Y26416
X90018Y30582
X90018Y29058
X22428Y46761
X47854Y35966
X35154Y32918
X56007Y30277
X56820Y32639
X46838Y25400
X68072Y18288
X51613Y29921
X56591Y24079
X54051Y10566
X54051Y11989
X56591Y3556
X9449Y38506
X9550Y36373
X11481Y37186
X32055Y18796
X55982Y4267
X29134Y7747
X29362Y24079
X39624Y36576
X39624Y35154
X69952Y29108
X56540Y39903
X62179Y38964
X70561Y25146
X45085Y36678
X34138Y14630
X39624Y24892
X46736Y30734
X69291Y37287
X32893Y8712
X69342Y22987
X16510Y29210
X31877Y20828
X29210Y39370
X50800Y13970
X55880Y35560
X88900Y31750
X69850Y12700
X87249Y19685
X12573Y33528
X43815Y21844
X16510Y25400
X29210Y33020
X55880Y15240
X50571Y5867
M30